<?xml version="1.0" encoding="utf-8"?>
<!-- Generator: Adobe Illustrator 23.1.0, SVG Export Plug-In . SVG Version: 6.00 Build 0)  -->
<svg version="1.1" id="eb7145bf-7e09-429c-a529-19108004bd12"
	 xmlns="http://www.w3.org/2000/svg" xmlns:xlink="http://www.w3.org/1999/xlink" x="0px" y="0px" viewBox="0 0 640 556.8"
	 style="enable-background:new 0 0 640 556.8;" xml:space="preserve">
<style type="text/css">
	.st0{opacity:0.1;fill:#0D53B8;enable-background:new    ;}
	.st1{fill:#FFBEC7;}
	.st2{fill:url(#SVGID_1_);}
	.st3{fill:url(#SVGID_2_);}
	.st4{fill:url(#SVGID_3_);}
	.st5{fill:url(#SVGID_4_);}
	.st6{fill:url(#SVGID_5_);}
	.st7{fill:#DFE5EE;}
	.st8{opacity:5.000000e-02;enable-background:new    ;}
	.st9{fill:#0D53B8;}
	.st10{opacity:0.5;fill:#EFF4F8;enable-background:new    ;}
	.st11{fill:url(#SVGID_6_);}
	.st12{fill:#535461;}
	.st13{fill:#F1F1F4;}
	.st14{fill:#FFFFFF;}
	.st15{fill:url(#SVGID_7_);}
	.st16{fill:#00A86B;}
	.st17{fill:url(#SVGID_8_);}
	.st18{fill:#EB402F;}
	.st19{fill:url(#SVGID_9_);}
</style>
<title>accept_terms</title>
<path class="st0" d="M0.3,285.8c1.9,21.5,14.1,40.9,21.5,61.3c10.5,29,11.5,60.6,2.8,90.2c-1.8,6.1-3.9,12.2-4,18.4
	c0,21.5,24.5,35.8,46.7,45.2c56.6,24,115.5,41.8,175.9,53.2c19.8,3.7,44.4,5.3,56.9-8.7c6-6.7,7.5-15.6,11.9-23.1
	c11.2-19.3,38.6-26.8,63.1-31c29.6-5.2,59.4-8.6,89.4-10.3c30.2-1.7,64.4-3.2,84.4-23c12.7-12.6,16.4-30,16.9-46.4
	c1.7-53.9-24.1-112.1,9-158.8c13.9-19.6,36.5-33.9,50.2-53.5c19.9-28.4,18.2-64.5,4.7-94.8c-13.5-30.3-37.3-56.1-60.9-81.3
	c-7.8-8.3-16.1-17-27.8-20.9c-12.2-4-25.9-2.2-39-0.3c-59.3,8.7-120.9,18.1-170.6,47.8c-24.7,14.8-45.3,33.9-67.4,51.5
	c-47.6,38.1-102.7,73.2-165.6,88.2C47.6,201.9-4.3,234.8,0.3,285.8z"/>
<path class="st1" d="M194.3,133.1c0,0-41-7.2,0,48.3V133.1z"/>
<linearGradient id="SVGID_1_" gradientUnits="userSpaceOnUse" x1="493.9426" y1="-23.8126" x2="493.9426" y2="363.1738" gradientTransform="matrix(1 0 0 -1 -147.3 502.9684)">
	<stop  offset="0" style="stop-color:#808080;stop-opacity:0.25"/>
	<stop  offset="0.54" style="stop-color:#808080;stop-opacity:0.12"/>
	<stop  offset="1" style="stop-color:#808080;stop-opacity:0.1"/>
</linearGradient>
<path class="st2" d="M475.8,414.1c0,0-5.9-6.7-22.3-2.7c-8-7.6-18-18.7-18.4-26.8c-3.3,1.1-6.6,2.3-9.8,3.7
	c-13.9-15.5-31.7-40.1-30.9-63.8c1.3-38.7-25.3-105.5-25.3-105.5s2.2-27.3-1.9-49.8c-2.8-15.3-8.5-28.4-19.7-29.4
	c-1.7-0.2-3.5,0-5.1,0.6c-20.7,7.1-7.8,73.1-7.8,73.1l-17.9,55.2l-104.9,55.8c0,0,63.5,83.4,94.4,86.5c0,0,22.7,23.8,39.1,44.8
	c-5.8,7.8-8.9,12.9-8.9,12.9l15.8,22.6c-6.5,8.7-15.7,25.9,4.5,33.9c27.8,11,88.8-39.3,88.8-39.3S498.6,450.9,475.8,414.1z"/>
<linearGradient id="SVGID_2_" gradientUnits="userSpaceOnUse" x1="330.9295" y1="321.105" x2="330.9295" y2="370.5065" gradientTransform="matrix(1 0 0 -1 -147.3 502.9684)">
	<stop  offset="0" style="stop-color:#808080;stop-opacity:0.25"/>
	<stop  offset="0.54" style="stop-color:#808080;stop-opacity:0.12"/>
	<stop  offset="1" style="stop-color:#808080;stop-opacity:0.1"/>
</linearGradient>
<path class="st3" d="M193,132.8c0,0-42-7.4,0,49.1V132.8z"/>
<linearGradient id="SVGID_3_" gradientUnits="userSpaceOnUse" x1="330.7185" y1="283.7754" x2="330.7185" y2="317.719" gradientTransform="matrix(1 0 0 -1 -147.3 502.9684)">
	<stop  offset="0" style="stop-color:#808080;stop-opacity:0.25"/>
	<stop  offset="0.54" style="stop-color:#808080;stop-opacity:0.12"/>
	<stop  offset="1" style="stop-color:#808080;stop-opacity:0.1"/>
</linearGradient>
<path class="st4" d="M183.4,185.2c0,0-15.3,0-15,19c0.1,6.5,4.3,12.3,10.4,14.3c3.3,1.1,6.8,0.8,9.9-0.7c8.6-4.2,12.1-14.5,8-23
	c-0.7-1.5-1.7-2.9-2.9-4.2C191.1,187.7,187.4,185.8,183.4,185.2z"/>
<linearGradient id="SVGID_4_" gradientUnits="userSpaceOnUse" x1="333.2611" y1="247.592" x2="333.2611" y2="280.2895" gradientTransform="matrix(1 0 0 -1 -147.3 502.9684)">
	<stop  offset="0" style="stop-color:#808080;stop-opacity:0.25"/>
	<stop  offset="0.54" style="stop-color:#808080;stop-opacity:0.12"/>
	<stop  offset="1" style="stop-color:#808080;stop-opacity:0.1"/>
</linearGradient>
<path class="st5" d="M190.8,223.7c-1.4-0.7-2.8-1-4.3-1.1c0,0-14.8,3.7-12.3,21.5c0,0,1.2,12.9,14.2,11c8.9-1.3,9.9-12.9,9.7-20.1
	C197.9,230.3,195.2,225.9,190.8,223.7z"/>
<linearGradient id="SVGID_5_" gradientUnits="userSpaceOnUse" x1="332.9023" y1="190.6989" x2="332.9023" y2="233.0413" gradientTransform="matrix(1 0 0 -1 -147.3 502.9684)">
	<stop  offset="0" style="stop-color:#808080;stop-opacity:0.25"/>
	<stop  offset="0.54" style="stop-color:#808080;stop-opacity:0.12"/>
	<stop  offset="1" style="stop-color:#808080;stop-opacity:0.1"/>
</linearGradient>
<path class="st6" d="M191.4,271c-1.1-0.6-2.4-1-3.7-1.1c-1.6,1-3.1,2.1-4.6,3.4c-2.4,2-4.5,4.3-6.4,6.9c-5.6,8.1-7.4,20,13.4,32.1
	v-16c2.6-2.4,4.8-5.2,6.4-8.3C199.9,281.8,197.6,274.2,191.4,271z"/>
<path class="st7" d="M334.6,463.4c0,0,38-63.3,96.5-82.6l-3,34.4l-48.5,48.3L334.6,463.4z"/>
<path class="st8" d="M334.6,463.4c0,0,38-63.3,96.5-82.6l-3,34.4l-48.5,48.3L334.6,463.4z"/>
<path class="st9" d="M354.5,480.3c0,0-27.2,27.8,0,38.6c27.2,10.9,86.9-38.6,86.9-38.6s51.9-34.4,29.6-70.6
	C470.9,409.7,445.6,380.7,354.5,480.3z"/>
<path class="st1" d="M437.2,400c0,0-79,91.7-77.8,78.4c0.4-3.9-4.1-11.6-10.6-20.5c-15.8-21.8-43.7-51.3-43.7-51.3
	c-30.2-3-92.3-85.1-92.3-85.1l102.6-54.9l17.5-54.3c0,0-12.6-64.9,7.7-71.9c1.6-0.5,3.3-0.7,5-0.6c0.7,0.1,1.5,0.2,2.2,0.4
	c9.5,2.4,14.5,14.4,17,28.3c0,0.1,0,0.2,0,0.2c4,22.2,1.9,49,1.9,49s25.9,65.7,24.7,103.8c-0.8,25.4,20,52,33.9,66.7
	C432,395.6,437.2,400,437.2,400z"/>
<path class="st8" d="M328,351.2c0,0,1.2-57.3-9-71.8c-10.3-14.5-92.9,45.9-92.9,45.9S311.7,335.5,328,351.2z"/>
<path class="st8" d="M354.5,371.7c0,0,37.3-22,36.8-57.5"/>
<path class="st8" d="M334.6,392.8c0,0-10.3,14.5-29.6,13.9"/>
<path class="st8" d="M437.2,400c0,0-79,91.7-77.8,78.4c0.4-3.9-4.1-11.6-10.6-20.5c43.8-15,67.5-52.5,76.4-69.6
	C432,395.6,437.2,400,437.2,400z"/>
<path class="st7" d="M458.6,416.7c0,0.2,0,0.4-0.1,0.5c-1.2,6.1-2.1,12.3-3.1,18.4c-0.3,2-0.8,3.9-1.4,5.8c-1.7,5-4.3,9.7-7.7,13.8
	c-24,30.5-85.2,46.2-85.2,46.2l-0.2-0.3l-26.3-37.7c69.4-13.3,96.5-82.6,96.5-82.6c0.5,11.6,21.3,29.6,26.5,34
	C458.3,415.2,458.6,416,458.6,416.7L458.6,416.7z"/>
<path class="st10" d="M364.6,168.6c-17.5-2.2-18.9-17.2-17.6-28.1c0.2-0.1,0.4-0.1,0.6-0.2C357.1,142.8,362.1,154.8,364.6,168.6z"/>
<path class="st8" d="M458.6,416.7c0,0.2,0,0.4-0.1,0.5c-1.2,6.1-2.1,12.3-3.1,18.4c-0.3,2-0.8,3.9-1.4,5.8l-1.5,4.1l-3.6,6l-2.5,3.6
	c-24,30.5-85.2,46.2-85.2,46.2l-0.2-0.3c1.9-0.8,43.2-17.8,59.7-33.2c15.7-14.5,34.9-47.7,37.7-52.5
	C458.5,415.8,458.6,416.3,458.6,416.7z"/>
<path d="M450.1,448.6"/>
<linearGradient id="SVGID_6_" gradientUnits="userSpaceOnUse" x1="411.1954" y1="171.4504" x2="411.1954" y2="465.2176" gradientTransform="matrix(1 0 0 -1 -147.3 502.9684)">
	<stop  offset="0" style="stop-color:#808080;stop-opacity:0.25"/>
	<stop  offset="0.54" style="stop-color:#808080;stop-opacity:0.12"/>
	<stop  offset="1" style="stop-color:#808080;stop-opacity:0.1"/>
</linearGradient>
<path class="st11" d="M325.4,37.8H202.4c-6.7,0-12.2,5.4-12.2,12.2c0,0,0,0,0,0v269.5c0,6.7,5.5,12.2,12.2,12.2c0,0,0,0,0,0h123.1
	c6.7,0,12.2-5.4,12.2-12.2c0,0,0,0,0,0V49.9C337.6,43.2,332.1,37.7,325.4,37.8z"/>
<path class="st12" d="M199.1,40h129.6c4.3,0,7.8,3.5,7.8,7.8v274.8c0,4.3-3.5,7.8-7.8,7.8H199.1c-4.3,0-7.8-3.5-7.8-7.8V47.8
	C191.3,43.5,194.8,40,199.1,40z"/>
<rect x="202" y="67" class="st13" width="123.8" height="236.4"/>
<circle class="st14" cx="249.3" cy="53.5" r="1.1"/>
<path class="st14" d="M255.6,52.4h23.3c0.4,0,0.7,0.3,0.7,0.7v0.8c0,0.4-0.3,0.7-0.7,0.7h-23.3c-0.4,0-0.7-0.3-0.7-0.7v-0.8
	C254.9,52.7,255.2,52.4,255.6,52.4z"/>
<circle class="st14" cx="263.3" cy="314.6" r="7.9"/>
<path class="st1" d="M185,184.7c0,0-15,0-14.7,18.6c0.1,6.4,4.2,12,10.2,14.1c3.2,1,6.7,0.8,9.7-0.7c8.4-4.1,11.9-14.3,7.7-22.7
	C195.4,188.9,190.6,185.4,185,184.7z"/>
<path class="st10" d="M185,194.3c0,0-13.9,9.7-1.8,18.1C183.2,212.4,182,195.5,185,194.3z"/>
<path class="st1" d="M188,221.5c0,0-14.5,3.6-12.1,21.1c0,0,1.2,12.7,13.9,10.9c8.7-1.2,9.7-12.7,9.5-19.8
	c-0.1-4.8-2.8-9.1-7.1-11.2C190.9,221.8,189.5,221.5,188,221.5z"/>
<path class="st10" d="M187.4,229.3c0,0-13.9,5.4,0,20.5C187.4,249.8,180.7,235.3,187.4,229.3z"/>
<path class="st1" d="M191.6,293.9v15.7C171.3,297.7,173,286,178.5,278c1.8-2.5,3.9-4.8,6.2-6.8c1.4-1.2,2.9-2.3,4.5-3.3
	c1.3,0.1,2.5,0.4,3.6,1c6,3.2,8.2,10.7,5.1,16.7C196.3,288.7,194.1,291.5,191.6,293.9z"/>
<path class="st10" d="M181.4,286c0,0-1.6-3.8-2.9-8c1.8-2.5,3.9-4.8,6.2-6.8C188.7,277.8,181.4,286,181.4,286z"/>
<path class="st8" d="M364.5,218.1c0,0-15.7,17.5-20.5,19.3"/>
<linearGradient id="SVGID_7_" gradientUnits="userSpaceOnUse" x1="409.3406" y1="332.0926" x2="409.3406" y2="365.0847" gradientTransform="matrix(1 0 0 -1 -147.3 502.9684)">
	<stop  offset="0" style="stop-color:#808080;stop-opacity:0.25"/>
	<stop  offset="0.54" style="stop-color:#808080;stop-opacity:0.12"/>
	<stop  offset="1" style="stop-color:#808080;stop-opacity:0.1"/>
</linearGradient>
<path class="st15" d="M304.1,148.6h-59.4v0.6c-2.8-8.7-12.1-13.4-20.8-10.5c-8.7,2.8-13.4,12.1-10.5,20.8
	c2.8,8.7,12.1,13.4,20.8,10.5c5-1.6,8.9-5.5,10.5-10.5v0.6h59.4l7.4-5.7L304.1,148.6z M229.1,167.7c-7.3,0-13.3-6-13.3-13.3
	c0-7.3,6-13.3,13.3-13.3c7.3,0,13.3,6,13.3,13.3C242.4,161.7,236.4,167.7,229.1,167.7L229.1,167.7L229.1,167.7z"/>
<path class="st16" d="M229.6,138.1c-9,0-16.3,7.3-16.3,16.3s7.3,16.3,16.3,16.3s16.3-7.3,16.3-16.3l0,0
	C245.8,145.4,238.6,138.1,229.6,138.1z M229.6,141.3c7.2,0,13.1,5.9,13.1,13.1c0,7.2-5.9,13.1-13.1,13.1c-7.2,0-13.1-5.9-13.1-13.1
	C216.5,147.2,222.3,141.3,229.6,141.3C229.6,141.3,229.6,141.3,229.6,141.3"/>
<polygon class="st16" points="303.4,160.1 245,160.1 245,148.7 303.4,148.7 310.7,154.4 "/>
<linearGradient id="SVGID_8_" gradientUnits="userSpaceOnUse" x1="409.3406" y1="289.0999" x2="409.3406" y2="322.092" gradientTransform="matrix(1 0 0 -1 -147.3 502.9684)">
	<stop  offset="0" style="stop-color:#808080;stop-opacity:0.25"/>
	<stop  offset="0.54" style="stop-color:#808080;stop-opacity:0.12"/>
	<stop  offset="1" style="stop-color:#808080;stop-opacity:0.1"/>
</linearGradient>
<path class="st17" d="M304.1,191.6h-59.4v0.6c-2.8-8.7-12.1-13.4-20.8-10.5c-8.7,2.8-13.4,12.1-10.5,20.8
	c2.8,8.7,12.1,13.4,20.8,10.5c5-1.6,8.9-5.5,10.5-10.5v0.6h59.4l7.4-5.7L304.1,191.6z M229.1,210.7c-7.3,0-13.3-6-13.3-13.3
	c0-7.3,6-13.3,13.3-13.3c7.3,0,13.3,6,13.3,13.3C242.4,204.7,236.4,210.7,229.1,210.7C229.1,210.7,229.1,210.7,229.1,210.7
	L229.1,210.7z"/>
<path class="st18" d="M229.6,181.1c-9,0-16.3,7.3-16.3,16.3s7.3,16.3,16.3,16.3s16.3-7.3,16.3-16.3l0,0
	C245.8,188.4,238.6,181.1,229.6,181.1z M229.6,184.3c7.2,0,13.1,5.9,13.1,13.1c0,7.2-5.9,13.1-13.1,13.1c-7.2,0-13.1-5.9-13.1-13.1
	C216.5,190.1,222.4,184.3,229.6,184.3C229.6,184.3,229.6,184.3,229.6,184.3"/>
<polygon class="st18" points="303.4,203 245,203 245,191.7 303.4,191.7 310.7,197.4 "/>
<linearGradient id="SVGID_9_" gradientUnits="userSpaceOnUse" x1="380.3647" y1="340.2367" x2="380.3647" y2="362.751" gradientTransform="matrix(1 0 0 -1 -147.3 502.9684)">
	<stop  offset="0" style="stop-color:#808080;stop-opacity:0.25"/>
	<stop  offset="0.54" style="stop-color:#808080;stop-opacity:0.12"/>
	<stop  offset="1" style="stop-color:#808080;stop-opacity:0.1"/>
</linearGradient>
<path class="st19" d="M247.5,142.9l-2.3-2.4c-0.5-0.5-1.3-0.5-1.7,0c0,0,0,0,0,0L228.9,155l-6.2-6.2c-0.5-0.5-1.3-0.5-1.7,0
	c0,0,0,0,0,0l-2.3,2.3c-0.5,0.5-0.5,1.3,0,1.7c0,0,0,0,0,0l9.4,9.5c0.5,0.5,1.3,0.5,1.7,0c0,0,0,0,0,0l17.8-17.7
	C248,144.2,248,143.4,247.5,142.9C247.5,142.9,247.5,142.9,247.5,142.9L247.5,142.9z"/>
<path class="st16" d="M246.9,142.6l-2.2-2.2c-0.5-0.5-1.2-0.5-1.6,0l-13.7,13.8l-5.8-5.9c-0.5-0.5-1.2-0.5-1.6,0l-2.2,2.2
	c-0.5,0.5-0.5,1.2,0,1.7l8.8,9c0.5,0.5,1.2,0.5,1.6,0l16.8-16.8C247.3,143.8,247.3,143.1,246.9,142.6L246.9,142.6z"/>
</svg>
