<?xml version="1.0" encoding="utf-8"?>
<!-- Generator: Adobe Illustrator 23.1.0, SVG Export Plug-In . SVG Version: 6.00 Build 0)  -->
<svg version="1.1" id="Layer_1" xmlns="http://www.w3.org/2000/svg" xmlns:xlink="http://www.w3.org/1999/xlink" x="0px" y="0px"
	 viewBox="0 0 640 479.3" style="enable-background:new 0 0 640 479.3;" xml:space="preserve">
<style type="text/css">
	.st0{fill:#3F3D56;}
	.st1{opacity:0.1;fill:#FFFFFF;enable-background:new    ;}
	.st2{opacity:0.1;fill:url(#SVGID_1_);enable-background:new    ;}
	.st3{opacity:0.3;fill:#FFFFFF;enable-background:new    ;}
	.st4{opacity:0.2;fill:#FFFFFF;enable-background:new    ;}
	.st5{fill:#4B4770;}
	.st6{fill:#0D53B8;}
	.st7{opacity:0.1;enable-background:new    ;}
	.st8{opacity:0.1;fill:#0D53B8;enable-background:new    ;}
	.st9{display:none;opacity:0.1;enable-background:new    ;}
	.st10{fill:#464A5F;}
	.st11{fill:#9C9CA1;}
	.st12{fill:#939498;}
	.st13{opacity:0.1;}
	.st14{fill:url(#SVGID_2_);}
	.st15{fill:url(#SVGID_3_);}
	.st16{fill:#444053;}
	.st17{opacity:5.000000e-02;enable-background:new    ;}
	.st18{fill:#EFB7B9;}
	.st19{fill:#3A3768;}
	.st20{fill:#E6E8EC;}
	.st21{fill:#EFD58E;}
</style>
<title>night calls</title>
<path class="st0" d="M629.2,373.2c-4.8,11.3-11.3,21.8-19.1,31.2c-10.7,13-23.6,23.9-37.4,33c-8,5.2-16.3,10-24.9,14.2
	c-2.1,1-4.3,2.1-6.4,3c-24.6,11.2-50.7,18.8-77.5,22.3c-5.5,0.7-11.1,1.3-16.7,1.7c-7,0.5-14,0.8-21,0.8c-7.3,0-14.5-0.3-21.8-0.8
	c-8.6-0.6-17.1-1.7-25.6-3.1c-8.3-1.4-16.5-3.1-24.7-5.2c-12-3.1-23.7-6.9-35.2-11.4h-0.1c-6-2.4-11.9-4.9-17.7-7.7
	c-2.7-1.3-5.3-2.6-8-3.9l-2.1-1.1c-3.9-2-7.8-4.2-11.6-6.4c-3.2-1.8-6.3-3.7-9.4-5.7c-1.4-0.9-2.8-1.8-4.1-2.7
	c-0.1-0.1-0.2-0.1-0.3-0.2c-0.5-0.3-0.9-0.6-1.4-0.9l-0.4-0.3c-3.6-2.4-7.1-4.8-10.5-7.3l0,0c-1.1-0.8-2.1-1.6-3.2-2.4
	c-0.1-0.1-0.3-0.2-0.4-0.3c-0.6-0.4-1.2-0.9-1.8-1.4l-0.6-0.4c-0.9-0.7-1.7-1.3-2.6-2c-0.2-0.1-0.3-0.3-0.5-0.4l0,0
	c-0.2-0.1-0.3-0.3-0.5-0.4c-0.5-0.4-1-0.8-1.5-1.2l-0.5-0.4l0,0l-1.9-1.5c-0.2-0.2-0.4-0.3-0.6-0.5l-0.5-0.4
	c-0.6-0.4-1.1-0.9-1.6-1.4l-0.1,0l-0.3-0.3l-0.2-0.1c-0.1-0.1-0.2-0.2-0.3-0.3c-0.6-0.5-1.1-1-1.7-1.4c-0.1-0.1-0.2-0.1-0.3-0.2
	l-0.2-0.2l0,0l-0.2-0.2l-0.7-0.6l-0.5-0.4l-0.9-0.8c-0.3-0.2-0.5-0.5-0.8-0.7l-0.2-0.2l-0.1-0.1l-0.5-0.5l-0.2-0.2
	c-0.6-0.6-1.3-1.2-1.9-1.8c-0.5-0.5-1-0.9-1.6-1.4l-0.8-0.8l-0.2-0.2c-1.9-1.8-3.9-3.7-5.8-5.5c-3.2-3.1-6.7-5.9-10.3-8.4
	c-0.2-0.2-0.5-0.3-0.7-0.5c-0.7-0.4-1.4-0.9-2-1.2c-1.4-0.8-2.9-1.6-4.4-2.2c-3.9-1.7-8.1-2.8-12.3-3.4c-1.5-0.2-2.9-0.3-4.4-0.4
	l-1.1-0.1c-1.3,0-2.6-0.1-3.9,0c-1.3,0-2.5,0.1-3.7,0.2l0,0c-1.7,0.1-3.5,0.3-5.2,0.6c-0.2,0-0.4,0.1-0.6,0.1
	c-5.6,0.9-11.1,2.2-16.4,4c-8.3,2.7-16.5,6.1-24.7,9.1l0,0c-3.5,1.3-7,2.6-10.5,3.7l-0.8,0.2c-5,1.6-10.1,2.8-15.3,3.6
	c-0.4,0.1-0.8,0.1-1.3,0.2c-9.2,1.2-18.5,0.7-27.5-1.6c-2.1-0.5-4.2-1.1-6.3-1.8l-0.4-0.1c-0.3-0.1-0.5-0.2-0.7-0.2
	c-0.3-0.1-0.7-0.2-1-0.4c-1.7-0.6-3.3-1.2-5-2c-0.3-0.1-0.7-0.3-1-0.4c-1.6-0.7-3.1-1.4-4.7-2.2c-0.3-0.2-0.7-0.3-1-0.5
	c-1.6-0.8-3.1-1.7-4.7-2.7c-0.6-0.3-1.1-0.7-1.7-1c-1.6-1-3.2-2.1-4.8-3.2c-1.7-1.2-3.3-2.4-4.9-3.7c-0.7-0.6-1.5-1.2-2.2-1.8
	c-4.2-3.6-8.1-7.6-11.6-11.8c-0.2-0.2-0.4-0.5-0.6-0.7c-0.9-1.2-1.9-2.4-2.8-3.6l-1-1.3c-1.1-1.5-2.1-3-3.1-4.5
	c-0.1-0.2-0.3-0.4-0.4-0.7C12.4,348.9,9,342,6.5,334.7c-0.1-0.2-0.2-0.5-0.2-0.7c-0.8-2.3-1.5-4.7-2.2-7.1c-0.3-1-0.5-2-0.8-3
	c-0.1-0.3-0.1-0.6-0.2-0.9c-1.6-7.5-2.6-15.1-3.1-22.7v-62.7c0.5-13.1,1.4-26.2,3.1-39.1c0-0.2,0-0.3,0.1-0.5
	c1.1-8.2,2.5-16.3,4.4-24.2c1.9-8.3,4.4-16.6,7.4-24.6c6-16.1,14.3-31,23.6-44.9c2.1-3.1,4.2-6.1,6.4-9.1c11.5-16,24.4-31,38.5-44.2
	c2-1.8,3.9-3.6,5.9-5.4c0.9-0.8,1.7-1.5,2.6-2.2c0.7-0.6,1.4-1.2,2-1.7c2.6-2.2,5.3-4.3,8-6.4c0.4-0.3,0.8-0.6,1.2-0.9
	c0.4-0.3,0.9-0.7,1.3-1l0,0c0.9-0.7,1.8-1.3,2.7-2l1-0.7l1.9-1.3l0.6-0.4c0.3-0.2,0.7-0.5,1-0.7c0.4-0.2,0.7-0.5,1-0.7
	c1.2-0.8,2.4-1.6,3.6-2.3c5.2-3.3,10.5-6.3,16-9c1.6-0.8,3.2-1.6,4.9-2.3c7.4-3.4,15-6.2,22.8-8.5c2.9-0.8,5.8-1.5,8.7-2.2
	c3.4-0.8,6.9-1.4,10.3-1.9c5.5-0.8,11-1.2,16.6-1.4c39-1.1,78.4,13.3,109,40.9c1.7,1.5,3.4,3.1,5,4.7c4.3,4.1,8.6,8.4,12.9,12.6
	c5.3,5,10.7,9.8,16.6,13.7c0.8,0.5,1.5,1,2.3,1.5c11.9,7.3,26,10.4,38.7,4.6l2.2-1c6-2.7,10.9-4.4,16.6-5.2c3.5-0.4,7-0.5,10.6-0.3
	c11,0.7,21.9,2.2,32.6,4.6c5.6,1.2,11.1,2.7,16.6,4.3c7.7,2.3,15.2,5,22.6,8.2c0.9,0.4,1.9,0.8,2.8,1.2c6,2.6,11.9,5.5,17.7,8.6
	c5.6,3,11.2,6.3,16.6,9.7c10.4,6.6,20.3,14,29.7,22c0.2,0.1,0.3,0.3,0.6,0.5c0.3,0.2,0.6,0.5,0.8,0.7c0.6,0.5,1.1,1,1.7,1.5l0.9,0.8
	c1,0.9,1.9,1.7,2.9,2.6c0.2,0.2,0.4,0.4,0.7,0.6c0.2,0.2,0.5,0.5,0.8,0.7c1.8,1.6,3.5,3.3,5.2,5c5.8,5.7,11.3,11.7,16.6,17.9
	c13.9,16.4,25.8,34.4,35.4,53.6c3.3,6.6,6.4,13.3,9.2,20.3c0.7,1.8,1.4,3.5,2.1,5.3C641.1,282.1,646.8,331.8,629.2,373.2z"/>
<path class="st1" d="M613.8,214.1v140.5H38.5V104.4c2.1-3.1,4.2-6.1,6.4-9.1c11.5-16,24.4-31,38.5-44.2c2-1.8,3.9-3.6,5.9-5.4h220.4
	c4.3,4.1,8.6,8.4,12.9,12.6c5.3,5,10.7,9.8,16.6,13.7c0.8,0.5,1.5,1,2.3,1.5c11.9,7.3,26,10.4,38.7,4.6l2.2-1
	c6-2.7,10.9-4.4,16.6-5.2c3.5-0.4,7-0.5,10.6-0.3c11,0.7,21.9,2.2,32.6,4.6c5.6,1.2,11.1,2.7,16.6,4.3c7.7,2.3,15.2,5,22.6,8.2
	c0.9,0.4,1.9,0.8,2.8,1.2c6,2.6,11.9,5.5,17.7,8.6c5.6,3,11.2,6.3,16.6,9.7c10.4,6.6,20.3,14,29.7,22c0.2,0.1,0.3,0.3,0.6,0.5
	c0.3,0.2,0.6,0.5,0.8,0.7c0.6,0.5,1.1,1,1.7,1.5l0.9,0.8c1,0.9,1.9,1.7,2.9,2.6c0.2,0.2,0.4,0.4,0.7,0.6c0.2,0.2,0.5,0.5,0.8,0.7
	c1.8,1.6,3.5,3.3,5.2,5c5.8,5.7,11.3,11.7,16.6,17.9C592.2,176.9,604.1,194.9,613.8,214.1z"/>
<linearGradient id="SVGID_1_" gradientUnits="userSpaceOnUse" x1="346.607" y1="108.6603" x2="346.607" y2="417.6208" gradientTransform="matrix(1 0 0 -1 -20.49 463.2603)">
	<stop  offset="0" style="stop-color:#6C63FF;stop-opacity:0.1"/>
	<stop  offset="1" style="stop-color:#6C63FF"/>
</linearGradient>
<path class="st2" d="M613.8,214.1v140.5H38.5V104.4c2.1-3.1,4.2-6.1,6.4-9.1c11.5-16,24.4-31,38.5-44.2c2-1.8,3.9-3.6,5.9-5.4h220.4
	c4.3,4.1,8.6,8.4,12.9,12.6c5.3,5,10.7,9.8,16.6,13.7c0.8,0.5,1.5,1,2.3,1.5c11.9,7.3,26,10.4,38.7,4.6l2.2-1
	c6-2.7,10.9-4.4,16.6-5.2c3.5-0.4,7-0.5,10.6-0.3c11,0.7,21.9,2.2,32.6,4.6c5.6,1.2,11.1,2.7,16.6,4.3c7.7,2.3,15.2,5,22.6,8.2
	c0.9,0.4,1.9,0.8,2.8,1.2c6,2.6,11.9,5.5,17.7,8.6c5.6,3,11.2,6.3,16.6,9.7c10.4,6.6,20.3,14,29.7,22c0.2,0.1,0.3,0.3,0.6,0.5
	c0.3,0.2,0.6,0.5,0.8,0.7c0.6,0.5,1.1,1,1.7,1.5l0.9,0.8c1,0.9,1.9,1.7,2.9,2.6c0.2,0.2,0.4,0.4,0.7,0.6c0.2,0.2,0.5,0.5,0.8,0.7
	c1.8,1.6,3.5,3.3,5.2,5c5.8,5.7,11.3,11.7,16.6,17.9C592.2,176.9,604.1,194.9,613.8,214.1z"/>
<rect x="570" y="267.2" class="st1" width="43.7" height="87.7"/>
<polygon class="st1" points="114.9,202.9 114.9,152.5 69.5,152.5 69.5,202.9 38.5,202.9 38.5,354.6 132.6,354.6 132.6,202.9 "/>
<path class="st0" d="M339.1,71.9v284.6h-16.6V58.2C327.8,63.2,333.3,68,339.1,71.9z"/>
<path class="st0" d="M382.3,77c6-2.7,10.9-4.4,16.6-5.2v284.6h-16.6V77z"/>
<path class="st0" d="M442.1,76.2c5.6,1.2,11.1,2.7,16.6,4.3v276h-16.6V76.2z"/>
<rect x="52.9" y="217.8" class="st1" width="19.4" height="11.1"/>
<rect x="98" y="217.8" class="st1" width="19.4" height="11.1"/>
<rect x="582.2" y="277.4" class="st1" width="19.4" height="11.1"/>
<rect x="582.2" y="299" class="st1" width="19.4" height="11.1"/>
<rect x="582.2" y="320.6" class="st1" width="19.4" height="11.1"/>
<rect x="582.2" y="342.3" class="st1" width="19.4" height="11.1"/>
<rect x="52.9" y="247.8" class="st1" width="19.4" height="11.1"/>
<rect x="98" y="247.8" class="st1" width="19.4" height="11.1"/>
<rect x="52.9" y="277.7" class="st1" width="19.4" height="11.1"/>
<rect x="98" y="277.7" class="st1" width="19.4" height="11.1"/>
<rect x="52.9" y="307.6" class="st1" width="19.4" height="11.1"/>
<rect x="98" y="307.6" class="st1" width="19.4" height="11.1"/>
<rect x="52.9" y="337.5" class="st1" width="19.4" height="11.1"/>
<rect x="98" y="337.5" class="st1" width="19.4" height="11.1"/>
<path class="st0" d="M99.9,43.4v313.1H83.3V51c2-1.8,3.9-3.6,5.9-5.4c0.9-0.8,1.7-1.5,2.6-2.2L99.9,43.4z"/>
<rect x="458.7" y="211.2" class="st1" width="88.6" height="143.4"/>
<rect x="470.6" y="230.7" class="st1" width="64.9" height="14"/>
<rect x="470.6" y="261.8" class="st1" width="64.9" height="14"/>
<rect x="470.6" y="292.9" class="st1" width="64.9" height="14"/>
<rect x="470.6" y="324.1" class="st1" width="64.9" height="14"/>
<path class="st0" d="M501.9,98.4c5.6,3,11.2,6.3,16.6,9.7v248.4h-16.6V98.4z"/>
<path class="st0" d="M561.7,142.5c5.8,5.7,11.3,11.7,16.6,17.9v196h-16.6V142.5z"/>
<circle class="st3" cx="111.2" cy="70.9" r="1.9"/>
<circle class="st3" cx="119.3" cy="91.8" r="0.6"/>
<circle class="st3" cx="236.3" cy="100.3" r="0.6"/>
<circle class="st3" cx="288.9" cy="69" r="0.6"/>
<circle class="st3" cx="184.2" cy="94.5" r="0.6"/>
<circle class="st3" cx="55.3" cy="95.1" r="0.6"/>
<circle class="st3" cx="236.9" cy="76.8" r="0.6"/>
<circle class="st3" cx="299.5" cy="86.8" r="0.6"/>
<circle class="st3" cx="186.9" cy="161.2" r="0.6"/>
<circle class="st3" cx="171.7" cy="70.9" r="0.6"/>
<circle class="st3" cx="118.7" cy="127.2" r="0.6"/>
<circle class="st3" cx="167.4" cy="122.6" r="0.6"/>
<circle class="st3" cx="251.2" cy="121.5" r="0.6"/>
<circle class="st3" cx="414.1" cy="109.8" r="0.6"/>
<circle class="st3" cx="351.5" cy="95.7" r="0.6"/>
<circle class="st3" cx="470.6" cy="162.4" r="0.6"/>
<circle class="st3" cx="293.2" cy="171.6" r="0.6"/>
<path class="st4" d="M610.1,404.3c-10.7,13-23.6,23.9-37.4,33c-8,5.2-16.3,10-24.9,14.2c-2.1,1-4.3,2.1-6.4,3
	c-24.6,11.2-50.7,18.8-77.5,22.3c-5.5,0.7-11.1,1.3-16.7,1.7c-7,0.5-14,0.8-21,0.8c-7.3,0-14.5-0.3-21.8-0.8
	c-8.6-0.6-17.1-1.7-25.6-3.1c-8.3-1.4-16.5-3.1-24.7-5.2c-12-3.1-23.7-6.9-35.2-11.4h-0.1c-6-2.4-11.9-4.9-17.7-7.7
	c-2.7-1.3-5.3-2.6-8-3.9l-2.1-1.1c-3.9-2-7.8-4.2-11.6-6.4c-3.2-1.8-6.3-3.7-9.4-5.7c-1.4-0.9-2.8-1.8-4.1-2.7
	c-0.1-0.1-0.2-0.1-0.3-0.2c-0.5-0.3-0.9-0.6-1.4-0.9l-0.4-0.3c-3.6-2.4-7.1-4.8-10.5-7.3l0,0c-1.1-0.8-2.1-1.6-3.2-2.4
	c-0.1-0.1-0.3-0.2-0.4-0.3c-0.6-0.4-1.2-0.9-1.8-1.4l-0.6-0.4c-0.9-0.7-1.7-1.3-2.6-2c-0.2-0.1-0.3-0.3-0.5-0.4l0,0
	c-0.2-0.1-0.3-0.3-0.5-0.4c-0.5-0.4-1-0.8-1.5-1.2l-0.5-0.4l0,0l-1.9-1.5c-0.2-0.2-0.4-0.3-0.6-0.5l-0.5-0.4
	c-0.6-0.4-1.1-0.9-1.6-1.4l-0.1,0l-0.3-0.3l-0.2-0.1c-0.1-0.1-0.2-0.2-0.3-0.3c-0.6-0.5-1.1-1-1.7-1.4c-0.1-0.1-0.2-0.1-0.3-0.2
	l-0.2-0.2l0,0l-0.2-0.2l-0.7-0.6l-0.5-0.4l-0.9-0.8c-0.3-0.2-0.5-0.5-0.8-0.7l-0.2-0.2l-0.1-0.1L610.1,404.3z"/>
<path class="st5" d="M572.6,437.3c-8,5.2-16.3,10-24.9,14.2c-2.1,1-4.3,2.1-6.4,3c-38,8.3-106.5,14.4-187.2,15.7
	c-12-3.1-23.7-6.9-35.2-11.4h-0.1c-6-2.4-11.9-4.9-17.7-7.7c-2.7-1.3-5.3-2.6-8-3.9l-2.1-1.1c-3.9-2-7.8-4.2-11.6-6.4
	c-3.2-1.8-6.3-3.7-9.4-5.7c-1.4-0.9-2.8-1.8-4.1-2.7c-0.1-0.1-0.2-0.1-0.3-0.2c-0.5-0.3-0.9-0.6-1.4-0.9l-0.4-0.3
	c-3.6-2.4-7.1-4.8-10.5-7.3l0,0c-1.1-0.8-2.1-1.6-3.2-2.4c-0.1-0.1-0.3-0.2-0.4-0.3c-0.6-0.4-1.2-0.9-1.8-1.4l-0.6-0.4
	c-0.9-0.7-1.7-1.3-2.6-2c-0.2-0.1-0.3-0.3-0.5-0.4l0,0c-0.2-0.1-0.3-0.3-0.5-0.4c-0.5-0.4-1-0.8-1.5-1.2l-0.5-0.4l0,0l-1.9-1.5
	c-0.2-0.2-0.4-0.3-0.6-0.5l-0.5-0.4c-0.6-0.4-1.1-0.9-1.6-1.4c1,0,2-0.1,3-0.1l0.6,0h0.4h0.5l0,0l3.2-0.1l0,0h0.4h0.9l1.8-0.1h0.6
	c0.9,0,1.8-0.1,2.6-0.1l0,0c0.2,0,0.3,0,0.5,0l0,0h0.6h0.6l0,0h0.5l0,0c1.2,0,2.4-0.1,3.6-0.1h0.4h0.2l2.8-0.1l0,0h0.6l1.9-0.1l0,0
	l7.7-0.2h0.3l6.4-0.1h1c7-0.1,14.2-0.2,21.4-0.3h0.3h3h0.8c4.8,0,9.5-0.1,14.4-0.1c1.8,0,3.7,0,5.5,0c0.2,0,0.4,0,0.6,0
	c3,0,6.1,0,9.1,0c1.9,0,3.8,0,5.7,0h0.6c14.8,0.2,29.2,0.5,43.2,0.9h0.3c2.9,0.1,5.8,0.2,8.7,0.3c29.3,1.1,56.3,2.8,80.1,5
	c17.9,1.7,34,3.6,47.8,5.7c0.2,0,0.4,0.1,0.6,0.1l1.8,0.3l1,0.2c0.6,0.1,1.3,0.2,1.9,0.3c0.4,0.1,0.9,0.1,1.3,0.2
	C552.7,426,569.4,431.4,572.6,437.3z"/>
<path class="st1" d="M556.5,137.5c-1.2,3.7-3.2,7.1-5.9,9.9c-1.3,1.4-2.8,2.5-4.5,3.4c-1.1,0.9-2.4,1.5-3.9,1.6
	c-1.1,0.1-2.1,0-3.2-0.2c-2.9-0.5-3,1-3,1c-3.3-1.7-2.6-5.3-2.6-5.3c-2-11.8,6.9-16.2,14.8-17.8c0.2,0.1,0.3,0.3,0.6,0.5
	c-0.5,0-0.9,0.1-1.4,0.2c0,0,0,0.3,1.1,0.4c0.3,0,0.7,0.1,1.1,0.2c0.6,0.5,1.1,1,1.7,1.5l-0.6,0.2c-5.8-1.8-8.9-0.1-8.9-0.1
	c3-0.4,7.9,0.7,7.9,0.7l-3.4,2c-6.3-1.8-9.1,0.7-9.1,0.7c2.5-0.9,8.3-0.1,8.3-0.1l-3.1,2.5c-5.5-1.3-7.9,1.5-7.9,1.5
	c2.7-1.2,7.1-0.8,7.1-0.8c-0.6,0.2-2.9,3.3-2.9,3.3c-4.5,0.3-4.9,3.2-4.9,3.2c1.5-1.7,4.2-2.2,4.2-2.2c-2.2,3.1-2.4,7.3-2.4,7.3
	c0.3-2.8,3-6.9,3-6.9c0.7,0,1.5,6.2,1.5,6.2c1.3-2.4-0.8-7-0.8-7c0.4-1,3.2-3.4,3.2-3.4c1.7,0.7,1.9,10,1.9,10
	c1.9-4.3-1.2-10.6-1.2-10.6l3.1-2.5c2.4,3.1,1.8,11.1,1.8,11.1c2.3-5.2-1.1-11.6-1.1-11.6l3.5-2c2.4,2.6,1.6,10.2,1.6,10.2
	c2.2-4.5-0.7-10.7-0.7-10.7l0.6-0.3c1,0.9,1.9,1.7,2.9,2.6c0.1,1.4,0.2,2.7,0.2,2.7c0.3-0.7,0.5-1.4,0.5-2.1
	C556,137,556.2,137.3,556.5,137.5z"/>
<path class="st1" d="M479.4,113.7c0,0-13.1,15.8-0.1,22.3c0,0,1.8,1.9,4,0.7c0,0-0.8-0.7,0.7-2.1c0.5-0.5,1-1.1,1.4-1.7
	c0.5-0.8,0.8-1.8,0.7-2.8l0,0c0,0,1.5-6-4.8-13.4c0,0-0.7-2.5-1.1-2.8l-0.8,3.6c0,0,2.7,0.5,3.8,2.5c0,0-3.7-2.5-4-1.9
	c-0.1,0.1-0.4,2-0.4,2s4.7,0.9,6.3,4c0,0-4-3.6-6.5-3.3l-0.3,2.8c0,0,5,0.7,7,4.2c0,0-4.3-3.6-7-3.6l0.1,2.8c0,0,4.9,0.8,6.5,3.7
	c0,0-5.4-3.7-6.5-3.1c0,0,0.2,2.6,0.6,3.2c0,0,3.5,0.7,4.3,2.4c0,0-3.9-2.1-4.1-1.7c0,0,1.2,3.2,2.7,4.6c-1.4-1.2-2.5-2.7-3.2-4.4
	c-0.5,1-0.7,2.1-0.5,3.3c0,0-1.5-1.4,0.2-4.1c0,0-0.8-2.6-0.7-3c0,0-2,2.3-2.5,4.4c0,0-0.6-2.5,2.4-5.1l-0.1-2.8c0,0-2.9,3-3.4,4.7
	c0,0-0.2-2.6,3.4-5.4l0.3-2.8c0,0-2.7,2.4-3.7,4.2c0,0,0.3-2.5,3.8-5l0.4-1.8c0,0-1.9,1.8-2.4,2.3c-0.5,0.6-0.7,0.5-0.7,0.5
	c0.7-1.5,1.9-2.7,3.3-3.5C478.6,117.4,479.7,113.8,479.4,113.7z"/>
<path class="st6" d="M65.3,368c0,0-3.9,18.4,13.6,20.5l1.1-2C80,386.5,66.4,373.8,65.3,368z"/>
<path class="st6" d="M65.3,368c0,0-2.3,18.4,15.2,20.5l1.1-2C81.6,386.5,66.4,373.8,65.3,368z"/>
<path class="st6" d="M87.2,386.4l-4.1,0.9l-0.4,0.1c0,0-12.5-8.8-12.4-28.6c0,0,3.2,3.4,6.8,8.2C81.5,372.7,86.4,380.4,87.2,386.4z"
	/>
<path class="st7" d="M87.2,386.4l-4.1,0.9c-3.9-3.4-5.4-12.3-6-20.3C81.5,372.7,86.4,380.4,87.2,386.4z"/>
<path class="st6" d="M88.6,388.3c-0.7,0.4-1.5,0.5-2.2,0.3c-10.5-2.5-8.6-36.6-8.6-36.6c0.6,0.3,2.8,4.6,5.3,10.2
	C87.3,372.1,91.9,385.8,88.6,388.3z"/>
<path class="st6" d="M110.2,368c0,0,2.3,18.4-15.2,20.5l-1.1-2C93.9,386.5,109.1,373.8,110.2,368z"/>
<path class="st6" d="M105.2,358.8c0.1,19.7-12.4,28.6-12.4,28.6l-0.4-0.1l-4.1-0.9c0.8-6.1,5.7-13.7,10-19.4
	C102,362.2,105.2,358.8,105.2,358.8z"/>
<path class="st8" d="M98.3,367c-0.5,7.5-1.9,15.7-5.2,19.5c-0.2,0.3-0.5,0.5-0.8,0.8l-4.1-0.9C89.1,380.4,94,372.7,98.3,367z"/>
<path class="st6" d="M92.3,386.5c-0.6,0.8-1.4,1.4-2.3,1.8l0,0c-0.3,0.1-0.6,0.2-0.9,0.3c-2.6,0.6-3.5-1.3-3.3-4.4
	c0.2-5.6,3.8-15.4,7-22.7c2.3-5.3,4.4-9.2,5-9.5C97.7,352,99.2,378.6,92.3,386.5z"/>
<path class="st7" d="M88.6,388.3c-0.6,0-1.2-0.2-1.7-0.6c-4.9-3.1-5-14.6-3.9-25.6C87.3,372.1,91.9,385.8,88.6,388.3z"/>
<path class="st7" d="M92.3,386.5c-0.6,1.2-1.3,1.9-2.3,1.8l0,0c-0.5-0.1-1-0.3-1.4-0.6c-1.3-0.9-2.2-2.1-2.8-3.6
	c0.2-5.6,3.8-15.4,7-22.7C93.9,371.6,94.2,382.4,92.3,386.5z"/>
<path class="st6" d="M87.7,340c0,0-10.1,41.5,0,47.8C97.8,394,90.3,343.7,87.7,340z"/>
<path class="st5" d="M103.5,389.8l-0.6,2.9l-0.2,0.8l-1.2,6.2c-9.2,1.2-18.5,0.6-27.4-1.6l-0.9-4.6l-0.1-0.8l-0.6-2.9L103.5,389.8z"
	/>
<polygon class="st7" points="103.5,389.8 102.8,393.5 73.3,393.5 72.6,389.8 "/>
<rect x="66.8" y="385.7" class="st5" width="41.9" height="6.9"/>
<path class="st9" d="M773.2,440.9c-0.9,1.3-1.7,2.7-2.2,4.2c-0.1,0.4-0.3,0.8-0.4,1.2c-0.2-0.1-0.5-0.2-0.8-0.3
	c-1.1-0.3-2.3-0.4-3.5-0.3c0-0.5,0.1-0.9,0.1-1.4c0.1-5.1-0.5-12.3-5.3-9.2c-4.7,2.9-1.3,7.8,1.7,10.9c0.3,0.3,0.5,0.5,0.8,0.8
	c-2.8,2-3.3,6.5-3.7,11.3s-4.5,10-7.2,13l-0.8,0.8c-2.2-1.8-5.1-2.5-7.8-2c-0.1-0.4-0.2-0.9-0.4-1.3c-2.2-7.9-6.7-21.5-12.5-24.5
	c0.2-0.3,0.5-0.6,0.8-1c2.5-3.2,5.2-8,1.1-9.2s-4.4,4.1-4.2,8.1c0,0.5,0.1,1,0.1,1.4c-1.7,0.1-3.2,0.8-4.3,2.1
	c-0.2-0.2-0.4-0.5-0.6-0.8c-3.3-3.9-9.4-10.1-11.2-5.4c-1.7,4.4,3.6,10,7.4,13.3l0.2,0.2c-2.5,10.2,8.5,18.6,14.4,22.2l0.8,0.5
	c-8.2,9.6-13.2,27.7-13.2,27.7l22.9,4.1c0,0,15.2-13.1,13.2-25.4h0.2c15.2-3,18.6-19.2,16.2-28.8l0.3-0.1c2.8-1.1,5.2-3,7-5.3
	C786.4,441.8,777.5,435.2,773.2,440.9z"/>
<path class="st6" d="M545.1,354.5l-1.5,4.4c0,0-0.8-0.6-1.9-1.5c-2.1-1.8-5-5-4.1-7.4c1-2.6,4.4,0.8,6.2,3
	C544.6,353.9,545.1,354.5,545.1,354.5z"/>
<path class="st6" d="M548.2,352c-0.5,0.6-0.9,1.2-1.4,1.7c-0.1-0.8-0.2-1.5-0.3-2.3c-0.1-2.2,0.1-5.2,2.3-4.5S549.6,350.2,548.2,352
	z"/>
<path class="st6" d="M567.3,352.7c0,1.4-0.2,2.6-0.2,2.6c-0.6-0.5-1.3-1.1-1.8-1.7c-1.7-1.7-3.5-4.4-0.9-6
	C567,345.9,567.3,349.8,567.3,352.7z"/>
<path class="st6" d="M576,354.5c-1,1.3-2.3,2.3-3.9,2.9c-0.4,0.2-0.9,0.3-1.3,0.5l-1.7-2.4c0.2-0.8,0.4-1.6,0.7-2.4
	c0.3-0.8,0.7-1.6,1.2-2.3C573.5,347.6,578.3,351.3,576,354.5z"/>
<path class="st7" d="M543.9,352.9c0.7,0.9,1.2,1.5,1.2,1.5l-1.5,4.3c0,0-0.8-0.6-1.9-1.5c0.2-1.4,0.8-2.7,1.7-3.8
	C543.6,353.3,543.7,353.1,543.9,352.9z"/>
<path class="st7" d="M548.2,352c-0.5,0.6-0.9,1.2-1.4,1.7c-0.1-0.8-0.2-1.5-0.3-2.3C547.1,351.4,547.7,351.6,548.2,352z"/>
<path class="st6" d="M555.5,369.2l-3.7,1.6c0,0-0.8-0.4-2-1.1c-3.9-2.4-11.6-8.4-6.4-15.4c5.2-7,9.5,5.6,11.3,11.8
	C555.2,367.9,555.5,369.2,555.5,369.2z"/>
<path class="st7" d="M565.2,353.6c0.5-0.6,1.3-0.9,2-0.9c0,1.4-0.2,2.6-0.2,2.6C566.4,354.7,565.8,354.2,565.2,353.6z"/>
<path class="st7" d="M572.1,357.5c-0.4,0.2-0.9,0.3-1.3,0.5l-1.7-2.4c0.2-0.8,0.4-1.6,0.7-2.4C570.9,353.8,571.7,355.4,572.1,357.5z
	"/>
<path class="st6" d="M563,373.4l-0.6,0.1c-12.3,1.9-4.1-4.8-4.1-4.8s0.6-0.5,1.3-1.3c1.5-1.7,3.7-4.5,4-7.2c0.4-4,0.8-7.7,5.5-6.6
	C573.8,354.7,574.7,371.1,563,373.4z"/>
<rect x="540.8" y="404.1" class="st5" width="23.5" height="6.2"/>
<path class="st7" d="M554.7,366c0.5,1.8,0.8,3.1,0.8,3.1l-3.7,1.6c0,0-0.8-0.4-2-1.1C551.3,367.8,552.9,366.5,554.7,366z"/>
<path class="st7" d="M563,373.4l-0.6,0.1c-12.3,1.9-4.1-4.8-4.1-4.8s0.6-0.5,1.3-1.3C561.9,369.3,562.9,371.3,563,373.4z"/>
<path class="st6" d="M543,385.2c0,0,6.9-24.7,16.6-17.1c9.7,7.6-3.9,19.3-3.9,19.3L543,385.2z"/>
<circle class="st7" cx="546.5" cy="358.1" r="0.8"/>
<circle class="st7" cx="546.4" cy="361.7" r="0.8"/>
<circle class="st7" cx="568.8" cy="358.8" r="0.8"/>
<circle class="st7" cx="550.8" cy="377.3" r="0.8"/>
<circle class="st7" cx="567.2" cy="364.8" r="0.8"/>
<circle class="st7" cx="559.2" cy="372.8" r="0.8"/>
<circle class="st7" cx="549.1" cy="359.7" r="0.8"/>
<circle class="st7" cx="566.7" cy="361.2" r="0.8"/>
<circle class="st7" cx="564.1" cy="367.2" r="0.8"/>
<circle class="st7" cx="555.9" cy="376.8" r="0.8"/>
<circle class="st7" cx="554.3" cy="373" r="0.8"/>
<circle class="st7" cx="550.3" cy="364.4" r="0.8"/>
<rect x="540.8" y="404.1" class="st7" width="23.5" height="2.3"/>
<rect x="537" y="384" class="st5" width="30.7" height="21.6"/>
<circle class="st7" cx="557" cy="380.2" r="0.8"/>
<circle class="st7" cx="552.3" cy="381.2" r="0.8"/>
<rect x="202.9" y="43.4" class="st0" width="16.6" height="313.1"/>
<rect x="143.1" y="43.4" class="st0" width="16.6" height="313.1"/>
<rect x="262.7" y="43.4" class="st0" width="16.6" height="313.1"/>
<path class="st10" d="M260.6,399.1l-24.5,5.2l-4.4,0.9c-0.3-0.2-0.5-0.5-0.8-0.7l-0.2-0.2l-0.1-0.1l-0.5-0.5l-0.2-0.2
	c-0.6-0.6-1.3-1.2-1.9-1.8l30.1-6.7l1.4,2.2l0,0.1l0.1,0.1l0,0.1L260.6,399.1z"/>
<path class="st10" d="M261.2,397.2l-1.7,0.3l-29.6,6.2c-0.6-0.6-1.3-1.2-1.9-1.8c-0.5-0.5-1-0.9-1.6-1.4l-0.8-0.7l-0.2-0.2
	c-1.9-1.8-3.9-3.7-5.8-5.5c-3.2-3.1-6.7-5.9-10.3-8.4c-0.2-0.2-0.5-0.3-0.7-0.5c-0.7-0.4-1.4-0.9-2-1.2c-1.4-0.8-2.9-1.6-4.4-2.2
	c-3.9-1.7-8.1-2.8-12.3-3.4c-1.5-0.2-2.9-0.3-4.4-0.4l-1.1-0.1l-3.5-21c-0.2-1,0.5-1.9,1.4-2c0,0,0.1,0,0.1,0l3.2-0.3l17.4-1.8
	l16.6-1.8l33.1-3.5c0.2,0,0.4,0,0.6,0c0.7,0.2,1.2,0.8,1.3,1.5l0.8,5.6L261.2,397.2z"/>
<path class="st7" d="M261.2,397.2l-1.7,0.3l-29.6,6.2c-0.6-0.6-1.3-1.2-1.9-1.8c-0.5-0.5-1-0.9-1.6-1.4l-0.8-0.7l-0.2-0.2
	c-1.9-1.8-3.9-3.7-5.8-5.5c-3.2-3.1-6.7-5.9-10.3-8.4c-0.2-0.2-0.5-0.3-0.7-0.5c-0.7-0.4-1.4-0.9-2-1.2c-1.4-0.8-2.9-1.6-4.4-2.2
	c-3.9-1.7-8.1-2.8-12.3-3.4c-1.5-0.2-2.9-0.3-4.4-0.4l-1.1-0.1l-3.5-21c-0.2-1,0.5-1.9,1.4-2c0,0,0.1,0,0.1,0l3.2-0.3l17.4-1.8
	l16.6-1.8l33.1-3.5c0.2,0,0.4,0,0.6,0c0.7,0.2,1.2,0.8,1.3,1.5l0.8,5.6L261.2,397.2z"/>
<path class="st10" d="M262.3,397.2l-0.4,0.1l-2.2,0.5l-4.1,0.9l-25.4,5.3l-0.2-0.2c-0.6-0.6-1.3-1.2-1.9-1.8c-0.5-0.5-1-0.9-1.6-1.4
	l-0.8-0.7l-0.2-0.2c-1.9-1.8-3.9-3.7-5.8-5.5c-3.2-3.1-6.7-5.9-10.3-8.4c-0.2-0.2-0.5-0.3-0.7-0.5c-0.7-0.4-1.4-0.9-2-1.2
	c-1.4-0.8-2.9-1.6-4.4-2.2c-3.9-1.7-8.1-2.8-12.3-3.4c-1.5-0.2-2.9-0.3-4.4-0.4l-3.5-21c-0.2-1,0.5-1.9,1.4-2c0,0,0.1,0,0.1,0
	l3.2-0.3l16.3-1.7l16.6-1.8l33.8-3.6l0.4,0c0.9-0.1,1.8,0.6,1.9,1.5l0.8,5.6L262.3,397.2z"/>
<path class="st6" d="M258,393.2l-32.3,6.6l-0.2-0.2c-1.9-1.8-3.9-3.7-5.8-5.5c-3.2-3.1-6.7-5.9-10.3-8.4c-0.2-0.2-0.5-0.3-0.7-0.5
	c-0.7-0.4-1.4-0.9-2-1.2c-1.4-0.8-2.9-1.6-4.4-2.2c-3.9-1.7-8.1-2.8-12.3-3.4l-3.1-19l24.7-3l8.1-1l7.3-0.9l25.2-3l0.4,3L258,393.2z
	"/>
<path class="st11" d="M289.9,424.1l-24.3,7.1c-0.5-0.3-0.9-0.6-1.4-0.9l-0.4-0.3c-3.6-2.4-7.1-4.8-10.5-7.3l0,0
	c-1.1-0.8-2.1-1.6-3.2-2.4c-0.1-0.1-0.3-0.2-0.4-0.3c-0.6-0.4-1.2-0.9-1.8-1.4l-0.6-0.4c-0.9-0.7-1.7-1.3-2.6-2
	c-0.2-0.1-0.3-0.3-0.5-0.4l0,0c-0.2-0.1-0.3-0.3-0.5-0.4c-0.5-0.4-1-0.8-1.5-1.2l-0.5-0.4l0,0l-1.9-1.5c-0.2-0.2-0.4-0.3-0.6-0.5
	l-0.5-0.4c-0.6-0.4-1.1-0.9-1.6-1.4l-0.1,0l-0.3-0.3l-0.2-0.1c-0.1-0.1-0.2-0.2-0.3-0.3c-0.6-0.5-1.1-1-1.7-1.4
	c-0.1-0.1-0.2-0.1-0.3-0.2l-0.2-0.2l0,0l-0.2-0.2l-0.7-0.6l-0.5-0.4l-0.9-0.8c-0.3-0.2-0.5-0.5-0.8-0.7l-0.2-0.2l0.3-0.1l24.8-5.2
	l-0.2-0.6v-0.1l4-0.9l2.1-0.5l0.2,0.2h0l9.3,7.1l5.8,4.4l7.6,5.8l0.2,0.2l0,0l0.2,0.1l0.3,0.2l0.3,0.2l5.1,3.9
	c1.2,0.9,1.5,2.6,0.6,3.9C291.1,423.5,290.5,423.9,289.9,424.1z"/>
<path class="st7" d="M289.9,424.1l-24.3,7.1c-0.5-0.3-0.9-0.6-1.4-0.9l-0.4-0.3c-3.6-2.4-7.1-4.8-10.5-7.3l0,0
	c-1.1-0.8-2.1-1.6-3.2-2.4c-0.1-0.1-0.3-0.2-0.4-0.3c-0.6-0.4-1.2-0.9-1.8-1.4l-0.6-0.4c-0.9-0.7-1.7-1.3-2.6-2
	c-0.2-0.1-0.3-0.3-0.5-0.4l0,0c-0.2-0.1-0.3-0.3-0.5-0.4c-0.5-0.4-1-0.8-1.5-1.2l-0.5-0.4l0,0l-1.9-1.5c-0.2-0.2-0.4-0.3-0.6-0.5
	l-0.5-0.4c-0.6-0.4-1.1-0.9-1.6-1.4l-0.1,0l-0.3-0.3l-0.2-0.1c-0.1-0.1-0.2-0.2-0.3-0.3c-0.6-0.5-1.1-1-1.7-1.4
	c-0.1-0.1-0.2-0.1-0.3-0.2l-0.2-0.2l0,0l-0.2-0.2l-0.7-0.6l-0.5-0.4l-0.9-0.8c-0.3-0.2-0.5-0.5-0.8-0.7l-0.2-0.2l0.3-0.1l24.8-5.2
	l-0.2-0.6v-0.1l4-0.9l2.1-0.5l0.2,0.2h0l9.3,7.1l5.8,4.4l7.6,5.8l0.2,0.2l0,0l0.2,0.1l0.3,0.2l0.3,0.2l5.1,3.9
	c1.2,0.9,1.5,2.6,0.6,3.9C291.1,423.5,290.5,423.9,289.9,424.1z"/>
<path class="st11" d="M291,424.1l-25.1,7.3c-0.1-0.1-0.2-0.1-0.3-0.2c-0.5-0.3-0.9-0.6-1.4-0.9l-0.4-0.3c-3.6-2.4-7.1-4.8-10.5-7.3
	l0,0c-1.1-0.8-2.1-1.6-3.2-2.4c-0.1-0.1-0.3-0.2-0.4-0.3c-0.6-0.4-1.2-0.9-1.8-1.4l-0.6-0.4c-0.9-0.7-1.7-1.3-2.6-2
	c-0.2-0.1-0.3-0.3-0.5-0.4l0,0c-0.2-0.1-0.3-0.3-0.5-0.4c-0.5-0.4-1-0.8-1.5-1.2l-0.5-0.4l0,0l-1.9-1.5c-0.2-0.2-0.4-0.3-0.6-0.5
	l-0.5-0.4c-0.6-0.4-1.1-0.9-1.6-1.4l-0.1,0l-0.3-0.3l-0.2-0.1c-0.1-0.1-0.2-0.2-0.3-0.3c-0.6-0.5-1.1-1-1.7-1.4
	c-0.1-0.1-0.2-0.1-0.3-0.2l-0.2-0.2l0,0l-0.2-0.2l-0.7-0.6l-0.5-0.4l-0.9-0.8c-0.3-0.2-0.5-0.5-0.8-0.7l1.2-0.2l24.8-5.2l-0.3-0.6
	l3.1-0.7l2.2-0.5l0.8-0.2l9.6,7.3l5.7,4.3l7.9,6l0,0l0.9,0.7l0.3,0.2l4.7,3.6c1.2,0.9,1.5,2.6,0.6,3.9
	C292.2,423.5,291.6,423.9,291,424.1z"/>
<path class="st7" d="M269.1,428.4c0,0.2-0.1,0.4-0.3,0.5l-4.6,1.4l-0.4-0.3c-3.6-2.4-7.1-4.8-10.5-7.3l0,0c-1.1-0.8-2.1-1.6-3.2-2.4
	l7.2-1.9l0.1,0l0.5-0.1c0.2,0,0.3,0,0.4,0.1l10.8,9.8C269.1,428.1,269.1,428.3,269.1,428.4z"/>
<path class="st12" d="M269.3,428.3l-0.2,0.1l-5.3,1.6c-3.6-2.4-7.1-4.8-10.5-7.3l0,0c-1.1-0.8-2.1-1.6-3.2-2.4
	c-0.1-0.1-0.3-0.2-0.4-0.3l8.2-2.1l0.2,0l0.4-0.1c0.2,0,0.3,0,0.4,0.1l10.8,9.8c0.2,0.2,0.2,0.5,0,0.7
	C269.5,428.3,269.4,428.3,269.3,428.3z"/>
<g class="st13">
	<path d="M236.1,407.7l1.5,1.6c0,0,0.1,0.1,0.2,0l3.3-0.8c0.1,0,0.2-0.1,0.1-0.2c0,0,0-0.1-0.1-0.1l-1.7-1.6c0,0-0.1-0.1-0.2,0
		l-3.1,0.8C236.1,407.4,236.1,407.5,236.1,407.7C236.1,407.7,236.1,407.7,236.1,407.7z"/>
	<path d="M240.3,406.7l1.5,1.6c0,0,0.1,0.1,0.2,0l3.2-0.8c0.1,0,0.2-0.1,0.1-0.2c0,0,0-0.1-0.1-0.1l-1.7-1.6c0,0-0.1-0.1-0.2,0
		l-3.1,0.8C240.3,406.5,240.2,406.6,240.3,406.7C240.3,406.7,240.3,406.7,240.3,406.7z"/>
	<path d="M241.3,411.1c0,0.1-0.1,0.1-0.1,0.1l-1.4,0.3l-0.6,0.1l-0.5-0.4c-0.6-0.4-1.1-0.9-1.6-1.4l-0.1,0l2.4-0.6
		c0.1,0,0.1,0,0.2,0l0.5,0.5l1,0.9l0.2,0.2C241.3,410.9,241.3,411,241.3,411.1z"/>
	<path d="M244.3,405.7l1.6,1.7c0,0,0.1,0,0.1,0l3.4-0.8c0.1,0,0.1-0.1,0.1-0.2c0,0,0,0,0-0.1l-1.8-1.6c0,0-0.1,0-0.1,0l-3.2,0.8
		C244.3,405.5,244.3,405.6,244.3,405.7C244.3,405.7,244.3,405.7,244.3,405.7z"/>
	<path d="M248.4,404.8l1.6,1.7c0,0,0.1,0,0.1,0l3.4-0.8c0.1,0,0.1-0.1,0.1-0.2c0,0,0,0,0-0.1l-1.8-1.7c0,0-0.1,0-0.1,0l-3.2,0.8
		C248.4,404.6,248.3,404.7,248.4,404.8C248.4,404.8,248.4,404.8,248.4,404.8z"/>
	<path d="M252.6,403.9l1.4,1.6c0,0,0.1,0.1,0.1,0l3.1-0.9c0.1,0,0.1-0.1,0.1-0.2c0,0,0,0,0-0.1l-1.6-1.4c0,0-0.1,0-0.1,0l-2.9,0.7
		C252.6,403.7,252.5,403.7,252.6,403.9C252.5,403.8,252.5,403.8,252.6,403.9z"/>
	<path d="M256.9,405.3l1.4,1.6c0,0,0.1,0.1,0.1,0l3.1-0.9c0.1,0,0.1-0.1,0.1-0.2c0,0,0,0,0-0.1l-1.6-1.4c0,0-0.1,0-0.1,0l-3,0.7
		C256.9,405.1,256.9,405.2,256.9,405.3C256.9,405.3,256.9,405.3,256.9,405.3z"/>
	<path d="M256.4,408.2l1.4,1.5c0,0,0.1,0.1,0.2,0l3-0.8c0.1,0,0.2-0.1,0.1-0.2c0,0,0-0.1-0.1-0.1l-1.5-1.3c0,0-0.1-0.1-0.2,0
		l-2.8,0.6C256.4,407.9,256.3,408,256.4,408.2C256.4,408.1,256.4,408.1,256.4,408.2z"/>
	<path d="M252.8,411.8l1.4,1.5c0,0,0.1,0.1,0.2,0l3-0.8c0.1,0,0.2-0.1,0.1-0.2c0,0,0-0.1-0.1-0.1l-1.5-1.3c0,0-0.1,0-0.2,0l-2.9,0.6
		C252.8,411.5,252.8,411.6,252.8,411.8C252.8,411.7,252.8,411.7,252.8,411.8z"/>
	<path d="M248.6,412.9l1.4,1.5c0,0,0.1,0.1,0.2,0l3-0.8c0.1,0,0.2-0.1,0.1-0.2c0,0,0-0.1-0.1-0.1l-1.5-1.3c0,0-0.1-0.1-0.1-0.1
		l-2.9,0.6c-0.1,0-0.2,0.1-0.2,0.2C248.5,412.8,248.5,412.9,248.6,412.9z"/>
	<path d="M256.9,410.7l1.4,1.5c0,0,0.1,0.1,0.2,0l3-0.8c0.1,0,0.2-0.1,0.1-0.2c0,0,0-0.1-0.1-0.1l-1.5-1.3c0,0-0.1,0-0.2,0l-2.9,0.6
		C256.9,410.4,256.8,410.5,256.9,410.7C256.8,410.7,256.8,410.7,256.9,410.7z"/>
	<path d="M256.2,413.9l2.1,1.9c0,0,0.1,0.1,0.2,0l3-0.9c0.1,0,0.2-0.1,0.1-0.2c0,0,0-0.1-0.1-0.1l-2.2-2c0,0-0.1-0.1-0.2,0l-2.9,0.9
		C256.1,413.6,256.1,413.7,256.2,413.9C256.1,413.9,256.1,413.9,256.2,413.9z"/>
	<path d="M248.9,407.3l1.4,1.6c0,0,0.1,0.1,0.1,0l3.1-0.9c0.1,0,0.1-0.1,0.1-0.2c0,0,0-0.1,0-0.1l-1.6-1.4c0,0-0.1,0-0.1,0l-3,0.7
		C248.9,407.2,248.9,407.2,248.9,407.3C248.9,407.3,248.9,407.3,248.9,407.3z"/>
	<path d="M244.9,408.3l1.4,1.5c0,0,0.1,0.1,0.2,0l3-0.8c0.1,0,0.2-0.1,0.1-0.2c0,0,0-0.1-0.1-0.1l-1.5-1.3c0,0-0.1,0-0.2,0L245,408
		C244.9,408.1,244.8,408.2,244.9,408.3C244.9,408.3,244.9,408.3,244.9,408.3z"/>
	<path d="M244.1,411.2l1.4,1.5c0,0.1,0.1,0.1,0.2,0.1l3-0.8c0.1,0,0.2-0.1,0.1-0.2c0,0,0-0.1-0.1-0.1l-1.5-1.3c0,0-0.1-0.1-0.2,0
		l-2.9,0.6C244,410.9,244,411,244.1,411.2C244,411.2,244,411.2,244.1,411.2z"/>
	<path d="M241.6,413.7l2.7-0.7c0.1,0,0.2-0.1,0.1-0.2c0,0,0-0.1-0.1-0.1l-0.2-0.2l-1.3-1.1c0,0-0.1-0.1-0.2,0l-2.8,0.6h-0.1
		c-0.1,0-0.2,0.1-0.1,0.2c0,0,0,0,0,0L241.6,413.7z"/>
	<path d="M240.6,409.3l1.4,1.5c0,0,0.1,0.1,0.2,0.1l3-0.8c0.1,0,0.2-0.1,0.1-0.2c0,0,0-0.1-0.1-0.1l-1.5-1.3c0,0-0.1-0.1-0.1,0
		l-2.9,0.6C240.6,409,240.5,409.1,240.6,409.3C240.5,409.3,240.5,409.3,240.6,409.3z"/>
	<path d="M244.1,413.8l1.4,1.5c0,0,0.1,0.1,0.2,0l3-0.8c0.1,0,0.2-0.1,0.1-0.2c0,0,0-0.1-0.1-0.1l-1.5-1.3c0,0-0.1,0-0.2,0l-2.9,0.6
		C244.1,413.6,244.1,413.7,244.1,413.8C244.1,413.8,244.1,413.8,244.1,413.8z"/>
	<path d="M244.4,415.7l-0.2,0.1c-0.2-0.1-0.3-0.3-0.5-0.4c-0.5-0.4-1-0.8-1.5-1.2l0.6-0.1c0.1,0,0.1,0,0.2,0l1.3,1.1l0.2,0.1
		C244.5,415.4,244.5,415.5,244.4,415.7C244.4,415.6,244.4,415.6,244.4,415.7z"/>
	<path d="M253,406.3l1.4,1.6c0,0,0.1,0,0.1,0l3.1-0.9c0.1,0,0.1-0.1,0.1-0.2c0,0,0-0.1,0-0.1l-1.6-1.4c0,0-0.1,0-0.1,0l-3,0.7
		C253,406.1,253,406.2,253,406.3C253,406.3,253,406.3,253,406.3z"/>
	<path d="M252.5,409.1l1.4,1.5c0,0,0.1,0.1,0.2,0l3-0.8c0.1,0,0.2-0.1,0.1-0.2c0,0,0-0.1-0.1-0.1l-1.5-1.3c0,0-0.1,0-0.2,0l-2.9,0.6
		C252.5,408.8,252.4,408.9,252.5,409.1C252.4,409.1,252.5,409.1,252.5,409.1z"/>
	<path d="M248.4,410.2l1.4,1.5c0,0,0.1,0.1,0.2,0l3-0.8c0.1,0,0.2-0.1,0.1-0.2c0,0,0-0.1-0.1-0.1l-1.5-1.3c0,0-0.1,0-0.1,0l-2.9,0.6
		C248.4,410,248.3,410.1,248.4,410.2C248.3,410.2,248.4,410.2,248.4,410.2z"/>
	<path d="M236.9,409.3c0,0.1,0,0.2-0.1,0.2c0,0,0,0,0,0l-0.2,0l-0.2-0.1c-0.1-0.1-0.2-0.2-0.3-0.3c-0.6-0.5-1.1-1-1.7-1.4l0.6-0.1
		c0.1,0,0.1,0,0.2,0l1.5,1.4L236.9,409.3C236.9,409.2,236.9,409.3,236.9,409.3z"/>
	<path d="M235.8,407.1l-0.5,0.1l-1.1,0.3l-0.2-0.2l0,0l-0.2-0.2l-0.7-0.6l1.9-0.5c0.1,0,0.1,0,0.2,0l0.5,0.6l0.2,0.2
		C235.9,406.9,235.9,407,235.8,407.1C235.8,407.1,235.8,407.1,235.8,407.1z"/>
	<path d="M236,405.8l3.4-0.8c0.1,0,0.1,0,0.2,0l0.7,0.7c0.1,0.1,0.1,0.2,0,0.3c0,0,0,0-0.1,0l-3.3,0.8c-0.1,0-0.1,0-0.2,0l-0.8-0.8
		C235.8,406,235.8,405.9,236,405.8C235.9,405.8,235.9,405.8,236,405.8z"/>
	<path d="M240.3,404.9l3.4-0.8c0.1,0,0.1,0,0.2,0l0.7,0.7c0.1,0.1,0.1,0.2,0,0.3c0,0,0,0-0.1,0l-3.3,0.8c-0.1,0-0.1,0-0.2,0
		l-0.8-0.8C240.2,405.1,240.2,405,240.3,404.9C240.3,404.9,240.3,404.9,240.3,404.9z"/>
	<path d="M244.4,403.9l3.5-0.9c0,0,0.1,0,0.1,0l0.8,0.8c0,0.1,0,0.1,0,0.2c0,0,0,0,0,0l-3.5,0.9c0,0-0.1,0-0.1,0l-0.8-0.8
		C244.3,404.1,244.3,404,244.4,403.9C244.4,403.9,244.4,403.9,244.4,403.9z"/>
	<path d="M248.6,403l3.5-0.9c0,0,0.1,0,0.1,0l0.8,0.8c0.1,0.1,0.1,0.1,0,0.2c0,0,0,0-0.1,0l-3.5,0.9c0,0-0.1,0-0.1,0l-0.8-0.8
		C248.5,403.2,248.5,403.1,248.6,403C248.6,403,248.6,403,248.6,403z"/>
	<path d="M252.8,402.1l3.2-0.7c0,0,0.1,0,0.1,0l0.6,0.8c0,0.1,0,0.1,0,0.2c0,0,0,0,0,0l-3,0.8c0,0-0.1,0-0.1,0l-0.8-0.8
		C252.6,402.2,252.6,402.2,252.8,402.1C252.7,402.1,252.7,402.1,252.8,402.1z"/>
	<path d="M256.7,401.2l3.2-0.7c0,0,0.1,0,0.1,0l0.6,0.8c0,0.1,0,0.1,0,0.2c0,0,0,0,0,0l-3,0.8c0,0-0.1,0-0.1,0l-0.8-0.8
		C256.6,401.3,256.6,401.3,256.7,401.2C256.7,401.2,256.7,401.2,256.7,401.2z"/>
	<path d="M251.9,417.5l-4.1,1l-0.6-0.4c-0.9-0.7-1.7-1.3-2.6-2l4.9-1.2c0.1,0,0.2,0,0.2,0.1l2.1,2.1l0.2,0.1
		C252.1,417.3,252.1,417.4,251.9,417.5C252,417.5,251.9,417.5,251.9,417.5z"/>
	<path d="M250.6,415.1l2.1,2.2c0,0,0.1,0.1,0.2,0l4.5-1.2c0.1,0,0.2-0.1,0.1-0.2c0,0,0-0.1,0-0.1l-2.2-2.2c0,0-0.1-0.1-0.2,0
		l-4.4,1.2C250.6,414.8,250.5,414.9,250.6,415.1C250.5,415,250.5,415.1,250.6,415.1z"/>
	<path d="M261.4,413.7l1,1c0,0,0.1,0,0.1,0l3.3-0.9c0.1,0,0.1-0.1,0.1-0.2c0,0,0,0,0-0.1l-1.2-1.1c0,0-0.1,0-0.1,0l-3.1,1
		C261.4,413.5,261.4,413.6,261.4,413.7C261.4,413.7,261.4,413.7,261.4,413.7z"/>
	<path d="M264.2,411.5l1.2,1.2c0,0,0.1,0,0.1,0l3-1.1c0.1,0,0.1-0.1,0.1-0.2c0,0,0,0,0-0.1l-1.1-1c0,0-0.1,0-0.1,0l-3.1,0.9
		C264.2,411.3,264.2,411.4,264.2,411.5C264.2,411.5,264.2,411.5,264.2,411.5z"/>
	<path d="M266.5,413.6l-0.8-0.7c-0.1,0-0.1-0.1,0-0.2c0,0,0,0,0.1,0l3-1.1c0,0,0.1,0,0.1,0l0.9,0.9c0.1,0.1,0,0.1,0,0.2
		c0,0,0,0-0.1,0l-3.1,0.8C266.6,413.6,266.5,413.6,266.5,413.6z"/>
	<path d="M269.6,411.8c0.3,0.2,0.7,0.8,0.9,0.9c0,0,0.1,0.1,0.1,0l3.2-0.9c0.1,0,0.1-0.1,0.1-0.2c0,0,0,0,0-0.1l-1.1-1
		c0,0-0.1,0-0.1,0l-2.9,0.9C269.6,411.5,269.6,411.6,269.6,411.8C269.6,411.7,269.6,411.7,269.6,411.8z"/>
	<path d="M260.7,409.7l1.7,1.7c0,0,0.1,0,0.1,0l8.2-2.1c0.1,0,0.1-0.1,0.1-0.2c0,0,0-0.1,0-0.1l-2-1.7c0,0-0.1,0-0.1,0l-7.9,2.2
		C260.7,409.6,260.7,409.6,260.7,409.7C260.7,409.7,260.7,409.7,260.7,409.7z"/>
	<path d="M260.2,407.2l1.8,1.6c0,0,0.1,0,0.1,0l6.1-1.5c0.1,0,0.1-0.1,0.1-0.2c0,0,0-0.1,0-0.1l-2-1.7c0,0-0.1,0-0.1,0l-5.9,1.6
		C260.2,407.1,260.1,407.2,260.2,407.2z"/>
	<path d="M260.7,404.5l1.7,1.5c0,0,0.1,0,0.1,0l3.2-0.7c0.1,0,0.1-0.1,0.1-0.2c0,0,0-0.1,0-0.1l-2-1.7c0,0-0.1,0-0.1,0l-2.8,0.9
		C260.7,404.3,260.7,404.4,260.7,404.5C260.7,404.5,260.7,404.5,260.7,404.5z"/>
	<path d="M256.4,403.1l1.6,1.5c0,0,0.1,0,0.1,0l5-1.2c0.1,0,0.1-0.1,0.1-0.2c0,0,0-0.1,0-0.1l-1.9-1.6c0,0-0.1,0-0.1,0l-4.7,1.3
		C256.4,402.9,256.3,403,256.4,403.1C256.4,403.1,256.4,403.1,256.4,403.1z"/>
</g>
<path class="st10" d="M236.1,407.2l1.5,1.6c0,0,0.1,0.1,0.2,0.1l3.3-0.8c0.1,0,0.2-0.1,0.1-0.2c0,0,0-0.1,0-0.1l-1.7-1.6
	c0,0-0.1-0.1-0.2,0l-3.1,0.8C236.1,406.9,236.1,407,236.1,407.2C236.1,407.1,236.1,407.1,236.1,407.2z"/>
<path class="st10" d="M240.3,406.2l1.5,1.6c0,0,0.1,0.1,0.2,0l3.2-0.8c0.1,0,0.2-0.1,0.1-0.2c0,0,0-0.1-0.1-0.1l-1.7-1.6
	c0,0-0.1-0.1-0.2,0l-3.1,0.8C240.3,405.9,240.2,406,240.3,406.2C240.3,406.2,240.3,406.2,240.3,406.2z"/>
<path class="st10" d="M241.2,410.7H241l-2.4,0.6c-0.6-0.4-1.1-0.9-1.6-1.4l-0.1,0l-0.3-0.3l-0.2-0.1l0.5-0.1l0.6-0.1l1.8-0.5
	c0.1,0,0.1,0,0.2,0l0.2,0.2l0.9,0.8l0.6,0.6c0.1,0.1,0.1,0.2,0.1,0.2C241.3,410.6,241.2,410.7,241.2,410.7z"/>
<path class="st10" d="M244.3,405.2l1.6,1.7c0,0,0.1,0,0.1,0l3.4-0.8c0.1,0,0.1-0.1,0.1-0.2c0,0,0,0,0-0.1l-1.8-1.7c0,0-0.1,0-0.1,0
	l-3.2,0.8C244.3,405,244.3,405.1,244.3,405.2C244.3,405.1,244.3,405.2,244.3,405.2z"/>
<path class="st10" d="M248.4,404.3l1.6,1.7c0,0,0.1,0.1,0.1,0l3.4-0.8c0.1,0,0.1-0.1,0.1-0.2c0,0,0,0,0-0.1l-1.8-1.7
	c0,0-0.1,0-0.1,0l-3.2,0.8c-0.1,0-0.1,0.1-0.1,0.1C248.3,404.2,248.4,404.3,248.4,404.3z"/>
<path class="st10" d="M252.6,403.3l1.4,1.6c0,0,0.1,0.1,0.1,0l3.1-0.9c0.1,0,0.1-0.1,0.1-0.2c0,0,0,0,0-0.1l-1.6-1.4
	c0,0-0.1,0-0.1,0l-2.9,0.6C252.6,403.1,252.5,403.2,252.6,403.3C252.5,403.3,252.5,403.3,252.6,403.3z"/>
<path class="st10" d="M256.9,404.8l1.4,1.6c0,0,0.1,0,0.1,0l3.1-0.9c0.1,0,0.1-0.1,0.1-0.2c0,0,0,0,0-0.1l-1.6-1.4c0,0-0.1,0-0.1,0
	l-3,0.7C256.9,404.6,256.9,404.7,256.9,404.8C256.9,404.8,256.9,404.8,256.9,404.8z"/>
<path class="st10" d="M256.4,407.6l1.4,1.5c0,0.1,0.1,0.1,0.2,0l3-0.8c0.1,0,0.2-0.1,0.1-0.2c0,0,0-0.1-0.1-0.1l-1.5-1.3
	c0,0-0.1-0.1-0.2,0l-2.8,0.6C256.4,407.3,256.3,407.4,256.4,407.6C256.4,407.6,256.4,407.6,256.4,407.6z"/>
<path class="st10" d="M252.8,411.2l1.4,1.5c0,0,0.1,0.1,0.2,0.1l3-0.8c0.1,0,0.2-0.1,0.1-0.2c0,0,0-0.1-0.1-0.1l-1.5-1.3
	c0,0-0.1-0.1-0.2,0l-2.9,0.6C252.8,410.9,252.8,411,252.8,411.2C252.8,411.2,252.8,411.2,252.8,411.2z"/>
<path class="st10" d="M248.6,412.3l1.4,1.5c0,0.1,0.1,0.1,0.2,0l3-0.8c0.1,0,0.2-0.1,0.1-0.2c0,0,0-0.1-0.1-0.1l-1.5-1.3
	c0,0-0.1-0.1-0.2,0l-2.9,0.6C248.6,412.1,248.5,412.2,248.6,412.3C248.5,412.3,248.5,412.3,248.6,412.3z"/>
<path class="st10" d="M256.9,410.2l1.4,1.5c0,0,0.1,0.1,0.2,0l3-0.8c0.1,0,0.2-0.1,0.1-0.2c0,0,0-0.1-0.1-0.1l-1.5-1.3
	c0,0-0.1,0-0.2,0l-2.9,0.6C256.9,409.9,256.8,410,256.9,410.2C256.8,410.1,256.8,410.1,256.9,410.2z"/>
<path class="st10" d="M256.2,413.4l2.1,1.9c0,0,0.1,0.1,0.2,0l3-0.8c0.1,0,0.2-0.1,0.1-0.2c0,0,0-0.1-0.1-0.1l-2.2-2
	c0,0-0.1-0.1-0.2,0l-2.8,0.9C256.2,413.1,256.1,413.2,256.2,413.4C256.1,413.3,256.1,413.4,256.2,413.4z"/>
<path class="st10" d="M248.9,406.8l1.4,1.6c0,0,0.1,0.1,0.1,0l3.1-0.9c0.1,0,0.1-0.1,0.1-0.2c0,0,0-0.1,0-0.1l-1.6-1.4
	c0,0-0.1,0-0.1,0l-3,0.7C248.9,406.6,248.9,406.7,248.9,406.8C248.9,406.8,248.9,406.8,248.9,406.8z"/>
<path class="st10" d="M244.9,407.8l1.4,1.5c0,0,0.1,0.1,0.2,0l3-0.8c0.1,0,0.2-0.1,0.1-0.2c0,0,0-0.1-0.1-0.1l-1.5-1.3
	c0,0-0.1-0.1-0.2,0l-2.9,0.7C244.9,407.6,244.8,407.7,244.9,407.8C244.9,407.8,244.9,407.8,244.9,407.8z"/>
<path class="st10" d="M244.1,410.7l1.4,1.5c0,0,0.1,0.1,0.2,0l3-0.8c0.1,0,0.2-0.1,0.1-0.2c0,0,0-0.1-0.1-0.1l-1.5-1.3
	c0,0-0.1,0-0.2,0l-2.9,0.6C244,410.4,244,410.5,244.1,410.7C244,410.6,244,410.6,244.1,410.7z"/>
<path class="st10" d="M239.8,411.7l1.4,1.5c0,0,0.1,0.1,0.2,0l3-0.8c0.1,0,0.2-0.1,0.1-0.2c0,0,0-0.1-0.1-0.1l-1.5-1.3
	c0,0-0.1-0.1-0.2,0l-2.9,0.6C239.8,411.4,239.7,411.5,239.8,411.7C239.7,411.6,239.8,411.7,239.8,411.7z"/>
<path class="st10" d="M240.6,408.8l1.4,1.5c0,0.1,0.1,0.1,0.2,0l3-0.8c0.1,0,0.2-0.1,0.1-0.2c0,0,0-0.1-0.1-0.1l-1.5-1.3
	c0,0-0.1,0-0.1,0l-2.9,0.6C240.6,408.5,240.5,408.6,240.6,408.8C240.5,408.7,240.5,408.7,240.6,408.8z"/>
<path class="st10" d="M244.1,413.3l1.4,1.5c0,0,0.1,0.1,0.2,0l3-0.8c0.1,0,0.2-0.1,0.1-0.2c0,0,0-0.1-0.1-0.1l-1.5-1.3
	c0,0-0.1,0-0.2,0l-2.9,0.6C244.1,413,244.1,413.1,244.1,413.3C244.1,413.3,244.1,413.3,244.1,413.3z"/>
<path class="st10" d="M244.4,415.1L244.4,415.1l-0.7,0.2c-0.5-0.4-1-0.8-1.5-1.2l-0.5-0.4l1.1-0.3c0.1,0,0.1,0,0.2,0l1.5,1.2
	c0.1,0.1,0.1,0.2,0.1,0.3C244.5,415.1,244.4,415.1,244.4,415.1z"/>
<path class="st10" d="M253,405.8l1.4,1.6c0,0,0.1,0.1,0.1,0l3.1-0.9c0.1,0,0.1-0.1,0.1-0.2c0,0,0-0.1,0-0.1l-1.6-1.4
	c0,0-0.1,0-0.1,0l-3,0.7C253,405.6,253,405.7,253,405.8C253,405.8,253,405.8,253,405.8z"/>
<path class="st10" d="M252.5,408.6l1.4,1.5c0,0,0.1,0.1,0.2,0l3-0.8c0.1,0,0.2-0.1,0.1-0.2c0,0,0-0.1-0.1-0.1l-1.5-1.3
	c0,0-0.1-0.1-0.2,0l-2.9,0.6C252.5,408.3,252.4,408.4,252.5,408.6C252.4,408.5,252.5,408.6,252.5,408.6z"/>
<path class="st10" d="M248.4,409.7l1.4,1.5c0,0.1,0.1,0.1,0.2,0.1l3-0.8c0.1,0,0.2-0.1,0.1-0.2c0,0,0-0.1-0.1-0.1l-1.5-1.3
	c0,0-0.1-0.1-0.1,0l-2.9,0.6C248.4,409.5,248.3,409.6,248.4,409.7C248.3,409.7,248.4,409.7,248.4,409.7z"/>
<path class="st10" d="M236.8,409l-0.1,0l-0.6,0.1c-0.6-0.5-1.1-1-1.7-1.4c-0.1-0.1-0.2-0.1-0.3-0.2l-0.2-0.2l1-0.3
	c0.1,0,0.1,0,0.2,0l0.1,0.1l1.6,1.5C237,408.8,237,408.9,236.8,409C236.9,409,236.9,409,236.8,409z"/>
<path class="st10" d="M235.8,406.5h-0.1l-1.9,0.5l-0.7-0.6l-0.5-0.4l2.4-0.6c0.1,0,0.1,0,0.2,0.1l0.7,0.7c0.1,0.1,0.1,0.2,0,0.3
	C235.9,406.5,235.8,406.5,235.8,406.5z"/>
<path class="st10" d="M236,405.3l3.4-0.8c0.1,0,0.1,0,0.2,0l0.7,0.7c0.1,0.1,0.1,0.2,0,0.3c0,0,0,0-0.1,0l-3.3,0.8
	c-0.1,0-0.1,0-0.2,0l-0.8-0.8C235.8,405.5,235.8,405.4,236,405.3C235.9,405.3,235.9,405.3,236,405.3z"/>
<path class="st10" d="M240.3,404.4l3.4-0.8c0.1,0,0.1,0,0.2,0l0.7,0.7c0.1,0.1,0.1,0.2,0,0.2c0,0-0.1,0-0.1,0l-3.3,0.8
	c-0.1,0-0.1,0-0.2,0l-0.8-0.8C240.2,404.6,240.2,404.5,240.3,404.4C240.2,404.4,240.3,404.4,240.3,404.4z"/>
<path class="st10" d="M244.4,403.4l3.5-0.9c0,0,0.1,0,0.1,0l0.8,0.8c0.1,0.1,0,0.1,0,0.2c0,0,0,0-0.1,0l-3.5,0.9c0,0-0.1,0-0.1,0
	l-0.8-0.8C244.3,403.6,244.3,403.5,244.4,403.4C244.4,403.4,244.4,403.4,244.4,403.4z"/>
<path class="st10" d="M248.6,402.5l3.5-0.9c0,0,0.1,0,0.1,0l0.8,0.8c0.1,0.1,0.1,0.1,0,0.2c0,0,0,0-0.1,0l-3.5,0.9c0,0-0.1,0-0.1,0
	l-0.8-0.8C248.5,402.7,248.5,402.6,248.6,402.5C248.6,402.5,248.6,402.5,248.6,402.5z"/>
<path class="st10" d="M252.8,401.5l3.2-0.7c0,0,0.1,0,0.1,0l0.6,0.8c0,0.1,0,0.1,0,0.2c0,0,0,0,0,0l-3,0.8c0,0-0.1,0-0.1,0l-0.8-0.8
	C252.6,401.7,252.6,401.6,252.8,401.5C252.7,401.6,252.7,401.5,252.8,401.5z"/>
<path class="st10" d="M256.7,400.6l3.2-0.7c0,0,0.1,0,0.1,0l0.6,0.8c0,0.1,0,0.1,0,0.2c0,0,0,0,0,0l-3,0.8c0,0-0.1,0-0.1,0l-0.8-0.8
	C256.6,400.8,256.6,400.7,256.7,400.6C256.7,400.6,256.7,400.6,256.7,400.6z"/>
<path class="st10" d="M251.9,417L251.9,417l-4.6,1.1c-0.9-0.7-1.7-1.3-2.6-2c-0.2-0.1-0.3-0.3-0.5-0.4l1.4-0.3l1.9-0.5l2.1-0.6
	c0.1,0,0.2,0,0.2,0l2.2,2.2c0.1,0,0.2,0.1,0.2,0.3S252,417,251.9,417z"/>
<path class="st10" d="M250.6,414.5l2.1,2.2c0,0,0.1,0.1,0.2,0l4.5-1.2c0.1,0,0.2-0.1,0.1-0.2c0,0,0-0.1,0-0.1l-2.2-2.2
	c0,0-0.1-0.1-0.2,0l-4.4,1.2c-0.1,0-0.2,0.1-0.2,0.2C250.5,414.5,250.5,414.5,250.6,414.5z"/>
<path class="st10" d="M261.4,413.2l1,1c0,0,0.1,0.1,0.1,0l3.3-0.9c0.1,0,0.1-0.1,0.1-0.2c0,0,0-0.1,0-0.1l-1.2-1.1c0,0-0.1,0-0.1,0
	l-3.1,0.9C261.4,413,261.4,413.1,261.4,413.2C261.4,413.1,261.4,413.2,261.4,413.2z"/>
<path class="st10" d="M264.2,411l1.2,1.2c0,0,0.1,0.1,0.1,0l3-1.1c0.1,0,0.1-0.1,0.1-0.2c0,0,0,0,0-0.1l-1.1-1c0,0-0.1,0-0.1,0
	l-3.1,0.9C264.2,410.8,264.2,410.9,264.2,411C264.2,410.9,264.2,411,264.2,411z"/>
<path class="st10" d="M266.5,413.1l-0.8-0.7c-0.1,0-0.1-0.1,0-0.2c0,0,0,0,0.1,0l3-1.1c0,0,0.1,0,0.1,0l0.9,0.9
	c0.1,0.1,0.1,0.1,0,0.2c0,0,0,0-0.1,0l-3.1,0.8C266.6,413.1,266.5,413.1,266.5,413.1z"/>
<path class="st10" d="M269.6,411.2c0.3,0.3,0.7,0.8,0.9,0.9c0,0,0.1,0,0.1,0l3.2-0.9c0.1,0,0.1-0.1,0.1-0.2c0,0,0,0,0-0.1l-1.1-1
	c0,0-0.1,0-0.1,0l-2.9,0.9C269.6,411,269.6,411.1,269.6,411.2C269.6,411.2,269.6,411.2,269.6,411.2z"/>
<path class="st10" d="M260.7,409.2l1.7,1.7c0,0,0.1,0,0.1,0l8.2-2.2c0.1,0,0.1-0.1,0.1-0.2c0,0,0-0.1,0-0.1l-2-1.7c0,0-0.1,0-0.1,0
	l-7.9,2.2C260.7,409,260.7,409.1,260.7,409.2C260.7,409.2,260.7,409.2,260.7,409.2z"/>
<path class="st10" d="M260.2,406.7l1.8,1.6c0,0,0.1,0,0.1,0l6.1-1.5c0.1,0,0.1-0.1,0.1-0.2c0,0,0,0,0-0.1l-2-1.7c0,0-0.1,0-0.1,0
	l-5.9,1.6C260.2,406.5,260.1,406.6,260.2,406.7C260.2,406.7,260.2,406.7,260.2,406.7z"/>
<path class="st10" d="M260.7,404l1.7,1.5c0,0,0.1,0,0.1,0l3.2-0.7c0.1,0,0.1-0.1,0.1-0.2c0,0,0-0.1,0-0.1l-2-1.7c0,0-0.1,0-0.1,0
	l-2.8,0.9C260.7,403.8,260.7,403.9,260.7,404C260.7,404,260.7,404,260.7,404z"/>
<path class="st10" d="M256.4,402.6l1.6,1.5c0,0,0.1,0,0.1,0l5-1.2c0.1,0,0.1-0.1,0.1-0.2c0,0,0-0.1,0-0.1l-1.9-1.6c0,0-0.1,0-0.1,0
	l-4.7,1.3C256.4,402.3,256.4,402.4,256.4,402.6C256.4,402.5,256.4,402.5,256.4,402.6z"/>
<linearGradient id="SVGID_2_" gradientUnits="userSpaceOnUse" x1="411.3401" y1="217.897" x2="412.2457" y2="217.897" gradientTransform="matrix(1 0 0 -1 -20.49 463.2603)">
	<stop  offset="0" style="stop-color:#808080;stop-opacity:0.25"/>
	<stop  offset="0.54" style="stop-color:#808080;stop-opacity:0.12"/>
	<stop  offset="1" style="stop-color:#808080;stop-opacity:0.1"/>
</linearGradient>
<path class="st14" d="M391.8,245.4l-0.9-0.1C391.2,245.4,391.5,245.4,391.8,245.4z"/>
<linearGradient id="SVGID_3_" gradientUnits="userSpaceOnUse" x1="273.7126" y1="166.7958" x2="553.5613" y2="166.7958" gradientTransform="matrix(1 0 0 -1 -20.49 463.2603)">
	<stop  offset="0" style="stop-color:#808080;stop-opacity:0.25"/>
	<stop  offset="0.54" style="stop-color:#808080;stop-opacity:0.12"/>
	<stop  offset="1" style="stop-color:#808080;stop-opacity:0.1"/>
</linearGradient>
<path class="st15" d="M415.4,242.6c-0.2-0.2-0.3-0.3-0.5-0.5c-0.3-0.3-0.5-0.5-0.7-0.8c-0.1-0.1-0.2-0.3-0.4-0.4l-0.2-0.3l0,0
	c-0.1-0.1-0.2-0.2-0.3-0.3c0,0,0,0-0.1-0.1c0,0,0-0.1-0.1-0.1c-0.2-0.3-0.5-0.7-0.7-1.1h0c0.2,0.4,0.4,0.7,0.7,1.1
	c0.1,0.1,0.1,0.1,0.2,0.2c0.2,0.4,0.5,0.7,0.8,1c0.1,0.1,0.2,0.2,0.3,0.3c0.1,0.1,0.2,0.3,0.4,0.4c0,0.1,0.1,0.1,0.2,0.2
	C415,242.3,415.2,242.5,415.4,242.6l0.2,0.2c0.3,0.3,0.6,0.5,0.9,0.7l0.1,0C416.1,243.2,415.7,242.9,415.4,242.6z M399,251.3l-2,0.5
	c-1.4,0.3-2.7,0.8-3.8,1.7l0.3-0.2c0.1,0,0.2-0.1,0.2-0.1c0.1-0.1,0.2-0.1,0.4-0.2s0.3-0.1,0.5-0.2l0.4-0.1c0.1,0,0.2-0.1,0.4-0.1
	c0.1,0,0.3-0.1,0.4-0.1l0.4-0.1l0.7-0.2c0.7-0.2,1.4-0.3,2.1-0.5c0,0,0.1,0,0.1,0l0.6-0.2c0.1,0,0.2,0,0.2-0.1
	c0.2,0,0.4-0.1,0.6-0.1l0.6-0.2c0.2-0.1,0.5-0.2,0.7-0.3l0.3-0.1c0.1,0,0.2-0.1,0.3-0.1c0.1,0,0.1-0.1,0.2-0.1
	c0.3-0.1,0.6-0.3,0.9-0.4c0.1-0.1,0.3-0.2,0.4-0.2l0.4-0.3c0.1,0,0.1-0.1,0.2-0.1C402.5,250.3,400.8,250.9,399,251.3z M396.2,245.2
	C396.2,245.2,396.2,245.2,396.2,245.2c-1.3,0.8-2.9,1.3-4.4,1.3c0.6,0,1.3,0.1,1.9,0.1l0,0c1.8,0.1,3.5,0.1,5.3,0.1v-4
	C398.2,243.7,397.2,244.6,396.2,245.2L396.2,245.2z M415.4,242.5c-0.2-0.2-0.3-0.3-0.5-0.5c-0.3-0.3-0.5-0.5-0.7-0.8
	c-0.1-0.1-0.2-0.3-0.4-0.4l-0.2-0.3l0,0c-0.1-0.1-0.2-0.2-0.3-0.3c0,0,0,0-0.1-0.1c0,0,0-0.1-0.1-0.1c-0.2-0.3-0.5-0.7-0.7-1.1h0
	c0.2,0.4,0.4,0.7,0.7,1.1c0.1,0.1,0.1,0.1,0.2,0.2c0.2,0.4,0.5,0.7,0.8,1c0.1,0.1,0.2,0.2,0.3,0.3c0.1,0.1,0.2,0.3,0.4,0.4
	c0,0.1,0.1,0.1,0.2,0.2C415.1,242.3,415.2,242.4,415.4,242.5l0.2,0.2c0.3,0.3,0.6,0.5,0.9,0.7l0.1,0
	C416.1,243.2,415.7,242.9,415.4,242.5L415.4,242.5z M399,251.3l-2,0.5c-1.4,0.3-2.7,0.8-3.8,1.7l0.3-0.2c0.1,0,0.2-0.1,0.2-0.1
	c0.1-0.1,0.2-0.1,0.4-0.2s0.3-0.1,0.5-0.2l0.4-0.1c0.1,0,0.2-0.1,0.4-0.1c0.1,0,0.3-0.1,0.4-0.1l0.4-0.1l0.7-0.2
	c0.7-0.2,1.4-0.3,2.1-0.5c0,0,0.1,0,0.1,0l0.6-0.2c0.1,0,0.2,0,0.2-0.1c0.2,0,0.4-0.1,0.6-0.1l0.6-0.2c0.2-0.1,0.5-0.2,0.7-0.3
	l0.3-0.1c0.1,0,0.2-0.1,0.3-0.1c0.1,0,0.1-0.1,0.2-0.1c0.3-0.1,0.6-0.3,0.9-0.4c0.1-0.1,0.3-0.2,0.4-0.2l0.4-0.3
	c0.1,0,0.1-0.1,0.2-0.1C402.5,250.3,400.8,250.9,399,251.3z M396.2,245.2C396.2,245.2,396.2,245.2,396.2,245.2
	c-1.3,0.8-2.9,1.3-4.4,1.3c0.6,0,1.3,0.1,1.9,0.1l0,0c1.8,0.1,3.5,0.1,5.3,0.1v-4C398.2,243.7,397.2,244.6,396.2,245.2L396.2,245.2z
	 M415.4,242.5c-0.2-0.2-0.3-0.3-0.5-0.5c-0.3-0.3-0.5-0.5-0.7-0.8c-0.1-0.1-0.2-0.3-0.4-0.4l-0.2-0.3l0,0c-0.1-0.1-0.2-0.2-0.3-0.3
	c0,0,0,0-0.1-0.1c0,0,0-0.1-0.1-0.1c-0.2-0.3-0.5-0.7-0.7-1.1h0c0.2,0.4,0.4,0.7,0.7,1.1c0.1,0.1,0.1,0.1,0.2,0.2
	c0.2,0.4,0.5,0.7,0.8,1c0.1,0.1,0.2,0.2,0.3,0.3c0.1,0.1,0.2,0.3,0.4,0.4c0,0.1,0.1,0.1,0.2,0.2
	C415.1,242.3,415.2,242.4,415.4,242.5l0.2,0.2c0.3,0.3,0.6,0.5,0.9,0.7l0.1,0C416.1,243.2,415.7,242.9,415.4,242.5L415.4,242.5z
	 M399,251.3l-2,0.5c-1.4,0.3-2.7,0.8-3.8,1.7l0.3-0.2c0.1,0,0.2-0.1,0.2-0.1c0.1-0.1,0.2-0.1,0.4-0.2s0.3-0.1,0.5-0.2l0.4-0.1
	c0.1,0,0.2-0.1,0.4-0.1c0.1,0,0.3-0.1,0.4-0.1l0.4-0.1l0.7-0.2c0.7-0.2,1.4-0.3,2.1-0.5c0,0,0.1,0,0.1,0l0.6-0.2
	c0.1,0,0.2,0,0.2-0.1c0.2,0,0.4-0.1,0.6-0.1l0.6-0.2c0.2-0.1,0.5-0.2,0.7-0.3l0.3-0.1c0.1,0,0.2-0.1,0.3-0.1c0.1,0,0.1-0.1,0.2-0.1
	c0.3-0.1,0.6-0.3,0.9-0.4c0.1-0.1,0.3-0.2,0.4-0.2l0.4-0.3c0.1,0,0.1-0.1,0.2-0.1C402.5,250.3,400.8,250.9,399,251.3z M396.2,245.2
	C396.2,245.2,396.2,245.2,396.2,245.2c-1.3,0.8-2.9,1.3-4.4,1.3c0.6,0,1.3,0.1,1.9,0.1l0,0c1.8,0.1,3.5,0.1,5.3,0.1v-4
	C398.2,243.7,397.2,244.6,396.2,245.2L396.2,245.2z M415.4,242.5c-0.2-0.2-0.3-0.3-0.5-0.5c-0.3-0.3-0.5-0.5-0.7-0.8
	c-0.1-0.1-0.2-0.3-0.4-0.4l-0.2-0.3l0,0c-0.1-0.1-0.2-0.2-0.3-0.3c0,0,0,0-0.1-0.1c0,0,0-0.1-0.1-0.1c-0.2-0.3-0.5-0.7-0.7-1.1h0
	c0.2,0.4,0.4,0.7,0.7,1.1c0.1,0.1,0.1,0.1,0.2,0.2c0.2,0.4,0.5,0.7,0.8,1c0.1,0.1,0.2,0.2,0.3,0.3c0.1,0.1,0.2,0.3,0.4,0.4
	c0,0.1,0.1,0.1,0.2,0.2C415.1,242.3,415.2,242.4,415.4,242.5l0.2,0.2c0.3,0.3,0.6,0.5,0.9,0.7l0.1,0
	C416.1,243.2,415.7,242.9,415.4,242.5L415.4,242.5z M399,251.3l-2,0.5c-1.4,0.3-2.7,0.8-3.8,1.7l0.3-0.2c0.1,0,0.2-0.1,0.2-0.1
	c0.1-0.1,0.2-0.1,0.4-0.2s0.3-0.1,0.5-0.2l0.4-0.1c0.1,0,0.2-0.1,0.4-0.1c0.1,0,0.3-0.1,0.4-0.1l0.4-0.1l0.7-0.2
	c0.7-0.2,1.4-0.3,2.1-0.5c0,0,0.1,0,0.1,0l0.6-0.2c0.1,0,0.2,0,0.2-0.1c0.2,0,0.4-0.1,0.6-0.1l0.6-0.2c0.2-0.1,0.5-0.2,0.7-0.3
	l0.3-0.1c0.1,0,0.2-0.1,0.3-0.1c0.1,0,0.1-0.1,0.2-0.1c0.3-0.1,0.6-0.3,0.9-0.4c0.1-0.1,0.3-0.2,0.4-0.2l0.4-0.3
	c0.1,0,0.1-0.1,0.2-0.1C402.5,250.3,400.8,250.9,399,251.3z M396.2,245.2C396.2,245.2,396.2,245.2,396.2,245.2
	c-1.3,0.8-2.9,1.3-4.4,1.3c0.6,0,1.3,0.1,1.9,0.1l0,0c1.8,0.1,3.5,0.1,5.3,0.1v-4C398.2,243.7,397.2,244.6,396.2,245.2L396.2,245.2z
	 M415.4,242.5c-0.2-0.2-0.3-0.3-0.5-0.5c-0.3-0.3-0.5-0.5-0.7-0.8c-0.1-0.1-0.2-0.3-0.4-0.4c-0.1-0.1-0.1-0.2-0.2-0.3l0,0
	c-0.1-0.1-0.2-0.2-0.3-0.3c0,0,0,0-0.1-0.1l-0.1-0.1c-0.2-0.3-0.5-0.7-0.7-1.1h0c0.2,0.4,0.4,0.7,0.7,1.1c0.1,0.1,0.1,0.1,0.2,0.2
	c0.2,0.4,0.5,0.7,0.8,1c0.1,0.1,0.2,0.2,0.3,0.3c0.1,0.1,0.2,0.3,0.4,0.4c0,0.1,0.1,0.1,0.2,0.2
	C415.1,242.3,415.2,242.4,415.4,242.5l0.2,0.2c0.3,0.3,0.6,0.5,0.9,0.7l0.1,0C416.1,243.2,415.7,242.9,415.4,242.5L415.4,242.5z
	 M396.9,251.8c-1.4,0.3-2.7,0.8-3.8,1.7l0.3-0.2c0.1,0,0.2-0.1,0.2-0.1c0.1-0.1,0.2-0.1,0.4-0.2c0.1,0,0.3-0.1,0.5-0.2l0.4-0.1
	c0.1,0,0.2-0.1,0.4-0.1c0.1,0,0.3-0.1,0.4-0.1l0.4-0.1l0.7-0.2c0.7-0.2,1.4-0.3,2.1-0.5c0,0,0.1,0,0.1,0l0.6-0.2
	c0.1,0,0.2,0,0.2-0.1c0.2,0,0.4-0.1,0.6-0.1l0.6-0.2c0.2-0.1,0.5-0.2,0.7-0.3l0.3-0.1c0.1,0,0.2-0.1,0.3-0.1c0.1,0,0.1-0.1,0.2-0.1
	c0.3-0.1,0.6-0.3,0.9-0.4c0.1-0.1,0.3-0.2,0.4-0.2l0.4-0.3c0.1,0,0.1-0.1,0.2-0.1c-1.6,0.9-3.4,1.5-5.2,1.9L396.9,251.8z
	 M393.7,246.7c1.8,0.1,3.5,0.1,5.3,0.1v-4c-0.8,1-1.7,1.8-2.8,2.5c0,0,0,0,0,0c-1.3,0.8-2.8,1.3-4.4,1.3
	C392.4,246.6,393,246.7,393.7,246.7L393.7,246.7z M532.8,404.4c-0.3-1.3-1-2.4-2-3.3c-2.7-2.5-7.4-2.7-8.8-6
	c-0.5-1.2-0.4-2.6-0.3-3.9c0.4-5.4,0.9-10.8,1.3-16.2c0.2-1.5,0.2-3.1,0-4.6c-0.4-2-1.5-3.9-2.6-5.7c-1.4-2.6-2.7-5.3-3.7-8.1
	c-0.2-0.6-0.4-1.2-0.7-1.9c-1.7-5.4-2.7-10.9-2.8-16.6c-0.1-3.3,0.1-6.5,0.6-9.7c1-1.1,1.7-2.2,2.7-3.3c0.3-0.3,0.6-0.6,0.9-1
	c0.4-0.5,0.8-1,1.2-1.5c0.9-1.3,1.5-2.7,1.3-4.3c-0.2-1.1-0.6-2.1-1.3-3c-1.2-1.7-2.9-3.1-3.5-5.1c-0.3-1.1-0.4-2.2-0.2-3.3
	c0-0.3,0.1-0.6,0.1-0.8c0.6-3.4,2.2-6.9,1.1-10.2c-0.3-0.9-0.8-1.8-1.2-2.7c0-0.1,0-0.1-0.1-0.2c-1.8-5.1,1.5-10.6,1.4-16.1
	c0-0.4,0-0.7-0.1-1.1c-0.1-0.7-0.4-1.3-1-1.8c-0.6-0.4-1.3-0.7-2.1-0.8l-2.5-0.5c-0.4-0.1-0.7-0.1-1.1-0.1c-0.3,0.1-0.6,0.2-0.8,0.4
	c-0.3-3.7-0.8-7.5-1.6-11.2c-1-4.7-2.5-9.2-5.1-13.2c-0.6-0.9-1.2-1.8-1.9-2.7c-0.4-0.5-0.8-0.9-1.2-1.3c-6-6.5-14.7-9.9-22.9-14
	c-1.6-0.8-3.2-1.7-4.7-2.5c-1-0.6-1.9-1.1-2.9-1.7l-0.7-0.4c5.9-5.2,13.6-8.7,18.4-14.9c0.3-0.4,0.6-0.8,0.8-1.1
	c2.5-3.7,3.8-8.1,4.6-12.5c2.3-13.3-0.5-28.2-10.4-37.4c-4.3-4-9.7-6.6-14.5-10.1c-2.7-2-5.2-4.3-7.9-6.3c-0.7-0.6-1.4-1.1-2.2-1.7
	c-4.4-3.1-9.3-5.3-14.4-6.6c-7-1.8-14.4-1.8-21.4,0c-0.5,0.1-1,0.3-1.5,0.5c0,0,0-0.1,0-0.1c-0.8,0.3-1.5,0.7-2.1,1.4l-0.1,0.1
	l-0.1,0.2l0,0c-0.6,1-1,2-1.2,3.1c-0.3,1.2-0.8,2.4-1.4,3.6l0,0c-0.1,0.2-0.2,0.4-0.3,0.6c0,0,0.1-0.1,0.1-0.1
	c-1.4,2.8-3.4,5.3-5.7,7.4l0,0c-2.2,2-4.9,3.5-7.7,4.5c-0.6,0.2-1.2,0.4-1.8,0.6c-2.9,0.9-6.1,1.6-8.4,3.1c0,0,0-0.1,0-0.1
	c-0.8,0.5-1.4,1.1-2,1.8l0,0c-0.1,0.1-0.2,0.2-0.2,0.3l0,0c-0.3,0.4-0.6,0.9-0.8,1.4c-0.4,1-0.6,2.1-0.6,3.2c0,1.6,0.4,3.2,1.1,4.7
	l0,0c0.1,0.1,0.1,0.3,0.2,0.4c-0.2,0.4-0.3,0.9-0.5,1.3c0,0,0,0,0,0.1l0,0c-1.9,6.6,1.8,14.1,0.9,21.1c-0.3,2.5-1.2,5-0.8,7.4
	c0,0.2,0.1,0.3,0.1,0.5c0,0.2,0.1,0.3,0.1,0.4c-0.2,0.4-0.5,0.8-0.7,1.2c-1.5,2.8-2.5,5.8-3,8.9c-0.2,1.4-0.3,2.9-0.4,4.4l0,0
	c-0.1,1.4-0.4,2.9-0.9,4.2c-0.1,0.4-0.3,0.8-0.5,1.1c-0.2,0.3-0.3,0.7-0.5,1c-0.7,1.3-1.6,2.6-2.2,3.9c-1.1,2.4-1.5,5-2.1,7.6
	c-0.7,2.9-1.6,5.8-2.7,8.6c-0.5,1.4-1.4,3.1-2.2,4.7c-0.1,0-0.3,0-0.4,0c-1.2-0.1-2.4-0.2-3.7-0.3c0,0.2,0.1,0.4,0.1,0.6
	c0.1,1.6-0.5,3.3-1.6,4.5c-0.4,0.5-0.9,1-1.5,1.4c0,0,0,0,0,0c-0.9,0.7-1.9,1.3-2.9,1.7c-1.4,0.6-3,1.2-4,2.3l0,0
	c-0.2,0.2-0.3,0.4-0.4,0.6c-2.3,3.4,1.6,8.3-0.3,12c-0.6,1.1-1.6,1.9-2.6,2.8c0,0,0,0-0.1,0c-0.8,0.6-1.5,1.4-2,2.3
	c-1.5,3,0.8,6.7-0.1,9.9c-0.6,2-2.4,3.5-3.2,5.5c-0.7,1.7-0.7,3.5-0.6,5.3c0.1,2.3,0.1,4.7,1.2,6.8c1,1.9,2.8,3.2,4.5,4.3
	c0.4,0.3,0.9,0.6,1.3,0.8c-0.4,0-0.7,0.1-1.1,0.2c-2.1,0.4-4.1,1.2-5.8,2.4h0l-0.1,0.1l-0.4,0.3c-3.8,3.2-5.1,8.3-7.5,12.6
	c-0.7,1.3-1.6,2.6-2.5,3.9c-0.8,1.1-1.6,2.2-2.4,3.3c-5.2,7.3-9.9,14.9-14.1,22.7c0,0.1-0.1,0.2-0.1,0.2c-3.4,6.2-6.6,12.5-9.8,18.9
	c-0.7,1.2-1.2,2.6-1.5,4c-0.1,1,0,2.1-0.4,3c-0.4,0.8-0.9,1.5-1.5,2.2c-0.8,1.1-1.5,2.3-2.1,3.5l-4.2,7.8c-1.7,3.1-3.4,6.7-3.7,10.1
	c-0.2,1.4,0,2.7,0.3,4c0.1,0.5,0.3,1,0.6,1.4c0.1,0.3,0.3,0.6,0.6,0.8c0.2,0.1,0.4,0.1,0.7,0l0,0c0.4-0.2,0.7-0.4,0.9-0.8
	c0.1-0.2,0.2-0.4,0.3-0.6l0,0c0,0.2-0.1,0.5-0.1,0.7l0,0c0,0.2-0.1,0.4-0.1,0.6l0,0c-0.1,0.9-0.2,1.8-0.3,2.6
	c-0.2,1.5-0.4,3-0.8,4.4c-0.1,0-0.2,0-0.3,0l0,0c-4.9-0.5-9.7-1.2-14.5-2.1c-0.5-0.1-1-0.2-1.5-0.3c-0.4-0.1-0.7-0.1-1.1-0.2
	c-0.2,0-0.4-0.1-0.6-0.1h2.4H286l-1.3-0.2c-7.1-0.8-14.2-0.6-21.2,0.7c-1.1,0.2-2.3,0.5-3.3,0.9c-0.9,0.4-1.6,1-2.4,1.6
	c-0.2,0.2-0.4,0.4-0.6,0.6c-0.2,0.2-0.5,0.4-0.7,0.6c-1.2,1.1-2.3,2.3-3.3,3.6l0,0c3.5,2.5,7,5,10.5,7.3l0.4,0.3
	c0.5,0.3,0.9,0.6,1.4,0.9c0.1,0.1,0.2,0.1,0.3,0.2c1.4,0.9,2.8,1.8,4.1,2.7c3.1,2,6.2,3.8,9.4,5.7c3.8,2.2,7.7,4.3,11.6,6.4l2.1,1.1
	c2.7,1.4,5.3,2.7,8,3.9c5.8,2.8,11.7,5.3,17.7,7.7h0.1c2.6-0.4,5.2-0.8,7.8-1.2c0.4-0.1,0.8-0.1,1.2-0.2c0.4-0.1,0.8-0.2,1.1-0.4
	c0.2-0.1,0.3-0.2,0.5-0.3c1.1-0.9,1.6-2.3,2.1-3.6c0.3-0.8,0.5-1.7,0.7-2.6c0-0.3,0.1-0.6,0-0.9c0-0.3-0.1-0.7-0.1-1
	c0.9-0.4,1.9-0.8,2.8-1.2c1.3-0.7,2.7-1.4,4.1-2c1.3-0.5,2.7-0.8,4.1-0.9h0.1c1.3-0.1,2.6-0.2,3.9-0.3h0.6l0.8,0h0.6l0,0
	c0.6,0.5,1.1,1,1.7,1.5c0.8,0.9,1.4,2.1,2.4,2.9c0.7,0.5,1.5,0.8,2.3,1c2.7,0.8,5.6,1.6,8.3,1.5l0,0c1.6,0,3.1-0.4,4.5-1.2
	c1.5-0.9,2.8-2.2,4.4-2.6c1.3-0.3,3-0.1,3.5-1.3c0.1-0.5,0.2-0.9,0.3-1.4c0.4-1.1,1.6-1.5,2.8-1.7h0c0.3,0,0.7-0.1,1-0.1
	c5.2-0.1,10.5-0.2,15.8-0.6c0.3,0,0.6,0,0.8-0.1c1.1-0.1,2.2-0.2,3.3-0.3c7.8-0.9,15.7-1.9,23.3-4l0,0l0.2,0l0.6-0.2h0.1
	c3.6,2.1,7.3,4.1,11.3,5.3c6,1.8,12.4,1.7,18.7,1.3l7.2-0.4l0,0l0.8,0h0.4c3.7,2,7.7,3.3,11.9,3.9c2.4,0.3,4.7,0.4,7.1,0.3h0
	c6.6-0.2,13.3-1.5,19.8-2.9c3.4-0.7,6.9-1.5,9.5-3.7c1.9-1.7,3.2-3.9,4.4-6.1c2-3.7,4.1-7.5,6.1-11.2l0,0l0.8-1.5
	c0.2,0.3,0.3,0.6,0.5,0.8l0.6,1c0.9-0.9,1.8-1.9,2.7-3c1.8-2.1,3.3-4.5,4.6-6.9C532.5,411.4,533.6,407.5,532.8,404.4L532.8,404.4z
	 M372.7,313.2c3.3-0.4,6.5-1.1,9.7-2.1c0.5-0.1,0.9-0.3,1.4-0.4l14.7-4.4l0.5-0.1l0.5-0.1c0,0,0,0.1,0.1,0.1l0,0.1
	c0.9,1.8,1.6,3.6,2.1,5.5c3.2,10.5,4.9,21.3,5.2,32.2c0,0.5,0,1-0.1,1.5c0,0.1-0.1,0.3-0.1,0.4c0,0-0.1-0.1-0.1-0.1l0,0.1l-0.3-0.3
	c-0.1-0.1-0.2-0.2-0.3-0.3c-2.2-2.4-4.5-4.7-6.9-6.9c-2.9-2.8-6-5.6-9-8.4c-2.7-2.5-5.1-5.3-7.7-7.9c-2.9-3.1-5.9-6.1-9.3-8.3l0,0
	L372.7,313.2z M395.9,231.9c0.3-0.4,0.6-0.9,0.9-1.3c0.2-0.3,0.4-0.5,0.6-0.7l1.6,0.5l3.2,1l0.8,0.2h0.1c0,0.2,0,0.4,0,0.7
	c-0.1,1.6-0.4,3.1-0.8,4.6c-0.6,2.2-1.7,4.2-3.1,5.9c-0.8,1-1.7,1.8-2.8,2.5c0,0,0,0,0,0c-1.3,0.8-2.8,1.3-4.4,1.3
	c0.6,0,1.3,0.1,1.9,0.1l0,0c1.8,0.1,3.5,0.1,5.3,0.1c3.4-0.1,6.8-0.4,10.2-1.1c2.2-0.4,4.4-1,6.5-1.8c0.3-0.1,0.6-0.2,0.8-0.3l0.1,0
	l0.3-0.1c0,0,0.1,0,0.1,0.1c0.5,0.4,0.9,0.8,1.5,1.2l-0.1,0.1l-0.1,0l-0.1,0.1c-0.4-0.1-0.8-0.1-1.2,0c-0.4,0-0.7,0.1-1,0.3
	c-1.3,0.5-2.5,1.3-3.9,1.6c-1.4,0.3-2.8,0-4.1,0.4c-0.6,0.2-1.1,0.5-1.6,0.9l0,0c-0.4,0.3-0.9,0.7-1.3,1c-0.2,0.2-0.4,0.3-0.7,0.4
	l0,0c-1.6,0.9-3.4,1.5-5.2,1.9l-2,0.5c-1.4,0.3-2.7,0.8-3.8,1.7c-0.6,0.5-1,1.1-1.2,1.9c-0.1,0.3-0.1,0.5-0.1,0.8l0,0
	c-0.1-0.5-0.1-1,0-1.5l0,0c0.1-0.7-0.1-1.4-0.4-2c-0.5-0.6-1.3-1-2-1.1l-0.9-0.2C390.9,244.8,392.3,237.9,395.9,231.9z M374.9,412.3
	l-6.6,2.3c-0.7,0.3-1.5,0.5-2.3,0.6l0,0c-1.7,0.3-3.3,0.2-4.3-1.1c-0.3-0.4-0.5-0.8-0.8-1.2c-1-1.5-3.2-2-4.9-1.5l0,0
	c-0.8,0.2-1.5,0.8-2,1.5c-1,1.4-1.2,3.5-2.7,4.3c-0.3,0.1-0.6,0.2-0.9,0.3h0c-0.3,0-0.6,0.1-0.8,0.1c-0.8,0.1-1.7,0.2-2.5,0.4h0
	c-0.9,0.2-1.8,0.7-2.5,1.3c-1.2,1.1-1.7,2.8-1.7,4.5h-0.1h-0.1l-0.4,0.1c-0.3,0.1-0.7,0.2-1,0.2l-0.6,0.1c-0.6,0.2-1.2,0.3-1.8,0.5
	l0,0l0.1-0.2c0.2-0.3,0.3-0.7,0.3-1c-0.1-0.8-1-1.2-1.8-1.5c-1.7-0.5-3.4-0.9-5.1-1.3c2-1.6,3.9-3.3,5.6-5.1
	c1.2-1.2,2.4-2.6,2.3-4.3c-0.1-1-0.5-1.9-1-2.8c-0.6-1-1.3-2.1-1.4-3.2c0-0.3,0-0.6,0-0.8c0.1-0.9,0.4-1.8,0.9-2.6
	c2.3-4.7,5.5-9,9.4-12.5c3.7-3.3,7.9-6,11-9.8c3.4-4.2,5.3-9.5,5.1-15c0-0.4,0-0.9-0.1-1.3c9.4,12.9,16.1,27.8,24.7,41.2l0.3,0.5
	c0,0.1,0.1,0.1,0.1,0.2c0.2,0.3,0.4,0.6,0.6,0.9l0.1,0.2l-0.7,0.3l0,0c-2.1,1-4.4,2-6.6,2.8C380.3,410.4,377.6,411.3,374.9,412.3z
	 M396.2,245.3C396.2,245.3,396.2,245.3,396.2,245.3c-1.3,0.8-2.9,1.3-4.4,1.3c0.6,0,1.3,0.1,1.9,0.1l0,0c1.8,0.1,3.5,0.1,5.3,0.1v-4
	C398.1,243.7,397.2,244.6,396.2,245.3L396.2,245.3z M398.9,251.3l-2,0.5c-1.4,0.3-2.7,0.8-3.8,1.7l0.3-0.2c0.1,0,0.2-0.1,0.2-0.1
	c0.1-0.1,0.2-0.1,0.4-0.2c0.1,0,0.3-0.1,0.5-0.2l0.4-0.1c0.1,0,0.2-0.1,0.4-0.1c0.1,0,0.3-0.1,0.4-0.1l0.4-0.1l0.7-0.2
	c0.7-0.2,1.4-0.3,2.1-0.5c0,0,0.1,0,0.1,0l0.6-0.2c0.1,0,0.2,0,0.2-0.1c0.2,0,0.4-0.1,0.6-0.1l0.6-0.2c0.2-0.1,0.5-0.2,0.7-0.3
	l0.3-0.1c0.1,0,0.2-0.1,0.3-0.1c0.1,0,0.1-0.1,0.2-0.1c0.3-0.1,0.6-0.3,0.9-0.4c0.1-0.1,0.3-0.2,0.4-0.2l0.4-0.3
	c0.1,0,0.1-0.1,0.2-0.1C402.5,250.3,400.8,251,398.9,251.3L398.9,251.3z M415.3,242.6c-0.2-0.2-0.3-0.3-0.5-0.5
	c-0.3-0.3-0.5-0.5-0.7-0.8c-0.1-0.1-0.2-0.3-0.4-0.4l-0.2-0.3l0,0c-0.1-0.1-0.2-0.2-0.3-0.3c0,0,0,0-0.1-0.1c0,0,0-0.1-0.1-0.1
	c-0.2-0.3-0.5-0.7-0.7-1.1h0c0.2,0.4,0.4,0.7,0.7,1.1c0.1,0.1,0.1,0.1,0.2,0.2c0.2,0.4,0.5,0.7,0.8,1c0.1,0.1,0.2,0.2,0.3,0.3
	c0.1,0.1,0.2,0.3,0.4,0.4c0,0.1,0.1,0.1,0.2,0.2C415,242.4,415.1,242.5,415.3,242.6l0.2,0.2c0.3,0.3,0.6,0.5,0.9,0.7l0.1,0
	C416.1,243.2,415.7,242.9,415.3,242.6L415.3,242.6z M396.1,245.3C396.1,245.3,396.1,245.3,396.1,245.3c-1.3,0.8-2.9,1.3-4.4,1.3
	c0.6,0,1.3,0.1,1.9,0.1l0,0c1.8,0.1,3.5,0.1,5.3,0.1v-4C398.1,243.8,397.2,244.6,396.1,245.3L396.1,245.3z M398.9,251.4l-2,0.5
	c-1.4,0.3-2.7,0.8-3.8,1.7l0.3-0.2c0.1,0,0.2-0.1,0.2-0.1c0.1-0.1,0.2-0.1,0.4-0.2c0.1,0,0.3-0.1,0.5-0.2l0.4-0.1
	c0.1,0,0.2-0.1,0.4-0.1c0.1,0,0.3-0.1,0.4-0.1l0.4-0.1l0.7-0.2c0.7-0.2,1.4-0.3,2.1-0.5c0,0,0.1,0,0.1,0l0.6-0.2
	c0.1,0,0.2,0,0.2-0.1c0.2,0,0.4-0.1,0.6-0.1l0.6-0.2c0.2-0.1,0.5-0.2,0.7-0.3l0.3-0.1c0.1,0,0.2-0.1,0.3-0.1c0.1,0,0.1-0.1,0.2-0.1
	c0.3-0.1,0.6-0.3,0.9-0.4c0.1-0.1,0.3-0.2,0.4-0.2l0.4-0.3c0.1,0,0.1-0.1,0.2-0.1C402.5,250.3,400.8,251,398.9,251.4L398.9,251.4z
	 M415.3,242.6c-0.2-0.2-0.3-0.3-0.5-0.5c-0.3-0.3-0.5-0.5-0.7-0.8c-0.1-0.1-0.2-0.3-0.4-0.4l-0.2-0.3l0,0c-0.1-0.1-0.2-0.2-0.3-0.3
	c0,0,0,0-0.1-0.1c0,0,0-0.1-0.1-0.1c-0.2-0.3-0.5-0.7-0.7-1.1h0c0.2,0.4,0.4,0.7,0.7,1.1c0.1,0.1,0.1,0.1,0.2,0.2
	c0.2,0.4,0.5,0.7,0.8,1c0.1,0.1,0.2,0.2,0.3,0.3c0.1,0.1,0.2,0.3,0.4,0.4c0,0.1,0.1,0.1,0.2,0.2C415,242.4,415.1,242.5,415.3,242.6
	l0.2,0.2c0.3,0.3,0.6,0.5,0.9,0.7l0.1,0C416.1,243.2,415.7,242.9,415.3,242.6L415.3,242.6z M396.1,245.3
	C396.1,245.3,396.1,245.3,396.1,245.3c-1.3,0.8-2.9,1.3-4.4,1.3c0.6,0,1.3,0.1,1.9,0.1l0,0c1.8,0.1,3.5,0.1,5.3,0.1v-4
	C398.1,243.8,397.2,244.6,396.1,245.3L396.1,245.3z M398.9,251.4l-2,0.5c-1.4,0.3-2.7,0.8-3.8,1.7l0.3-0.2c0.1,0,0.2-0.1,0.2-0.1
	c0.1-0.1,0.2-0.1,0.4-0.2s0.3-0.1,0.5-0.2l0.4-0.1c0.1,0,0.2-0.1,0.4-0.1s0.3-0.1,0.4-0.1l0.4-0.1l0.7-0.2c0.7-0.2,1.4-0.3,2.1-0.5
	c0,0,0.1,0,0.1,0l0.6-0.2c0.1,0,0.2,0,0.2-0.1c0.2,0,0.4-0.1,0.6-0.1l0.6-0.2c0.2-0.1,0.5-0.2,0.7-0.3l0.3-0.1
	c0.1,0,0.2-0.1,0.3-0.1c0.1,0,0.1-0.1,0.2-0.1c0.3-0.1,0.6-0.3,0.9-0.4c0.1-0.1,0.3-0.2,0.4-0.2l0.4-0.3c0.1,0,0.1-0.1,0.2-0.1
	C402.5,250.4,400.8,251,398.9,251.4L398.9,251.4z M415.3,242.6c-0.2-0.2-0.3-0.3-0.5-0.5c-0.3-0.3-0.5-0.5-0.7-0.8
	c-0.1-0.1-0.2-0.3-0.4-0.4l-0.2-0.3l0,0c-0.1-0.1-0.2-0.2-0.3-0.3c0,0,0,0-0.1-0.1c0,0,0-0.1-0.1-0.1c-0.2-0.3-0.5-0.7-0.7-1.1h0
	c0.2,0.4,0.4,0.7,0.7,1.1c0.1,0.1,0.1,0.1,0.2,0.2c0.2,0.4,0.5,0.7,0.8,1c0.1,0.1,0.2,0.2,0.3,0.3c0.1,0.1,0.2,0.3,0.4,0.4
	c0,0.1,0.1,0.1,0.2,0.2C415,242.4,415.1,242.5,415.3,242.6l0.2,0.2c0.3,0.3,0.6,0.5,0.9,0.7l0.1,0
	C416.1,243.2,415.7,242.9,415.3,242.6L415.3,242.6z M396.1,245.3C396.1,245.3,396.1,245.3,396.1,245.3c-1.3,0.8-2.9,1.3-4.4,1.3
	c0.6,0,1.3,0.1,1.9,0.1l0,0c1.8,0.1,3.5,0.1,5.3,0.1v-4C398.1,243.8,397.2,244.6,396.1,245.3L396.1,245.3z M398.9,251.4l-2,0.5
	c-1.4,0.3-2.7,0.8-3.8,1.7l0.3-0.2c0.1,0,0.2-0.1,0.2-0.1c0.1-0.1,0.2-0.1,0.4-0.2c0.1,0,0.3-0.1,0.5-0.2l0.4-0.1
	c0.1,0,0.2-0.1,0.4-0.1c0.1,0,0.3-0.1,0.4-0.1l0.4-0.1l0.7-0.2c0.7-0.2,1.4-0.3,2.1-0.5c0,0,0.1,0,0.1,0l0.6-0.2
	c0.1,0,0.2,0,0.2-0.1c0.2,0,0.4-0.1,0.6-0.1l0.6-0.2c0.2-0.1,0.5-0.2,0.7-0.3l0.3-0.1c0.1,0,0.2-0.1,0.3-0.1c0.1,0,0.1-0.1,0.2-0.1
	c0.3-0.1,0.6-0.3,0.9-0.4c0.1-0.1,0.3-0.2,0.4-0.2l0.4-0.3c0.1,0,0.1-0.1,0.2-0.1c-1.6,0.8-3.3,1.4-5.1,1.8L398.9,251.4z
	 M415.3,242.7c-0.2-0.2-0.3-0.3-0.5-0.5c-0.3-0.3-0.5-0.5-0.7-0.8c-0.1-0.1-0.2-0.3-0.4-0.4l-0.2-0.3l0,0c-0.1-0.1-0.2-0.2-0.3-0.3
	c0,0,0,0-0.1-0.1c0,0,0-0.1-0.1-0.1c-0.2-0.3-0.5-0.7-0.7-1.1h0c0.2,0.4,0.4,0.7,0.7,1.1c0.1,0.1,0.1,0.1,0.2,0.2
	c0.2,0.4,0.5,0.7,0.8,1c0.1,0.1,0.2,0.2,0.3,0.3c0.1,0.1,0.2,0.3,0.4,0.4c0,0.1,0.1,0.1,0.2,0.2
	C414.9,242.4,415.1,242.6,415.3,242.7l0.2,0.2c0.3,0.3,0.6,0.5,0.9,0.7l0.1,0c-0.3-0.4-0.7-0.7-1-1.1L415.3,242.7z"/>
<path class="st16" d="M387.4,172.2c-3.4,7,1.1,15.3,0.2,23c-0.3,2.5-1.2,4.9-0.8,7.4c0.7,4.5,5,7.3,8.1,10.5
	c6.3,6.5,8.6,15.8,6.2,24.4c-1.5,5.1-5.9,10.3-11.1,9.6c6.1,0.6,12.2,0.3,18.2-0.8c5.4-1,11.1-3,14-7.7c3.3-5.3,1.9-12,1-18.1
	c-1.7-11.4-1.3-23,1-34.2c0.5-2.5,1.1-5,0.9-7.5c-0.2-2.5-1.7-5.1-4-6c-2.5-1-5.4,0.1-8-0.8c-4.8-1.6-6-6.7-11.5-6.9
	C396.6,164.9,389.7,167.6,387.4,172.2z"/>
<path class="st17" d="M387.4,172.2c-3.4,7,1.1,15.3,0.2,23c-0.3,2.5-1.2,4.9-0.8,7.4c0.7,4.5,5,7.3,8.1,10.5
	c6.3,6.5,8.6,15.8,6.2,24.4c-1.5,5.1-5.9,10.3-11.1,9.6c6.1,0.6,12.2,0.3,18.2-0.8c5.4-1,11.1-3,14-7.7c3.3-5.3,1.9-12,1-18.1
	c-1.7-11.4-1.3-23,1-34.2c0.5-2.5,1.1-5,0.9-7.5c-0.2-2.5-1.7-5.1-4-6c-2.5-1-5.4,0.1-8-0.8c-4.8-1.6-6-6.7-11.5-6.9
	C396.6,164.9,389.7,167.6,387.4,172.2z"/>
<path class="st18" d="M376.8,235.8c0.6-2.6,1-5.2,2.1-7.6c0.9-2.1,2.4-3.9,3.2-6c1-2.7,0.9-5.7,1.3-8.6c1-6.7,4.4-12.7,9.6-17
	c5.2-4.2,11.6-6.7,18.3-7.1c2.9,1.9,4,5.7,3.9,9.1c-0.1,3.5-1.3,6.8-2,10.1c-0.6,2.6-0.9,5.2-1.7,7.7c-1.6,4.5-4.9,8.2-9.2,10.3
	c-1.4,0.7-3,1.2-4.2,2.2c-1.2,1-2.2,2.2-2.9,3.5c-4.6,7.8-5.7,17.2-10.2,25c-0.2,0.4-0.5,0.8-0.9,1.1c-0.4,0.2-0.9,0.3-1.4,0.3
	c-3.4,0.2-12.1-1.9-11.6-6.5c0.3-2.6,2.3-5.7,3.2-8.1C375.2,241.6,376,238.7,376.8,235.8z"/>
<path class="st19" d="M416,193.9L416,193.9c0.2,0.1,0.3,0.3,0.3,0.4l-1.6,5.1c-0.1,0.2-0.2,0.3-0.4,0.2l-0.1,0
	c-0.2-0.1-0.3-0.2-0.2-0.4l1.6-5.1C415.6,193.9,415.8,193.8,416,193.9z"/>
<path class="st19" d="M394.2,184.1L394.2,184.1c0.1,0,0.2,0.1,0.2,0.3l-0.5,1.5c0,0.1-0.1,0.2-0.2,0.1l0,0c-0.1,0-0.2-0.1-0.1-0.2
	l0.5-1.5C394,184.1,394.1,184.1,394.2,184.1z"/>
<path class="st19" d="M393.1,187.6L393.1,187.6c0.1,0,0.2,0.2,0.2,0.3l-0.9,2.9c0,0.1-0.2,0.2-0.3,0.1l0,0c-0.1,0-0.2-0.2-0.1-0.3
	l0.9-2.9C392.9,187.6,393,187.6,393.1,187.6z"/>
<path class="st19" d="M391.7,192.1L391.7,192.1c0.1,0,0.2,0.2,0.2,0.3l-0.9,3c0,0.1-0.1,0.2-0.3,0.1l0,0c-0.1,0-0.2-0.1-0.1-0.3
	l0.9-3C391.5,192.1,391.6,192,391.7,192.1z"/>
<path class="st19" d="M398.9,178.7l18.2,5.8c1.5,0.5,2.3,2,1.8,3.5l-13.6,42.5c-0.5,1.5-2,2.3-3.5,1.8l-18.2-5.8
	c-1.5-0.5-2.3-2-1.8-3.5l13.6-42.5C395.9,179,397.5,178.2,398.9,178.7z"/>
<path class="st20" d="M405.6,182.4l2.7,0.8c0.2,0.1,0.3,0.2,0.2,0.4l0,0c-0.1,0.2-0.2,0.3-0.4,0.2l-2.7-0.8
	c-0.2-0.1-0.3-0.2-0.2-0.4l0,0C405.3,182.4,405.5,182.3,405.6,182.4z"/>
<circle class="st20" cx="409.4" cy="183.9" r="0.4"/>
<path class="st6" d="M416.1,185.5l-2.7-0.9l-0.1,0.3c-0.3,0.9-1.2,1.3-2,1l-8.6-2.8c-0.8-0.3-1.3-1.2-1-2l0.1-0.3l-2.5-0.8
	c-1-0.3-2.1,0.2-2.5,1.3c0,0,0,0,0,0l-13.3,41.6c-0.3,1,0.2,2.1,1.3,2.5l16.9,5.4c1,0.3,2.1-0.2,2.5-1.3c0,0,0,0,0,0l13.3-41.6
	C417.7,186.9,417.1,185.8,416.1,185.5z"/>
<rect x="420.3" y="366" class="st6" width="30.7" height="26.3"/>
<rect x="476.6" y="376.9" class="st6" width="24.3" height="26.2"/>
<path class="st18" d="M354.3,440.7c-0.2,0.9-0.6,1.7-1.3,2.4c-0.8,0.7-1.9,0.8-2.9,0.9c-1,0.1-2,0.1-3,0.2c-2.9,0.1-5.9,0.2-8.6,1.2
	c-1.4,0.6-2.7,1.2-4.1,2c-6,3-12.6,4.2-19.3,3.6c-0.9-6.4-4.4-12.2-6.1-18.5c-0.7-2.7-1.1-5.7-0.1-8.3c0.1-0.3,0.3-0.6,0.6-0.8
	c0.4-0.2,0.8-0.3,1.2-0.3c2.5,0.1,4.9,1,7.3,1.7c6.3,1.7,12.9,1.2,19.3,0.2c0.8-0.1,1.9-0.5,3.1-0.8c1.9-0.5,4-1,5.4-0.4
	c1,0.5,1.9,1.8,2.8,2.5c1.1,0.9,2.3,1.8,3.6,2.5c0.5,0.3,1,0.6,1.4,1.1c0.4,0.5,0.6,1.1,0.8,1.7
	C355.2,434.6,355.2,437.7,354.3,440.7z"/>
<path class="st16" d="M338.8,423.5c0,0.4-0.1,0.7-0.3,1c0,0.1-0.1,0.1-0.1,0.2c-1.4,1.9-4.1,2.5-6.4,2.9l-8.6,1.5l0,0
	c-0.4,0-0.8,0.2-1.1,0.4c-0.3,0.3-0.5,0.7-0.6,1.2c0,0,0,0,0,0c-0.5,2.1-0.9,4.2-1.4,6.4l0,0c-0.3,1.3-0.6,2.7-0.9,4
	c-0.6,2.5-1.4,5.3-3.7,6.3c-0.3,0.1-0.6,0.2-1,0.3c-0.9,0.1-1.8,0.1-2.8,0l-20.8-1.7c-3.9-2-7.8-4.2-11.6-6.4
	c-3.2-1.8-6.3-3.7-9.4-5.7c-1.4-0.9-2.8-1.8-4.1-2.7c-0.1-0.1-0.2-0.1-0.3-0.2c-0.5-0.3-0.9-0.6-1.4-0.9l-0.4-0.3
	c-3.6-2.4-7.1-4.8-10.5-7.3c1-1.2,2.1-2.4,3.2-3.5c0.3-0.3,0.6-0.6,0.8-0.8s0.4-0.4,0.6-0.6c0.6-0.6,1.4-1,2.1-1.4
	c1.1-0.5,2.2-0.8,3.3-0.9c7.1-1.3,14.3-1.6,21.4-0.7h0.1c0.3,0,0.6,0.1,1,0.1h-2.4c0.8,0.2,1.5,0.3,2.2,0.5c0.5,0.1,1,0.2,1.5,0.3
	c4.7,0.9,9.4,1.6,14.1,2.1c2.6,0.3,5.2,0.4,7.9,0.6c3,0.1,6.1,0.2,9.1,0.4c3,0.2,6,0.6,8.9,1.1h0.1l0.9,0.2c1.3,0.2,2.5,0.5,3.8,0.8
	c1.7,0.4,3.4,0.8,5,1.3C337.8,422.3,338.7,422.7,338.8,423.5z"/>
<path class="st17" d="M338.8,423.5c0,0.4-0.1,0.7-0.3,1c0,0.1-0.1,0.1-0.1,0.2c-1.4,1.9-4.1,2.5-6.4,2.9l-8.6,1.5l0,0
	c-0.4,0-0.8,0.2-1.1,0.4c-0.3,0.3-0.5,0.7-0.6,1.2c0,0,0,0,0,0c-0.5,2.1-0.9,4.2-1.4,6.4l0,0c-0.3,1.3-0.6,2.7-0.9,4
	c-0.6,2.5-1.4,5.3-3.7,6.3c-0.3,0.1-0.6,0.2-1,0.3c-0.9,0.1-1.8,0.1-2.8,0l-20.8-1.7c-3.9-2-7.8-4.2-11.6-6.4
	c-3.2-1.8-6.3-3.7-9.4-5.7c-1.4-0.9-2.8-1.8-4.1-2.7c-0.1-0.1-0.2-0.1-0.3-0.2c-0.5-0.3-0.9-0.6-1.4-0.9l-0.4-0.3
	c-3.6-2.4-7.1-4.8-10.5-7.3c1-1.2,2.1-2.4,3.2-3.5c0.3-0.3,0.6-0.6,0.8-0.8s0.4-0.4,0.6-0.6c0.6-0.6,1.4-1,2.1-1.4
	c1.1-0.5,2.2-0.8,3.3-0.9c7.1-1.3,14.3-1.6,21.4-0.7h0.1c0.3,0,0.6,0.1,1,0.1h-2.4c0.8,0.2,1.5,0.3,2.2,0.5c0.5,0.1,1,0.2,1.5,0.3
	c4.7,0.9,9.4,1.6,14.1,2.1c2.6,0.3,5.2,0.4,7.9,0.6c3,0.1,6.1,0.2,9.1,0.4c3,0.2,6,0.6,8.9,1.1h0.1l0.9,0.2c1.3,0.2,2.5,0.5,3.8,0.8
	c1.7,0.4,3.4,0.8,5,1.3C337.8,422.3,338.7,422.7,338.8,423.5z"/>
<path class="st18" d="M333.1,407.8c0,2.2-0.3,4.3-1.1,6.3c-1,2.6-2.9,4.6-4.7,6.7l-0.5,0.6c-1.9,2.3-3.7,5-3.6,8
	c0,2.2,1,4.4,0.6,6.6c-9.1,3.1-18.9,3.2-28.1,0.3c-1.9-0.6-3.9-1.5-4.7-3.3c3.4-2,6.2-4.9,7.9-8.5c1.7-3.5,2.8-7.3,3.2-11.3
	c0.1-0.9,0.2-1.8,0.3-2.6l0,0c0.1-1.2,0.3-2.3,0.6-3.5c1.5-6.9,5.1-13.8,12.5-15.6c0.9-0.3,1.9-0.4,2.8-0.3c2.1,0.1,4,1.2,5.8,2.3
	c3.3,2,6.9,4.3,8.3,7.9C333.2,403.5,333.2,405.7,333.1,407.8z"/>
<path class="st18" d="M507.2,280.3c-0.4,0.7-0.8,1.3-1.4,1.8c-7.1,7.5-14.7,15.1-24.5,18.5c-5.1,1.8-10.6,2.3-16,2.8
	c-7.8,0.7-15.9,1.4-23.3-1.1c-10.7-3.6-18.2-13-23.8-22.8c-4.6-7.9-8.3-17.1-6.5-26.1c0.4-2.1,1.2-4,2.5-5.7c0.9-1,1.9-1.9,3.1-2.6
	c3.2-1.9,7.3-2.8,10.2-5.3c-0.6-3.5-1.7-6.9-3.4-10.1c-0.3-0.7-0.7-1.3-1.1-1.9c-1.1-1.8-2.4-3.6-3.9-5.2c-0.2-0.2-0.4-0.4-0.7-0.7
	c-1.3-1.2-2.9-2.3-3.9-3.7c2.7-2.4,6.8-3.9,9.9-5.7l8.2-4.6l1.9-1.1c2.9-1.7,5.9-3.3,9.2-4.1c1-0.2,2.1-0.4,2.9,0.2
	c0.5,0.5,0.9,1.1,1.1,1.8c0.7,2.2,1.3,4.5,1.7,6.8c0.9,3.8,1.9,7.5,5,9.7c2.1,1.5,4.7,2,7.1,2.9c1.9,0.8,3.7,1.7,5.4,2.8
	c1,0.6,1.9,1.2,2.9,1.7c9.8,5.7,21.5,9,28.6,17.8c6.8,8.4,8,19.9,8.9,30.7C507.6,278.2,507.5,279.3,507.2,280.3z"/>
<path class="st7" d="M457.4,191.8c0,16.6-12.6,30.4-29.1,31.9c-1,0.1-2,0.1-3,0.1c-17.7,0-32.1-14.4-32.1-32.1
	c0-17.7,14.4-32.1,32.1-32.1C443,159.7,457.3,174.1,457.4,191.8L457.4,191.8z"/>
<path class="st18" d="M457.4,190.8c0,16.6-12.6,30.4-29.1,31.9c-1,0.1-2,0.1-3,0.1c-17.7,0-32.1-14.4-32.1-32.1s14.4-32.1,32.1-32.1
	C443,158.8,457.3,173.1,457.4,190.8L457.4,190.8z"/>
<path class="st7" d="M427.5,294.8c6.1-2.1,10.5-7.4,11.4-13.8c0.4,3.9,0.9,7.7,1.5,11.5c0.2,1.9,0.7,3.7,1.4,5.4
	c1.9,4,6,6.4,10.4,6.3L427.5,294.8z"/>
<path class="st6" d="M443.8,290.7c-7-6.4-13.1-13.6-18.2-21.6c-1-1.6-2-3.3-2.8-5c-2.2-5.1-2.4-10.8-3.6-16.2
	c-0.1-0.6-0.3-1.1-0.6-1.6c-0.8-1.1-2.5-1.1-3.8-0.6s-2.5,1.3-3.8,1.6c-1.4,0.3-2.8,0-4,0.4c-1.1,0.4-1.9,1.2-2.9,1.9
	c-2.3,1.6-5.2,2.1-7.9,2.8c-2.1,0.5-4.5,1.4-5,3.5c-0.3,1.2,0.1,2.5,0.4,3.7c1.9,6.8,1.1,14.1,0.8,21.1c-0.4,7.1-0.2,14.5,3.3,20.7
	c0.9,1.7,2.1,3.2,3,5c0.9,1.8,1.6,3.6,2.1,5.5c3.1,10.4,4.9,21.2,5.2,32.1c0,1.4-0.4,3.4-1.8,3.5c0.4,3.4,3.2,5.8,5.9,7.8
	s5.8,3.7,7.7,6.5c1.6,2.4,2.3,5.3,3.7,7.8c2.8,4.8,8.2,7.5,13.6,8.5c5.4,1.1,11,0.8,16.5,1.2c9.8,0.7,19.3,3.5,28.6,6.8
	c7.2,2.6,14.5,5.6,20.6,10.2c9.4,7.2,15.5,17.7,21.4,28c2.9-2.9,5.3-6.2,7.2-9.8c2.3-4.3,3.5-10.2,0-13.5c-2.7-2.5-7.4-2.7-8.8-6
	c-0.5-1.2-0.4-2.6-0.3-3.9l1.3-16.2c0.2-1.5,0.2-3.1-0.1-4.6c-0.4-2-1.5-3.9-2.5-5.7c-6.1-11-8.4-23.7-6.5-36.1
	c1-1.1,1.7-2.1,2.7-3.3c1.8-1.9,3.6-4.2,3.3-6.7c-0.4-3.1-3.8-5-4.8-8.1c-0.4-1.4-0.4-2.8-0.1-4.2c0.6-3.4,2.2-6.9,1.1-10.2
	c-0.3-0.9-0.8-1.8-1.2-2.7c-1.9-5.1,1.4-10.7,1.3-16.2c0-1.1-0.2-2.2-1.1-2.9c-0.6-0.4-1.3-0.7-2.1-0.8l-2.5-0.5
	c-0.4-0.1-0.7-0.1-1.1-0.1c-0.4,0.1-0.8,0.3-1.1,0.7c-2.5,2.5-2.4,7.4-5.7,8.8c-1.7,0.7-3.7,0.1-5.5-0.3c-5.8-1.3-12,0-17.6,1.9
	c-5.6,1.9-11,4.6-16.8,6.2C455.5,292,448.2,294.7,443.8,290.7z"/>
<path class="st6" d="M382.9,311.1c-5,1.5-10.2,3-15.5,2.6c-4.6-0.4-9-2.4-12.9-4.9c-1.8-1.2-3.5-2.5-4.5-4.3c-1.1-2-1.2-4.4-1.2-6.7
	c0-1.8-0.1-3.6,0.6-5.3c0.8-2,2.6-3.5,3.2-5.5c0.9-3.2-1.4-6.9,0.1-9.9c1-2,3.5-3,4.6-5.1c1.8-3.7-2-8.5,0.2-11.9
	c1-1.5,2.8-2.1,4.4-2.8c1.7-0.7,3.2-1.8,4.4-3.2c1.2-1.4,1.8-3.3,1.5-5.1c7,0.4,13.9,1.5,20.6,3.3c0.8,0.1,1.5,0.5,2,1.1
	c0.7,1,0.3,2.3,0.5,3.5c0.3,1.2,0.9,2.2,1.9,2.9c2,1.9,4.4,3.2,6.2,5.3c2.3,2.8,3,6.5,3.6,10.1l1.5,8.6c0.5,2.8,0.9,5.7,1.2,8.6
	c0.1,1.4,0.1,2.9-0.2,4.3c-0.5,2.4-1.1,4.8-2,7.1c-0.8,2-2.3,2.1-4.3,2.7L382.9,311.1z"/>
<path class="st7" d="M389.4,291.4c0.2,3.6,0.4,7.3-0.9,10.7c-1.2,2.9-3.4,5.2-6.1,6.5c4.3-3.8,5.3-10,6-15.7
	c0.3-1.5,0.3-3.1,0.2-4.6c-0.1-0.6-2.5-8.3,0-7.1C389.6,281.6,389.3,290.1,389.4,291.4z"/>
<path class="st7" d="M333.1,407.8c0,2.2-0.3,4.3-1.1,6.3c-1,2.6-2.9,4.6-4.7,6.7c-0.3-2.8-0.9-5.6-1.8-8.3c-1.4-3.9-4-7.6-7.7-9.5
	c-3.7-1.9-8.7-1.7-11.6,1.3c-1.7,1.7-2.6,3.9-3.6,6.1c0,0.1-0.1,0.2-0.1,0.2c0.1-1.2,0.3-2.3,0.6-3.5c1.5-6.9,5.1-13.8,12.5-15.6
	c0.9-0.3,1.9-0.4,2.8-0.3c2.1,0.1,4,1.2,5.8,2.3c3.3,2,6.9,4.3,8.3,7.9C333.2,403.5,333.2,405.7,333.1,407.8z"/>
<path class="st16" d="M475.5,441.6c-2.6,1.7-5.9,1.9-9,2.1l-4,0.2c-2.7,0.1-5.3,0.3-8,0.4c-6.6,0.3-13.5,0.6-19.8-1.3
	c-4-1.2-7.6-3.2-11.2-5.3l-1.5-0.9c-2.3-1.4-4.6-2.8-6.8-4.3c-4.4-2.9-8.5-6.1-12.3-9.7c-5.5-5.2-10.1-11.2-14.2-17.6
	c-8.7-13.5-15.5-28.7-25-41.8c0.5,5.9-1.3,11.7-5,16.3c-3.1,3.8-7.4,6.5-11,9.8c-3.9,3.5-7.1,7.8-9.4,12.5c-0.6,1.1-1,2.2-0.9,3.4
	c0.2,2.2,2.4,3.8,2.4,6c0.1,1.7-1.1,3.1-2.3,4.3c-3,3-6.3,5.8-9.8,8.2c-0.4-4.1-0.9-8.3-2.3-12.3c-1.4-3.9-4-7.6-7.7-9.5
	c-3.7-1.9-8.7-1.7-11.6,1.3c-1.7,1.7-2.6,3.9-3.6,6.1c-0.4,0.8-1.1,1.7-1.9,1.3c-0.3-0.2-0.5-0.4-0.6-0.8
	c-2.4-4.9,0.2-10.7,2.8-15.5c1.4-2.6,2.8-5.2,4.2-7.8c0.6-1.2,1.3-2.4,2.1-3.5c0.6-0.7,1.1-1.4,1.5-2.2c0.4-1,0.3-2,0.4-3
	c0.3-1.4,0.8-2.7,1.5-4c7.2-14.3,14.5-28.7,23.9-41.7c1.7-2.3,3.4-4.6,4.8-7.1c2.4-4.3,3.7-9.4,7.5-12.6c4.8-4.1,12.1-3.7,18.1-1.6
	c9.5,3.3,15.2,12.3,22.6,19.2c8.9,8.3,17.8,16.6,25.2,26.2c6.1,7.9,11.2,16.7,18.6,23.2c1.4,1.3,3,2.5,4.6,3.6
	c14.2,9.4,26.6,20.3,36.3,34.3c1.8,2.5,3.4,5.2,4.7,8c0.5,1.3,1,2.7,1.2,4.1C480.6,434,479.2,439.1,475.5,441.6z"/>
<path class="st17" d="M475.5,441.6c-2.6,1.7-5.9,1.9-9,2.1l-4,0.2c-2.7,0.1-5.3,0.3-8,0.4c-6.6,0.3-13.5,0.6-19.8-1.3
	c-4-1.2-7.6-3.2-11.2-5.3l-1.5-0.9c-2.3-1.4-4.6-2.8-6.8-4.3c0.5-9.8,15.1-17.7,33.1-17.7c13.4,0,25,4.4,30.2,10.6
	c0.5,1.3,1,2.7,1.2,4.1C480.6,434,479.2,439.1,475.5,441.6z"/>
<path class="st7" d="M466.3,319.9c-1,2.3-2.8,4.3-3.3,6.8c-0.5,2.5,1.2,5.7,3.7,5.4c0.2,0,0.4,0,0.6,0c0.1,0.1,0.2,0.3,0.2,0.5
	c0.6,3.3-2.8,6-3.2,9.2c-0.2,1.7,0.3,3.3,0.4,5c0.3,4.1-1.9,8.1-4.4,11.4c-8.3,10.9-20.5,18.1-32.8,24.2c14.2,8.6,30.8,12,47.1,15.2
	c0.8,0.3,1.8,0.3,2.6,0c1.2-0.5,1.7-2,1.7-3.3s-0.3-2.6-0.2-3.9c0.3-2.6,2.4-4.6,4.6-6c2.2-1.4,4.7-2.4,6.5-4.3
	c1.9-2,2.9-4.8,3.8-7.4c2.1-6,4.2-12.1,7.7-17.4c1.9-2.9,4.4-5.6,5.5-8.9c1.2-3.3,1.1-6.9,0.7-10.4c-0.4-2.9-0.9-5.8-2.5-8.3
	c-1.3-2-3.1-3.6-4.2-5.7c-2.8-5.4-0.1-12.5-3.1-17.8c-1.8-3.1-5.2-4.9-8.5-6.3c-3.1-1.4-6.4-2.6-9.8-2.9c-3.1-0.3-5.7,0.5-8.6,1.5
	c-2.5,0.9-2.8,2.4-3.1,5.1C467,307.7,468.9,314.2,466.3,319.9z"/>
<path class="st7" d="M468.8,321.4c-1,2.3-2.8,4.3-3.3,6.8c-0.5,2.5,1.2,5.7,3.7,5.4c0.2,0,0.4,0,0.6,0c0.1,0.1,0.2,0.3,0.2,0.5
	c0.6,3.3-2.8,6-3.2,9.2c-0.2,1.7,0.3,3.3,0.4,5c0.3,4.1-1.9,8.1-4.4,11.4c-8.3,10.9-20.5,18.1-32.8,24.2c14.2,8.6,30.8,12,47.1,15.2
	c0.8,0.3,1.8,0.3,2.6,0c1.2-0.6,1.7-2,1.7-3.3c0-1.3-0.3-2.6-0.2-3.9c0.3-2.6,2.4-4.6,4.6-6c2.2-1.4,4.7-2.5,6.5-4.3
	c2-2,2.9-4.8,3.8-7.4c2.1-6,4.2-12.1,7.7-17.4c1.9-2.9,4.4-5.6,5.5-8.9s1.1-6.9,0.7-10.4c-0.4-2.9-0.9-5.8-2.5-8.3
	c-1.3-2-3.1-3.6-4.2-5.7c-2.8-5.4-9.4,9.1-12.4,3.8c-1.8-3.1,4.1-26.5,0.8-27.9c-3.1-1.4-6.4-2.6-9.8-2.9c-3.1-0.3-5.7,0.5-8.6,1.5
	c-2.5,0.9-2.8,2.4-3.1,5.1C469.5,309.1,471.4,315.6,468.8,321.4z"/>
<path class="st6" d="M467.3,319.9c-1,2.3-2.8,4.3-3.3,6.8c-0.5,2.5,1.2,5.7,3.7,5.4c0.2,0,0.4,0,0.6,0c0.1,0.1,0.2,0.3,0.2,0.5
	c0.6,3.3-2.8,6-3.2,9.2c-0.2,1.7,0.3,3.3,0.4,5c0.3,4.1-1.9,8.1-4.4,11.4c-8.3,10.9-20.5,18.1-32.8,24.2c14.2,8.6,30.8,12,47.1,15.2
	c0.8,0.3,1.8,0.3,2.6,0c1.2-0.5,1.7-2,1.7-3.3s-0.3-2.6-0.2-3.9c0.3-2.6,2.4-4.6,4.6-6c2.2-1.4,4.7-2.4,6.5-4.3c2-2,2.9-4.8,3.8-7.4
	c2.1-6,4.2-12.1,7.7-17.4c2-2.9,4.4-5.6,5.6-8.9c1.2-3.3,1.1-6.9,0.7-10.4c-0.4-2.9-0.9-5.8-2.5-8.3c-1.3-2-3.1-3.6-4.2-5.7
	c-2.8-5.4-0.1-12.5-3.1-17.8c-1.8-3.1-5.2-4.9-8.5-6.3c-3.1-1.4-6.4-2.6-9.8-2.9c-3.1-0.3-5.7,0.5-8.6,1.5c-2.5,0.9-2.8,2.4-3.1,5.1
	C468,307.7,469.9,314.2,467.3,319.9z"/>
<path class="st16" d="M331.8,448.5c-0.2-1-0.7-1.9-1.3-2.8c-1.2-1.8-2.9-3.5-3.7-5.6c-0.7-1.9-0.7-4-1.3-6c-0.4-1.1-1-2.1-2-2.8
	c-0.5-0.4-1.2-0.7-1.9-0.7c-0.2,0-0.4,0-0.6,0.1c-1.4,0.3-2.3,1.6-3.3,2.5c-1,0.9-2.3,1.6-3.6,2c-1.5-0.2-2.9-0.6-4.3-1l0,0
	c-4.1-1.2-7.9-3.2-11.3-5.9c-0.4-0.3-0.9-0.7-1.3-1c-0.7-0.5-1.6-0.8-2.5-0.7c-0.7,0.2-1.4,0.6-2,1.1c-1.6,1.3-3.2,2.6-4.8,3.9
	c-2.2,1.7-4.3,3.6-6.3,5.6c-0.7,0.7-1.4,1.5-2.2,2.3c3.8,2.2,7.7,4.3,11.6,6.4l2.1,1.1c2.7,1.4,5.3,2.7,8,3.9
	c5.8,2.8,11.7,5.3,17.7,7.7c2.5-0.4,5-0.8,7.5-1.2c0.8-0.1,1.6-0.3,2.3-0.7c1.4-0.8,2-2.4,2.6-3.9c0.4-1.1,0.7-2.3,0.7-3.5
	C331.9,449.2,331.8,448.9,331.8,448.5z M313.5,435.4c-1,0.2-1.9,0.2-2.9,0L313.5,435.4z"/>
<path class="st7" d="M475.5,441.6c-2.6,1.7-5.9,1.9-9,2.1l-4,0.2c-5.1-2.4-9.4-6.2-11.7-11.3c-1.3-2.8-2.2-6.3-5-7.6
	c-0.3-0.2-0.7-0.3-1.1-0.3c-0.8,0-1.5,0.6-2.1,1.2c-5.8,5.3-13.1,8.7-20.6,10.9c-6.8-4-13.4-8.5-19.1-13.9
	c-5.5-5.2-10.1-11.2-14.2-17.6c2.7-1.3,5.2-2.6,8.1-3.7c9.6-3.9,18.1-10,26.1-16.6c2-1.7,4.2-3.4,6.7-3.5c0.5,0,1.1,0,1.6-0.1
	c0.8-0.3,1.5-0.9,1.9-1.7c1.4,1.3,3,2.5,4.6,3.6c14.2,9.4,26.6,20.3,36.3,34.3c2.6,3.7,5.1,7.6,5.9,12.1
	C480.6,434,479.2,439.1,475.5,441.6z"/>
<path class="st7" d="M354.3,440.7c-0.2,0.9-0.6,1.7-1.3,2.4c-0.8,0.7-1.9,0.8-2.9,0.9c-1,0.1-2,0.1-3,0.2c-0.4-0.3-0.8-0.7-1.2-1.1
	c-1.2-1.4-1.8-3.2-2.4-5c-1.3-4-2.6-8.1-3-12.3c0-0.5-0.1-1.1-0.1-1.6c1.9-0.5,4-1,5.4-0.4c1,0.5,1.9,1.8,2.8,2.5
	c1.1,0.9,2.3,1.8,3.6,2.5c0.5,0.3,1,0.6,1.4,1.1c0.4,0.5,0.6,1.1,0.8,1.7C355.2,434.5,355.2,437.7,354.3,440.7z"/>
<path class="st16" d="M522.3,420.1l-8.3,15.2c-1.2,2.2-2.5,4.5-4.4,6.1c-2.6,2.2-6.1,3-9.4,3.7c-8.8,1.9-17.9,3.7-26.8,2.6
	c-8.9-1.2-17.9-6-21.7-14.2c-1.3-2.8-2.2-6.3-5-7.6c-0.3-0.2-0.7-0.3-1.1-0.3c-0.8,0-1.5,0.6-2.1,1.2c-5.8,5.4-13.2,8.8-20.8,10.9
	s-15.5,3.1-23.3,4c-6.5,0.8-13.3,0.8-19.8,0.9c-1.5,0-3.3,0.3-3.8,1.7c-0.1,0.5-0.2,0.9-0.3,1.4c-0.6,1.2-2.2,1-3.5,1.3
	c-1.7,0.4-2.9,1.7-4.4,2.6c-3.8,2.2-8.5,1-12.7-0.3c-0.8-0.2-1.6-0.5-2.3-1c-1-0.7-1.5-1.9-2.3-2.9c-0.8-0.9-1.9-1.7-2.8-2.6
	c-1.2-1.4-1.8-3.2-2.4-5c-1.3-4-2.6-8.1-3-12.3c-0.2-2.3,0-4.9,1.7-6.4c1.3-1.2,3.2-1.6,5.1-1.7c0.6,0,1.2-0.1,1.8-0.3
	c1.5-0.7,1.7-2.8,2.7-4.2c1.5-2.2,5.4-2.2,6.9,0c0.3,0.4,0.5,0.8,0.8,1.2c1.5,1.8,4.4,1.2,6.6,0.4l6.6-2.3c4.9-1.7,9.8-3.5,14.5-5.7
	c3.1-1.5,5.8-2.9,9-4.2c9.6-3.9,18.1-10,26.1-16.6c2-1.7,4.2-3.4,6.7-3.5c0.5,0,1.1,0,1.6-0.1c2.3-0.6,2.4-4.2,4.4-5.6
	c2.4-1.6,5.6,0.9,8.4,0.1c9.5-3,21-2.7,28.2,4.2c3.1,3,5.5,7.1,9.5,8.8c2.8,1.2,6,1,9.1,0.7c1.7-0.3,3.5-0.3,5.2-0.2
	c4.7,0.6,8.4,4.2,11.4,7.8C513.9,404.8,518.7,412.2,522.3,420.1z"/>
<path class="st7" d="M331.9,449.5c0,1.2-0.3,2.4-0.7,3.5c-0.6,1.5-1.2,3.1-2.6,3.9c-0.7,0.4-1.5,0.6-2.3,0.7c-2.5,0.4-5,0.8-7.5,1.2
	c-6-2.4-11.9-4.9-17.7-7.7c1.7-0.3,3.3-0.6,5-0.8c2.9-0.4,5.9-0.6,8.8-0.9c1.5-0.2,2.9-0.4,4.3-0.7c3.7-0.9,7.3-2.4,11.1-2.8h0.1
	c0.6,0.8,1,1.8,1.3,2.8C331.8,448.8,331.9,449.2,331.9,449.5z"/>
<path class="st7" d="M475.5,282.1c0.1,0.5,0.1,1.1-0.1,1.7c-0.2,0.5-0.7,0.9-1.3,0.9c0.7,0.1,0.5-5.3,0.4-5.9
	C475.2,279.7,475.4,281,475.5,282.1z"/>
<path class="st7" d="M467,227.1c-1.9,1.5-3.6,3.3-5.1,5.3c-4.6,6.3-6.3,15.5-13.5,18.7c-4,1.8-8.6,1.1-12.9,0.4
	c-6.3-1.1-13.3-2.6-18.3-6.2c-2.3-1.6-4.2-3.8-5.4-6.3c2.7,0.3,5.2-1.4,7.2-3.3c1.9-1.7,3.5-3.7,5-5.7c1.6-2.3,3-4.6,4.1-7.1
	c2.1-4.5,3.6-9.3,4.4-14.2c0-0.1,0-0.2,0.1-0.3c1.7-10,1.1-20.3,0.2-30.4c-6.4,13.9-26.7,12.7-38.5,4.3c4.8-17,22.6-26.9,39.6-22.1
	c17,4.8,26.9,22.6,22.1,39.6c-1.3,4.5-3.5,8.7-6.6,12.2c0.9,3.8,1.9,7.5,5,9.7c2.1,1.5,4.7,2,7.1,2.9
	C463.5,225.1,465.3,226,467,227.1z"/>
<path class="st21" d="M432.9,176.8c0.9,10.2,1.5,20.6-0.3,30.7c-1.8,10.1-6,20.1-13.5,27.1c-2,1.9-4.5,3.6-7.2,3.3
	c4,8.4,14.6,10.9,23.7,12.5c4.3,0.7,8.9,1.4,12.9-0.4c7.1-3.2,8.9-12.4,13.5-18.7c6.1-8.5,17.7-11.9,23.6-20.6
	c2.5-3.7,3.8-8.1,4.6-12.5c2.3-13.3-0.5-28.2-10.4-37.3c-4.3-4-9.7-6.6-14.4-10.1c-3.4-2.5-6.5-5.5-10-7.9
	c-10.4-7.2-23.4-9.6-35.6-6.5c-1.3,0.3-2.7,0.8-3.5,1.8c-0.9,1-1.1,2.2-1.4,3.4c-2.1,7.4-7.7,13.3-14.9,15.8
	c-4.9,1.7-11.2,2.3-13.3,7.1c-1.2,2.6-0.6,5.8,0.7,8.4C394.4,187.8,424.9,194.4,432.9,176.8z"/>
<path class="st7" d="M425,322.3c6.1-2.1,10.5-7.4,11.4-13.8c0.4,3.9,0.9,7.7,1.5,11.5c0.2,1.9,0.7,3.7,1.4,5.4c1.9,4,6,6.4,10.4,6.3
	L425,322.3z"/>
<path class="st6" d="M432.8,376.9c-7-6.4-12.4-14.2-18.6-21.2c-3.3-3.7-4.1-7.3-7.7-10.7c-0.3,0.8-3.6,1.5-4.5,1.5
	c0.5,3.5,3.8,6,7,8.1c3.2,2.1,6.9,3.9,9.1,6.8c1.9,2.5,2.7,5.5,4.4,8.1C424.7,373,428.5,375.4,432.8,376.9z"/>
<path class="st6" d="M523.2,420.5c-3.8-8.1-8.6-15.6-14.4-22.4c-3.1-3.7-6.9-7.4-11.7-8c-1.8-0.1-3.6-0.1-5.4,0.2l-1,0.1
	c3.6,1.7,7,3.7,10.2,6.1c9.1,6.9,15.2,16.8,20.9,26.7L523.2,420.5z"/>
<g class="st13">
	<path d="M418.3,136.8c-0.8,0.3-1.5,0.7-2.1,1.4c-0.8,0.9-1.1,2.2-1.4,3.4c-0.4,1.5-1,2.9-1.7,4.2
		C415.5,143.2,417.3,140.1,418.3,136.8z"/>
	<path d="M432.9,176.7c0.9,10.2,1.5,20.6-0.3,30.7c-1,6.4-3.2,12.6-6.5,18.2c5.4-6.6,8.6-14.9,10.1-23.4c1.8-10.1,1.2-20.5,0.3-30.7
		c-8.1,17.7-38.5,11-45.6-3.9c-1-2-1.6-4.4-1.2-6.6c-1.4,0.8-2.5,2-3.1,3.5c-1.2,2.6-0.6,5.8,0.7,8.4
		C394.4,187.8,424.9,194.4,432.9,176.7z"/>
	<path d="M452.1,244.8c-4,1.8-8.6,1.1-12.9,0.4c-7.9-1.3-16.8-3.4-21.7-9.3c-1.7,1.3-3.6,2.2-5.7,2c4,8.4,14.6,10.9,23.7,12.5
		c4.3,0.7,8.9,1.4,12.9-0.4c3.5-1.6,5.8-4.6,7.6-8.1C455,243.1,453.6,244.1,452.1,244.8z"/>
	<path d="M465.6,226.1c-0.7,1-1.4,2.1-2,3.2c6.4-7.1,16.5-10.7,21.9-18.6c0.5-0.8,1-1.6,1.5-2.5C480.7,214.9,471,218.5,465.6,226.1z
		"/>
</g>
</svg>
