<?xml version="1.0" encoding="utf-8"?>
<!-- Generator: Adobe Illustrator 23.1.0, SVG Export Plug-In . SVG Version: 6.00 Build 0)  -->
<svg version="1.1" id="Layer_1" xmlns="http://www.w3.org/2000/svg" xmlns:xlink="http://www.w3.org/1999/xlink" x="0px" y="0px"
	 viewBox="0 0 640 499.3" style="enable-background:new 0 0 640 499.3;" xml:space="preserve">
<style type="text/css">
	.st0{opacity:0.5;}
	.st1{fill:url(#SVGID_1_);}
	.st2{fill:#FFFFFF;}
	.st3{fill:url(#SVGID_2_);}
	.st4{fill:#FAFAFA;}
	.st5{fill:url(#SVGID_3_);}
	.st6{fill:#00A86B;}
	.st7{fill:url(#SVGID_4_);}
	.st8{fill:#E0E0E0;}
	.st9{fill:url(#SVGID_5_);}
	.st10{fill:url(#SVGID_6_);}
	.st11{fill:#0D53B8;}
	.st12{fill:url(#SVGID_7_);}
	.st13{fill:url(#SVGID_8_);}
	.st14{fill:#FFFFFF;stroke:#FFFFFF;stroke-miterlimit:10;}
	.st15{fill:none;stroke:#CFD8DC;stroke-width:2;stroke-miterlimit:10;}
	.st16{fill:none;stroke:#CFD8DC;stroke-width:2;stroke-miterlimit:10;stroke-dasharray:12,12;}
	.st17{fill:none;stroke:#CFD8DC;stroke-width:2;stroke-miterlimit:10;stroke-dasharray:11.86,11.86;}
	.st18{fill:none;stroke:#CFD8DC;stroke-width:2;stroke-miterlimit:10;stroke-dasharray:11.87,11.87;}
	.st19{fill:none;stroke:#CFD8DC;stroke-width:2;stroke-miterlimit:10;stroke-dasharray:12.73,12.73;}
	.st20{opacity:0.3;fill:#69F0AE;enable-background:new    ;}
	.st21{opacity:0.3;fill:#4D8AF0;enable-background:new    ;}
	.st22{opacity:0.3;fill:#FF5252;enable-background:new    ;}
</style>
<title>collaboration2</title>
<g class="st0">
	
		<linearGradient id="SVGID_1_" gradientUnits="userSpaceOnUse" x1="329.5175" y1="-0.47" x2="329.5175" y2="361.7508" gradientTransform="matrix(1 0 0 -1 0 498.7971)">
		<stop  offset="0" style="stop-color:#808080;stop-opacity:0.25"/>
		<stop  offset="0.54" style="stop-color:#808080;stop-opacity:0.12"/>
		<stop  offset="1" style="stop-color:#808080;stop-opacity:0.1"/>
	</linearGradient>
	<polygon class="st1" points="465.3,499.3 193.7,499.3 193.7,137 422.2,137 465.3,181.4 	"/>
</g>
<polygon class="st2" points="463.5,493.7 196.8,493.7 196.8,139.5 422.4,139.5 463.5,179.6 "/>
<g class="st0">
	
		<linearGradient id="SVGID_2_" gradientUnits="userSpaceOnUse" x1="441.9384" y1="317.3972" x2="441.9384" y2="356.8226" gradientTransform="matrix(1 0 0 -1 0 498.7971)">
		<stop  offset="0" style="stop-color:#808080;stop-opacity:0.25"/>
		<stop  offset="0.54" style="stop-color:#808080;stop-opacity:0.12"/>
		<stop  offset="1" style="stop-color:#808080;stop-opacity:0.1"/>
	</linearGradient>
	<polygon class="st3" points="420.4,181.4 420.4,142 423.9,142 463.5,181.4 	"/>
</g>
<polygon class="st4" points="422.2,179.6 422.2,139.5 463.5,179.6 "/>
<g class="st0">
	
		<linearGradient id="SVGID_3_" gradientUnits="userSpaceOnUse" x1="243.5856" y1="253.947" x2="243.5856" y2="295.8365" gradientTransform="matrix(1 0 0 -1 0 498.7971)">
		<stop  offset="0" style="stop-color:#808080;stop-opacity:0.25"/>
		<stop  offset="0.54" style="stop-color:#808080;stop-opacity:0.12"/>
		<stop  offset="1" style="stop-color:#808080;stop-opacity:0.1"/>
	</linearGradient>
	<circle class="st5" cx="243.6" cy="223.9" r="20.9"/>
</g>
<circle class="st6" cx="243.6" cy="223.9" r="19.7"/>
<g class="st0">
	
		<linearGradient id="SVGID_4_" gradientUnits="userSpaceOnUse" x1="243.5856" y1="168.936" x2="243.5856" y2="210.8255" gradientTransform="matrix(1 0 0 -1 0 498.7971)">
		<stop  offset="0" style="stop-color:#808080;stop-opacity:0.25"/>
		<stop  offset="0.54" style="stop-color:#808080;stop-opacity:0.12"/>
		<stop  offset="1" style="stop-color:#808080;stop-opacity:0.1"/>
	</linearGradient>
	<circle class="st7" cx="243.6" cy="308.9" r="20.9"/>
</g>
<circle class="st8" cx="243.6" cy="308.9" r="19.7"/>
<g class="st0">
	
		<linearGradient id="SVGID_5_" gradientUnits="userSpaceOnUse" x1="243.5856" y1="83.925" x2="243.5856" y2="125.8145" gradientTransform="matrix(1 0 0 -1 0 498.7971)">
		<stop  offset="0" style="stop-color:#808080;stop-opacity:0.25"/>
		<stop  offset="0.54" style="stop-color:#808080;stop-opacity:0.12"/>
		<stop  offset="1" style="stop-color:#808080;stop-opacity:0.1"/>
	</linearGradient>
	<circle class="st9" cx="243.6" cy="393.9" r="20.9"/>
</g>
<circle class="st8" cx="243.6" cy="393.9" r="19.7"/>
<rect x="292.3" y="216.5" class="st8" width="53" height="3.7"/>
<rect x="292.3" y="222.1" class="st8" width="87.5" height="3.7"/>
<rect x="292.3" y="227.6" class="st8" width="81.3" height="3.7"/>
<rect x="292.3" y="301.5" class="st8" width="53" height="3.7"/>
<rect x="292.3" y="307.1" class="st8" width="87.5" height="3.7"/>
<rect x="292.3" y="312.6" class="st8" width="81.3" height="3.7"/>
<rect x="292.3" y="386.5" class="st8" width="53" height="3.7"/>
<rect x="292.3" y="392.1" class="st8" width="87.5" height="3.7"/>
<rect x="292.3" y="397.6" class="st8" width="81.3" height="3.7"/>
<polygon class="st2" points="236.2,222.7 243.6,229.4 254.1,214 257.8,217.1 243.6,235.6 233.1,223.9 "/>
<polygon class="st2" points="236.2,307.1 243.6,313.8 254.1,298.4 257.8,301.5 243.6,320 233.1,308.3 "/>
<polygon class="st2" points="236.2,391.5 243.6,398.2 254.1,382.8 257.8,385.9 243.6,404.4 233.1,392.7 "/>
<g class="st0">
	
		<linearGradient id="SVGID_6_" gradientUnits="userSpaceOnUse" x1="559.9004" y1="233.5936" x2="559.9004" y2="326.9271" gradientTransform="matrix(1 0 0 -1 0 498.7971)">
		<stop  offset="0" style="stop-color:#808080;stop-opacity:0.25"/>
		<stop  offset="0.54" style="stop-color:#808080;stop-opacity:0.12"/>
		<stop  offset="1" style="stop-color:#808080;stop-opacity:0.1"/>
	</linearGradient>
	<path class="st10" d="M541.5,171.9h36.9c14,0,25.3,11.3,25.3,25.3v42.7c0,14-11.3,25.3-25.3,25.3h-36.9c-14,0-25.3-11.3-25.3-25.3
		v-42.7C516.2,183.2,527.5,171.9,541.5,171.9z"/>
</g>
<path class="st11" d="M543.7,174h31.9c14,0,25.3,11.3,25.3,25.3v37.4c0,14-11.3,25.3-25.3,25.3h-31.9c-14,0-25.3-11.3-25.3-25.3
	v-37.4C518.4,185.3,529.7,174,543.7,174z"/>
<path class="st2" d="M564.4,235.3v-3.1c10.5-2.7,16.9-13.5,14.2-24c-2.7-10.5-13.5-16.9-24-14.2s-16.9,13.5-14.2,24
	c1.8,6.9,7.2,12.4,14.2,14.2v3.1c-8.3,2.3-14.1,9.8-14.2,18.4v8.6h38.2v-8.6C578.5,245.1,572.7,237.6,564.4,235.3z"/>
<circle class="st2" cx="559.5" cy="208.8" r="20.9"/>
<path class="st2" d="M580.3,210.2c0,0-1.2,22.6,8.1,25c0,0-19.1,10.5-22.8-12.3L580.3,210.2z"/>
<path class="st2" d="M538.6,210.2c0,0,1.2,22.6-8.1,25c0,0,19.1,10.5,22.8-12.3L538.6,210.2z"/>
<g class="st0">
	
		<linearGradient id="SVGID_7_" gradientUnits="userSpaceOnUse" x1="333.2044" y1="405.4637" x2="333.2044" y2="498.7971" gradientTransform="matrix(1 0 0 -1 0 498.7971)">
		<stop  offset="0" style="stop-color:#808080;stop-opacity:0.25"/>
		<stop  offset="0.54" style="stop-color:#808080;stop-opacity:0.12"/>
		<stop  offset="1" style="stop-color:#808080;stop-opacity:0.1"/>
	</linearGradient>
	<path class="st12" d="M314.8,0h36.9c14,0,25.3,11.3,25.3,25.3V68c0,14-11.3,25.3-25.3,25.3h-36.9c-14,0-25.3-11.3-25.3-25.3V25.3
		C289.5,11.3,300.8,0,314.8,0z"/>
</g>
<path class="st11" d="M317.2,2.6h31.9c14,0,25.3,11.3,25.3,25.3v37.4c0,14-11.3,25.3-25.3,25.3h-31.9c-14,0-25.3-11.3-25.3-25.3
	V27.9C291.9,14,303.3,2.6,317.2,2.6z"/>
<path class="st2" d="M361,37.5c-0.6-5.2-1.5-10.5-3.5-15.4c-2-4.9-5.2-9.4-9.7-12.2c-1.6-1.1-3.4-1.7-5.4-1.8
	c-3.5-0.1-6.7,2.2-8.6,5.2c-0.6,1-1.1,2.1-1.6,3.2c-3.4,0.6-6,3.4-6.3,6.9c-9.8,4.2-14.3,15.5-10.2,25.3c2.3,5.5,7.1,9.6,12.9,11.1
	v3.3c-8.5,2.2-14.4,9.9-14.4,18.6v8.9h38.5v-8.9c0-8.8-6-16.4-14.4-18.6v-3.3c8.5-2.2,14.4-9.9,14.4-18.7c0,0,0-0.1,0-0.1l2.2,4.8
	c2.1,4.6,4.2,9.5,3.4,14.5C362.2,53.7,361.9,45.3,361,37.5z"/>
<g class="st0">
	
		<linearGradient id="SVGID_8_" gradientUnits="userSpaceOnUse" x1="110.8206" y1="101.1489" x2="110.8206" y2="194.4824" gradientTransform="matrix(1 0 0 -1 0 498.7971)">
		<stop  offset="0" style="stop-color:#808080;stop-opacity:0.25"/>
		<stop  offset="0.54" style="stop-color:#808080;stop-opacity:0.12"/>
		<stop  offset="1" style="stop-color:#808080;stop-opacity:0.1"/>
	</linearGradient>
	<path class="st13" d="M92.4,304.3h36.9c14,0,25.3,11.3,25.3,25.3v42.7c0,14-11.3,25.3-25.3,25.3H92.4c-14,0-25.3-11.3-25.3-25.3
		v-42.7C67.1,315.6,78.4,304.3,92.4,304.3z"/>
</g>
<path class="st11" d="M94.8,307h31.9c14,0,25.3,11.3,25.3,25.3v37.4c0,14-11.3,25.3-25.3,25.3H94.8c-14,0-25.3-11.3-25.3-25.3v-37.4
	C69.5,318.3,80.9,307,94.8,307z"/>
<path class="st14" d="M94.8,343.7c-1.2-2.4-1.8-5-1.6-7.6c0.2-2.7,1.4-5.1,3.4-6.9c2.2-1.9,5.2-2.6,8.1-2.8c2.9-0.2,5.8-0.1,8.7-0.7
	c4.8-1,8.9-3.8,11.6-7.9c0.3,2.2,0.3,4.5-0.1,6.7c-0.4,2.2-1.6,4.3-3.5,5.5c2.3-1.1,2.1,1.4,1.6,2.9c1.1,1.4,3.9,1.6,4.1,3.4
	c0.2,1.8,0,3.6-0.6,5.3c-0.7,1.6,0,4.5-1.7,4.7"/>
<path class="st2" d="M122.7,329.2c0,0,10.1,0.9,2.9,15.9"/>
<path class="st2" d="M115.3,368.4v-3.1c10.5-2.7,16.9-13.5,14.2-24c-2.7-10.5-13.5-16.9-24-14.2c-10.5,2.7-16.9,13.5-14.2,24
	c1.8,6.9,7.2,12.4,14.2,14.2v3.1c-8.3,2.3-14.1,9.8-14.2,18.4v8.6h38.2v-8.6C129.4,378.2,123.6,370.6,115.3,368.4z"/>
<line class="st15" x1="110.2" y1="278.1" x2="110.2" y2="274.4"/>
<line class="st16" x1="110.2" y1="267" x2="110.2" y2="63.7"/>
<polyline class="st15" points="110.2,60 110.2,56.3 113.9,56.3 "/>
<line class="st17" x1="121.2" y1="56.3" x2="263.6" y2="56.3"/>
<line class="st15" x1="267.3" y1="56.3" x2="271" y2="56.3"/>
<line class="st15" x1="401.6" y1="56.3" x2="405.3" y2="56.3"/>
<line class="st18" x1="412.6" y1="56.3" x2="569.8" y2="56.3"/>
<polyline class="st15" points="573.5,56.3 577.2,56.3 577.2,60 "/>
<line class="st19" x1="577.2" y1="67.9" x2="577.2" y2="142.4"/>
<line class="st15" x1="577.2" y1="146.3" x2="577.2" y2="150"/>
<rect x="1.1" y="334.1" transform="matrix(0.5 -0.866 0.866 0.5 -289.939 172.3131)" class="st20" width="6.2" height="6.2"/>
<rect x="431.7" y="27.4" transform="matrix(0.5 -0.866 0.866 0.5 191.0397 391.8342)" class="st20" width="6.2" height="6.2"/>
<rect x="135.4" y="424.7" transform="matrix(0.5 -0.866 0.866 0.5 -301.2177 333.8953)" class="st21" width="6.2" height="6.2"/>
<rect x="486" y="122.8" transform="matrix(0.5 -0.866 0.866 0.5 135.4516 486.5244)" class="st21" width="6.2" height="6.2"/>
<circle class="st20" cx="512.5" cy="411.2" r="3.7"/>
<circle class="st20" cx="161.3" cy="161.7" r="3.7"/>
<circle class="st22" cx="538.4" cy="328.6" r="3.7"/>
<path class="st22" d="M637.5,27.7L637.5,27.7c0.2,0.5,0.7,0.9,1.2,0.9l0,0c0.7,0,1.3,0.6,1.3,1.3c0,0.4-0.2,0.8-0.5,1l0,0
	c-0.4,0.3-0.6,0.9-0.5,1.4l0,0c0.2,0.7-0.1,1.4-0.8,1.6c-0.4,0.1-0.8,0.1-1.1-0.2l0,0c-0.4-0.3-1-0.3-1.5,0l0,0
	c-0.6,0.4-1.4,0.3-1.8-0.3c-0.2-0.3-0.3-0.8-0.2-1.1l0,0c0.2-0.5,0-1.1-0.5-1.4l0,0c-0.6-0.4-0.7-1.2-0.3-1.8c0.2-0.3,0.6-0.5,1-0.5
	l0,0c0.6,0,1.1-0.3,1.2-0.9l0,0c0.3-0.6,1-1,1.6-0.7C637.1,27.1,637.4,27.3,637.5,27.7z"/>
<path class="st22" d="M166.2,315.3L166.2,315.3c0.2,0.5,0.7,0.9,1.2,0.9l0,0c0.7,0,1.3,0.6,1.3,1.3c0,0.4-0.2,0.8-0.5,1l0,0
	c-0.4,0.3-0.6,0.9-0.5,1.4l0,0c0.2,0.7-0.1,1.4-0.8,1.6c-0.4,0.1-0.8,0.1-1.1-0.2l0,0c-0.4-0.3-1-0.3-1.5,0l0,0
	c-0.6,0.4-1.4,0.3-1.8-0.3c-0.2-0.3-0.3-0.8-0.2-1.1l0,0c0.2-0.5,0-1.1-0.5-1.4l0,0c-0.6-0.4-0.7-1.2-0.3-1.8c0.2-0.3,0.6-0.5,1-0.5
	l0,0c0.6,0,1.1-0.3,1.2-0.9l0,0c0.3-0.6,1-1,1.6-0.7C165.9,314.8,166.1,315,166.2,315.3z"/>
<path class="st22" d="M83.7,46.7L83.7,46.7c0.2,0.5,0.7,0.9,1.2,0.9l0,0c0.7,0,1.3,0.6,1.3,1.3c0,0.4-0.2,0.8-0.5,1l0,0
	c-0.4,0.3-0.6,0.9-0.5,1.4l0,0c0.2,0.7-0.1,1.4-0.8,1.6C84,53,83.6,53,83.3,52.7l0,0c-0.4-0.3-1-0.3-1.5,0l0,0
	c-0.6,0.4-1.4,0.3-1.8-0.3c-0.2-0.3-0.3-0.8-0.2-1.1l0,0c0.2-0.5,0-1.1-0.5-1.4l0,0c-0.6-0.4-0.7-1.2-0.3-1.8c0.2-0.3,0.6-0.5,1-0.5
	l0,0c0.6,0,1.1-0.3,1.2-0.9l0,0c0.3-0.6,1-1,1.6-0.7C83.3,46.2,83.6,46.4,83.7,46.7z"/>
<path class="st21" d="M265.4,5.5L265.4,5.5c0.2,0.5,0.7,0.9,1.2,0.9l0,0c0.7,0,1.3,0.6,1.3,1.3c0,0.4-0.2,0.8-0.5,1l0,0
	c-0.4,0.3-0.6,0.9-0.5,1.4l0,0c0.2,0.7-0.1,1.4-0.8,1.6c-0.4,0.1-0.8,0.1-1.1-0.2l0,0c-0.4-0.3-1-0.3-1.5,0l0,0
	c-0.6,0.4-1.4,0.3-1.8-0.3c-0.2-0.3-0.3-0.8-0.2-1.1l0,0c0.2-0.5,0-1.1-0.5-1.4l0,0c-0.6-0.4-0.7-1.2-0.3-1.8c0.2-0.3,0.6-0.5,1-0.5
	l0,0c0.6,0,1.1-0.3,1.2-0.9l0,0c0.3-0.6,1-1,1.6-0.7C265,4.9,265.3,5.2,265.4,5.5z"/>
<path class="st21" d="M608.5,176.7L608.5,176.7c0.2,0.5,0.7,0.9,1.2,0.9l0,0c0.7,0,1.3,0.6,1.3,1.3c0,0.4-0.2,0.8-0.5,1l0,0
	c-0.4,0.3-0.6,0.9-0.5,1.4l0,0c0.2,0.7-0.1,1.4-0.8,1.6c-0.4,0.1-0.8,0.1-1.1-0.2l0,0c-0.4-0.3-1-0.3-1.5,0l0,0
	c-0.6,0.4-1.4,0.3-1.8-0.3c-0.2-0.3-0.3-0.8-0.2-1.1l0,0c0.2-0.5,0-1.1-0.5-1.4l0,0c-0.6-0.4-0.7-1.2-0.3-1.8c0.2-0.3,0.6-0.5,1-0.5
	l0,0c0.6,0,1.1-0.3,1.2-0.9l0,0c0.3-0.6,1-1,1.6-0.7C608.2,176.2,608.4,176.4,608.5,176.7z"/>
</svg>
