<?xml version="1.0" encoding="utf-8"?>
<!-- Generator: Adobe Illustrator 23.1.0, SVG Export Plug-In . SVG Version: 6.00 Build 0)  -->
<svg version="1.1" id="ccdb08d7-40f3-45f2-8ef6-c6a673654779"
	 xmlns="http://www.w3.org/2000/svg" xmlns:xlink="http://www.w3.org/1999/xlink" x="0px" y="0px" viewBox="0 0 1167.6 862.9"
	 style="enable-background:new 0 0 1167.6 862.9;" xml:space="preserve">
<style type="text/css">
	.st0{opacity:0.1;fill:#6C63FF;enable-background:new    ;}
	.st1{opacity:0.1;fill:#0D53B8;enable-background:new    ;}
	.st2{fill:url(#SVGID_1_);}
	.st3{fill:#FFFFFF;}
	.st4{opacity:0.1;enable-background:new    ;}
	.st5{fill:#0D53B8;}
	.st6{fill:#3F3D56;}
	.st7{opacity:0.1;}
	.st8{fill:#FBBEBE;}
	.st9{fill:url(#SVGID_2_);}
	.st10{fill:#CF6F80;}
	.st11{fill:#512E4E;}
	.st12{fill:#535461;}
	.st13{fill:#9D9CB5;}
	.st14{fill:none;stroke:#535461;stroke-width:2;stroke-miterlimit:10;}
</style>
<title>doctors</title>
<path class="st0" d="M76.4,338.2h101.5v138.3H83.8c-0.2,1.4-0.5,2.9-0.8,4.3h94.8v111.5c-0.2,0-0.3-0.1-0.5-0.2
	c-2.7-1.1-5.3-2.2-8-3.4c-0.6-0.3-1.1-0.5-1.7-0.8c-2.7-1.3-5.3-2.6-8-4c-0.9-0.5-1.9-1-2.8-1.5c-14.8-8.3-28.3-18.7-39.9-31.1
	c-0.4-0.3-0.7-0.7-1-1c-1.6-1.8-3.2-3.5-4.8-5.4c-0.6-0.7-1.1-1.3-1.7-2c-1.8-2.2-3.6-4.5-5.3-6.8c-0.3-0.3-0.5-0.7-0.8-1
	c-7-9.6-12.7-20.1-17.2-31.1c-0.1-0.3-0.3-0.7-0.4-1c-1.4-3.5-2.6-7-3.7-10.7c-0.5-1.5-0.9-3-1.3-4.6c-0.1-0.5-0.2-0.9-0.4-1.4
	c-5.6-22.1-6.3-45.2-6.3-68.1c0-2.7,0-5.3,0-8c0.1-9.4,0.2-18.7,0.3-28c0.1-2.4,0.1-4.8,0.2-7.2c0.1-6.1,0.3-12.3,0.6-18.4
	c0.1-1.7,0.1-3.4,0.2-5.1c0-1,0.1-2,0.2-2.9C76,345.2,76.2,341.7,76.4,338.2z"/>
<path class="st0" d="M177.9,184.2h-55.7c9.1-14.2,18.9-27.8,29.6-40.7c8.3-10.2,17-20.1,26.1-29.6L177.9,184.2z"/>
<path class="st0" d="M177.9,188.4v145.5H76.7c0-0.4,0.1-0.9,0.1-1.3c0.1-1.1,0.2-2.3,0.3-3.4c0.1-1.3,0.2-2.7,0.4-4s0.3-2.9,0.4-4.4
	s0.3-2.9,0.4-4.4s0.3-2.9,0.5-4.3s0.3-2.9,0.5-4.3c0.2-1.2,0.3-2.4,0.5-3.6c0.2-1.7,0.5-3.4,0.7-5.1c0-0.3,0.1-0.5,0.1-0.8
	c1.8-12.3,4.3-24.5,7.4-36.5c3.3-12.6,7.5-25,12.6-37c5.4-12.6,11.7-24.8,18.9-36.4H177.9z"/>
<path class="st1" d="M202.1,338.2v138.3h216.8V338.2H202.1z M202.1,480.8v118.8c1.2,0.2,2.5,0.5,3.7,0.7c1.6,0.3,3.3,0.6,5,0.9
	l1,0.1c0.7,0.1,1.3,0.2,2,0.3c1.7,0.2,3.3,0.4,5,0.6c0.8,0.1,1.6,0.1,2.4,0.2l1.9,0.1l0,0c1.1,0.1,2.1,0.1,3.1,0.2
	c0.6,0,1.3,0,1.9,0.1s1,0,1.5,0h1.9c0.9,0,1.7,0,2.6,0h1.1c0.9,0,1.7,0,2.6-0.1h0.1c0.6,0,1.2,0,1.8-0.1c0.2,0,0.3,0,0.5,0
	c0.5,0,1,0,1.5-0.1c0.1,0,0.2,0,0.3,0c1.1-0.1,2.2-0.2,3.4-0.3s2.2-0.2,3.3-0.3l2.3-0.3c9.3-1.3,18.4-3.3,27.4-5.8
	c20.2-5.6,40-13.5,60.2-19.3c26.1-7.5,55-11.1,80.2-2v-93.7H202.1z M418.9,184.2V0c-23.7-0.3-47.4,2.5-70.4,8.2
	C293.6,22.1,244.3,52,202.1,90.2v94h10.9v4.3h-10.9v145.5h216.8V188.4H257.7v-4.3L418.9,184.2z M697.4,122
	c-13.6-0.5-27.1-4.8-39.3-11.4c-23.3-12.7-42-32.3-62.8-48.8c-43.3-34.5-97-55.3-152.1-60.4v182.9h309.4l0.8-0.8L697.4,122z
	 M725.6,117l29.9,32.8v-41.4C745.4,109.6,736.6,112.6,725.6,117L725.6,117z M755.5,629.1V480.8h-63.7c-0.2-0.6-0.3-1.3-0.5-1.9
	c0.2,0.6,0.4,1.3,0.5,1.9H443.1V588c2.4,1.8,4.7,3.6,7,5.5l0,0c2.5,2,5,4.1,7.4,6.2l2.5,2c1.2,1,2.4,2,3.6,3
	c2.4,1.9,4.8,3.9,7.3,5.8c1.2,1,2.4,1.9,3.7,2.8c19.5,14.9,40.1,28.4,61.6,40.3c4.8,2.7,9.7,5.3,14.6,7.8c3.3,1.7,6.5,3.3,9.8,4.9
	c5,2.4,10,4.8,15,7c7.6,3.4,0,0,0,0c46.5,20.9,95.6,35.2,146,42.5c11.2,1.6,22.4,2.9,33.7,3.9L755.5,629.1l0.9,0L755.5,629.1z
	 M443.1,188.4v145.5h312.3V188.4H443.1z M443.1,338.2v138.4h312.3V338.2L443.1,338.2z M779.7,108.1v46.3l38.1-41.9
	C805.2,110.5,792.5,109,779.7,108.1z M779.7,338.2v138.3h303.8V338.2H779.7z M1082.4,640.1l1.1-159.3H779.7v240.6
	c19.6,0.8,39.2,0.6,58.7-0.7l0,0h0.3c9.3-0.6,18.6-1.5,27.9-2.6h0.2c49.3-5.7,97.6-18.6,143.2-38.3 M1142.1,360.9
	c-1.2-2.7-2.3-5.3-3.6-8c-2.3-5-4.6-9.9-7.1-14.7h-23.7v138.3h59.9C1167.6,437.4,1157.6,397.4,1142.1,360.9L1142.1,360.9z
	 M1107.7,480.8v137c16.9-16.2,31.1-34.7,41.4-55.8c12.3-25.5,18-53.1,18.5-81.2L1107.7,480.8z M1107.7,297.9v36h21.5
	C1122.7,321.5,1115.5,309.5,1107.7,297.9z M901.7,135.3c-1.6-0.6-3.2-1.2-4.8-1.8c-16.8-6.2-33.9-11.3-51.3-15.4l-58.4,64.1l0,0
	l-1.1,1.2l0.8,0.8h207.8C965.7,164.3,934.5,147.8,901.7,135.3z M1000.8,188.4H784l-4.3,3.9v141.6H817l0,0l0,0h266.4v-68.6
	C1059.4,236.2,1031.6,210.3,1000.8,188.4z"/>
<path class="st0" d="M177.9,261.8v72.1H76.7c0-0.4,0.1-0.9,0.1-1.3c0.1-1.1,0.2-2.3,0.3-3.4c0.1-1.3,0.2-2.7,0.4-4s0.3-2.9,0.4-4.4
	s0.3-2.9,0.4-4.4s0.3-2.9,0.5-4.3s0.3-2.9,0.5-4.3c0.2-1.2,0.3-2.4,0.5-3.6c0.2-1.7,0.5-3.4,0.7-5.1c0-0.3,0.1-0.5,0.1-0.8
	c1.8-12.3,4.3-24.5,7.4-36.5L177.9,261.8z"/>
<path class="st0" d="M76.4,338.2h101.5v138.3H83.8c-0.2,1.4-0.5,2.9-0.8,4.3h94.8v111.5c-0.2,0-0.3-0.1-0.5-0.2
	c-2.7-1.1-5.3-2.2-8-3.4c-0.6-0.3-1.1-0.5-1.7-0.8c-2.7-1.3-5.3-2.6-8-4c-0.9-0.5-1.9-1-2.8-1.5c-14.8-8.3-28.3-18.7-39.9-31.1
	c-0.4-0.3-0.7-0.7-1-1c-1.6-1.8-3.2-3.5-4.8-5.4c-0.6-0.7-1.1-1.3-1.7-2c-1.8-2.2-3.6-4.5-5.3-6.8c-0.3-0.3-0.5-0.7-0.8-1
	c-7-9.6-12.7-20.1-17.2-31.1c-0.1-0.3-0.3-0.7-0.4-1c-1.4-3.5-2.6-7-3.7-10.7c-0.5-1.5-0.9-3-1.3-4.6c-0.1-0.5-0.2-0.9-0.4-1.4
	c-5.6-22.1-6.3-45.2-6.3-68.1c0-2.7,0-5.3,0-8c0.1-9.4,0.2-18.7,0.3-28c0.1-2.4,0.1-4.8,0.2-7.2c0.1-6.1,0.3-12.3,0.6-18.4
	c0.1-1.7,0.1-3.4,0.2-5.1c0-1,0.1-2,0.2-2.9C76,345.2,76.2,341.7,76.4,338.2z"/>
<polygon class="st0" points="278.4,209.3 278.4,333.9 202.1,333.9 202.1,209.3 213,209.3 213,167.1 257.7,167.1 257.7,209.3 "/>
<rect x="202.1" y="338.2" class="st0" width="76.3" height="138.3"/>
<path class="st0" d="M202.1,480.8h76.3v115c-9,2.6-18.2,4.5-27.4,5.8c-0.8,0.1-1.5,0.2-2.3,0.3c-1.1,0.1-2.2,0.2-3.3,0.3l-3.4,0.3
	h-0.3l-1.5,0.1h-0.5c-0.6,0-1.2,0.1-1.8,0.1h-0.1c-0.9,0-1.7,0.1-2.6,0.1h-1.1c-0.9,0-1.7,0-2.6,0h-1.9h-1.5c-0.6,0-1.3,0-1.9-0.1
	c-1,0-2.1-0.1-3.1-0.2l0,0l-1.9-0.1c-0.8-0.1-1.6-0.1-2.4-0.2c-1.7-0.1-3.3-0.3-5-0.6l-2-0.3l-1-0.1c-1.7-0.2-3.3-0.5-5-0.8
	c-1.2-0.2-2.5-0.5-3.7-0.7V480.8z"/>
<rect x="692.5" y="194.6" class="st0" width="62.9" height="139.4"/>
<polygon class="st0" points="755.5,338.2 755.5,476.5 443.1,476.5 443.1,416.9 609.5,416.9 609.5,452.1 692.5,452.1 692.5,338.2 "/>
<path class="st0" d="M756.5,629.1c-0.3,0-0.7,0-1-0.1v90.8c-11.3-0.9-22.5-2.2-33.7-3.9c-50.4-7.3-99.6-21.7-146.1-42.5
	c-13.4-6.1-26.6-12.6-39.4-19.8c-21.5-11.9-42.1-25.4-61.6-40.3c-4.9-3.8-9.8-7.6-14.5-11.5c-3.3-2.7-6.6-5.5-9.9-8.2
	c-2.3-1.9-4.6-3.7-7-5.5V480.8h248.6c-0.2-0.6-0.3-1.3-0.5-1.9c0.2,0.6,0.4,1.3,0.5,1.9h63.7v148.3
	C755.8,629.1,756.1,629.1,756.5,629.1z"/>
<path class="st0" d="M919.6,184.2h-41v-12.7h18.4v-37.9c1.6,0.6,3.2,1.2,4.8,1.8v36.1h17.9L919.6,184.2z"/>
<path class="st0" d="M1018.4,333.9H817c0,0,0,0,0.1,0H817h-37.3V194.6h10.6v103h48.3v-61h40v-48.1h41v48.2h39.9v61h58.9
	L1018.4,333.9z"/>
<path class="st0" d="M779.7,338.2v138.3h238.7V338.2H779.7z M1083.1,639.4l0.3-109.5h-65.1v-49H779.7v240.5
	c19.6,0.8,39.2,0.6,58.7-0.7l0,0h0.3c9.3-0.6,18.6-1.5,27.9-2.6h0.2c49.3-5.7,97.6-18.6,143.2-38.3"/>
<path class="st0" d="M1111.9,480.8h55.7c-0.5,28.1-6.1,55.7-18.5,81.2c-10.3,21.2-24.5,39.7-41.4,55.8v-88h4.2V480.8z"/>
<path class="st0" d="M1167.6,476.5h-55.7V360.9h30.1C1157.6,397.4,1167.6,437.4,1167.6,476.5z"/>
<rect x="721.8" y="233.3" class="st0" width="33.7" height="43.7"/>
<rect x="721.8" y="323.9" class="st0" width="33.7" height="10.1"/>
<rect x="721.8" y="338.2" class="st0" width="33.7" height="29.4"/>
<rect x="721.8" y="414.4" class="st0" width="33.7" height="43.7"/>
<rect x="721.8" y="505" class="st0" width="33.7" height="43.7"/>
<path class="st0" d="M755.5,629.1c0.3,0,0.7,0,1,0.1C756.1,629.1,755.8,629.1,755.5,629.1v10.2h-33.7v-43.7h33.7L755.5,629.1z"/>
<path class="st0" d="M755.5,686.1v33.7c-11.3-0.9-22.5-2.2-33.7-3.9v-29.8H755.5z"/>
<rect x="443.1" y="473.3" class="st0" width="144.5" height="3.2"/>
<rect x="443.1" y="480.8" class="st0" width="144.5" height="12.3"/>
<rect x="443.1" y="533.4" class="st0" width="144.5" height="19.8"/>
<path class="st0" d="M587.6,593.5v19.8h-113c-4.9-3.7-9.8-7.6-14.5-11.5c-3.3-2.7-6.6-5.5-9.9-8.2L587.6,593.5z"/>
<path class="st0" d="M587.6,653.6v19.8h-11.9c-13.4-6.1-26.6-12.6-39.4-19.8L587.6,653.6z"/>
<rect x="838.4" y="351.6" class="st0" width="28.4" height="28.4"/>
<rect x="222.6" y="219.1" class="st0" width="28.4" height="28.4"/>
<rect x="222.6" y="285.1" class="st0" width="28.4" height="28.4"/>
<rect x="222.6" y="351.2" class="st0" width="28.4" height="28.4"/>
<rect x="222.6" y="417.3" class="st0" width="28.4" height="28.4"/>
<rect x="222.6" y="483.3" class="st0" width="28.4" height="28.4"/>
<rect x="222.6" y="549.4" class="st0" width="28.4" height="28.4"/>
<rect x="947" y="351.6" class="st0" width="28.4" height="28.4"/>
<rect x="838.4" y="421.8" class="st0" width="28.4" height="28.4"/>
<rect x="947" y="421.8" class="st0" width="28.4" height="28.4"/>
<rect x="838.4" y="491.9" class="st0" width="28.4" height="28.4"/>
<rect x="947" y="491.9" class="st0" width="28.4" height="28.4"/>
<rect x="838.4" y="562" class="st0" width="28.4" height="28.4"/>
<rect x="947" y="562" class="st0" width="28.4" height="28.4"/>
<rect x="838.4" y="632.2" class="st0" width="28.4" height="28.4"/>
<rect x="947" y="632.2" class="st0" width="28.4" height="28.4"/>
<polygon class="st0" points="838.4,720.7 838.4,702.3 866.8,702.3 866.8,718.1 "/>
<path class="st0" d="M80.6,298.4v16.3h97.3v-16.3H80.6z M90.3,313.6h-8v-14.2h8V313.6z M100,313.6h-8v-14.2h8V313.6z M109.6,313.6
	h-8v-14.2h8V313.6z M119.3,313.6h-8v-14.2h8V313.6z M129,313.6h-8v-14.2h8V313.6z M138.7,313.6h-8v-14.2h8V313.6z M148.4,313.6h-8
	v-14.2h8V313.6z M158.1,313.6h-8v-14.2h8V313.6z M167.7,313.6h-8v-14.2h8V313.6z M177.4,313.6h-8v-14.2h8V313.6z"/>
<path class="st0" d="M80.6,345.7V362h97.3v-16.3H80.6z M90.3,361h-8v-14.2h8V361z M100,361h-8v-14.2h8V361z M109.6,361h-8v-14.2h8
	V361z M119.3,361h-8v-14.2h8V361z M129,361h-8v-14.2h8V361z M138.7,361h-8v-14.2h8V361z M148.4,361h-8v-14.2h8V361z M158.1,361h-8
	v-14.2h8V361z M167.7,361h-8v-14.2h8V361z M177.4,361h-8v-14.2h8V361z"/>
<path class="st0" d="M80.6,393.1v16.3h97.3v-16.3H80.6z M90.3,408.3h-8v-14.2h8V408.3z M100,408.3h-8v-14.2h8V408.3z M109.6,408.3
	h-8v-14.2h8V408.3z M119.3,408.3h-8v-14.2h8V408.3z M129,408.3h-8v-14.2h8V408.3z M138.7,408.3h-8v-14.2h8V408.3z M148.4,408.3h-8
	v-14.2h8V408.3z M158.1,408.3h-8v-14.2h8V408.3z M167.7,408.3h-8v-14.2h8V408.3z M177.4,408.3h-8v-14.2h8V408.3z"/>
<path class="st0" d="M80.6,440.4v16.3h97.3v-16.3H80.6z M90.3,455.7h-8v-14.2h8V455.7z M100,455.7h-8v-14.2h8V455.7z M109.6,455.7
	h-8v-14.2h8V455.7z M119.3,455.7h-8v-14.2h8V455.7z M129,455.7h-8v-14.2h8V455.7z M138.7,455.7h-8v-14.2h8V455.7z M148.4,455.7h-8
	v-14.2h8V455.7z M158.1,455.7h-8v-14.2h8V455.7z M167.7,455.7h-8v-14.2h8V455.7z M177.4,455.7h-8v-14.2h8V455.7z"/>
<path class="st0" d="M81.1,487.8c0.4,1.5,0.8,3.1,1.3,4.6v-3.5h8V503h-4.3c0.1,0.3,0.2,0.7,0.4,1h91.5v-16.2H81.1z M100.1,503h-8
	v-14.2h8V503z M109.7,503h-8v-14.2h8V503z M119.4,503h-8v-14.2h8V503z M129.1,503h-8v-14.2h8V503z M138.8,503h-8v-14.2h8V503z
	 M148.5,503h-8v-14.2h8V503z M158.2,503h-8v-14.2h8V503z M167.8,503h-8v-14.2h8V503z M177.5,503h-8v-14.2h8V503z"/>
<path class="st0" d="M103.6,535.1c0.3,0.3,0.5,0.7,0.8,1h5.3v6.8l1.7,2v-8.9h8v14.3h-3.3c0.3,0.3,0.6,0.7,1,1h60.8v-16.3H103.6z
	 M129.1,550.4h-8v-14.3h8V550.4z M138.7,550.4h-8v-14.3h8V550.4z M148.4,550.4h-8v-14.3h8V550.4z M158.1,550.4h-8v-14.3h8V550.4z
	 M167.8,550.4h-8v-14.3h8V550.4z M177.5,550.4h-8v-14.3h8V550.4z"/>
<path class="st0" d="M157,582.5c0.9,0.5,1.9,1,2.8,1.5v-0.5h8v4.5c0.6,0.2,1.1,0.5,1.7,0.8v-5.3h8v8.7c0.2,0.1,0.3,0.1,0.5,0.2v-9.8
	H157z"/>
<path class="st0" d="M817,333.9L817,333.9L817,333.9z M755.5,629.1L755.5,629.1h1H755.5z M691.2,478.9c0.2,0.6,0.4,1.3,0.5,1.9l0,0
	C691.6,480.2,691.4,479.5,691.2,478.9z M817,333.9L817,333.9L817,333.9z M213.1,184.2v4.3h44.7v-4.3L213.1,184.2z M755.5,629.1
	L755.5,629.1h1H755.5z M691.2,478.9c0.2,0.6,0.4,1.3,0.5,1.9l0,0C691.6,480.2,691.4,479.5,691.2,478.9z M817,333.9L817,333.9
	L817,333.9z M755.5,629.1L755.5,629.1h1H755.5z M691.2,478.9c0.2,0.6,0.4,1.3,0.5,1.9l0,0C691.6,480.2,691.4,479.5,691.2,478.9z"/>
<ellipse class="st0" cx="879.4" cy="847.2" rx="97.4" ry="15.7"/>
<ellipse class="st0" cx="440" cy="831.6" rx="97.4" ry="15.7"/>
<linearGradient id="SVGID_1_" gradientUnits="userSpaceOnUse" x1="481.4847" y1="7.8756" x2="481.4847" y2="585.5778" gradientTransform="matrix(1 0 0 -1 -15.95 843.44)">
	<stop  offset="0" style="stop-color:#808080;stop-opacity:0.25"/>
	<stop  offset="0.54" style="stop-color:#808080;stop-opacity:0.12"/>
	<stop  offset="1" style="stop-color:#808080;stop-opacity:0.1"/>
</linearGradient>
<path class="st2" d="M552.1,417.8c0-0.1-0.1-0.2-0.2-0.3c-1.5-1.5-20.5-28.3-20.5-28.3s-1-3-2.6-6.9c0.5-0.7,0.9-1.4,1.2-2.2
	c0.1-0.3,0.2-0.7,0.2-1c0-0.1,0.1-0.2,0.1-0.3c0.3-1.4,0.3-2.8-0.1-4.1c-0.1,0.3-0.2,0.7-0.4,1c-0.4-1.2-0.9-2.3-1.5-3.3
	c-2.5-4.3-6.1-8-8.8-12.2c-4-6.6-5.6-14.3-4.5-22c0,0.4,0,0.8,0,1.2c0.1-1.5,0.3-3,0.6-4.5c0.4-1.7,1-3.3,1.7-4.9
	c2.4-5.5,6.2-10.2,8.6-15.7c0.8-1.8,1.4-3.8,1.8-5.7c0.8-3.3,1.1-6.7,0.9-10c0,0.8-0.1,1.6-0.2,2.4c-0.3-8.1-3.5-15.8-9.2-21.7
	c-8.2-8.2-19.9-11.4-31.1-13.1c-4.7-0.6-9.2-2.3-13.1-5c-4.3-2.8-9.9-3.5-14.9-2.9c-5.8,0.6-11.2,3.3-15.2,7.5
	c-5.3,5.9-7.6,14.2-13.9,19.1c-3.8,3-8.5,4.4-12.9,6.4s-8.5,5-10,9.4c0,0,0-0.1,0-0.1v0.2l-0.1,0.2c-1.5,5.2,1.4,10.5,2.8,15.6
	c1.5,5.4,1.6,11,1.7,16.5c0.1,6.8,0.2,13.5,0.1,20.3c0,2.7-0.1,5.4-0.3,8c-2.4,0.7-4.7,1.6-6.9,2.8c-2.2,1.5-10.6,10.5-10.6,10.5
	l-16.4,62.6l0.2,0.2l-0.2,0.9l0.8-0.2c2.3,2.5,9.2,9.6,16.7,14.1l0.7,12.3c0,0,0.8,12.3,12.2,17.4c0.3,4.3,1.1,21.6-2.7,28.5
	c-2.6,5-3.8,10.6-3.5,16.3c0,0,1.3,10.4-0.2,15.9c-0.9,3.7-0.9,7.5-0.2,11.2l0,0c0,0,0,1.2,0,3.3c0,11.1,0.1,46.6,0,50.7
	c-0.2,4.8,0,75,0,75s-0.9,35.1-3.9,44.6s-2.2,41-2.2,41s-1.9,37.5,4.7,44.9c0,0.3-0.1,0.7-0.1,1c0,0.2,0,0.3,0,0.5
	c-0.1,2.8,0.5,5.9,2.9,6.8c5,1.9,11.6,7.7,12.9,9.3s8.5,5.8,18,4.7c5.9-0.7,11.9-0.9,17.9-0.8l0,0c0,0,3.7-0.7,2.5-5.3l0,0l0,0
	c-0.8-2.9-3.7-7.4-5.8-10.3c0.4,0.1,0.8,0.2,1.1,0.2l0.4,0.1h0.3c0.2,0,0.3,0,0.5,0h0.2c0.2,0,0.4,0,0.6,0l0,0
	c2.5-0.2,11.9,4.1,13.5,7s7.6,5.1,12,5.6c2.6,0.3,9.3-0.2,14.9-0.9c2.8-0.3,5.6-0.8,8.3-1.5c1.3-0.5,1.6-2.1,1.2-3.9l0,0
	c-0.4-2.3-1.7-4.3-3.5-5.8c-1.6-1.2-3.8-4.2-5.3-6.7l-0.4-0.7c2.8-2.7,7.8-11.4,9.4-13.2c1.9-2.2-3-82.3-3-82.3v-40.1l7.5-38
	l5.2-20.1l4.5-30.4c0,0,7.8-35.5,5.4-38.9l0,0c0-0.1-2-36.6-4.1-45.3c-0.9-3.9-0.7-12.7-0.1-21.3c1.2-1.1,1.5-2.8,1-4.4
	c-0.1-0.5-0.3-1-0.6-1.5c0-0.1,0-0.3,0-0.5c4.3-2,8.8-3.5,13.5-4.6c7.5-1.5,5.6-5.3,5.6-5.3s1.7-3.3,2.8-5.3s0.2-19.8,0-21.2
	c-0.1-0.6-0.5-3.9-1.1-7.5c2.4-1.7,5.5-3.8,8.9-5.8C554.1,422.8,552.7,418.8,552.1,417.8z M454.9,671.3c0,0-5.6,14.3-3.4,17.9
	s-0.4,17.2-0.4,17.2l-1.9,20.1c0,0-5.2,37.3-3.4,46.1c1.5,6.9,2,27.4,2.2,36l0,0c-0.1,0-0.3,0.1-0.4,0.2l-0.2,0.1
	c0.9-3.4,0.5-10.2-3.8-23.9l-0.4-56.7c0,0-0.7-65.5,4.5-72.8s7-19.8,7-19.8s-1.1,17.9-1.9,22.7S454.9,671.3,454.9,671.3z
	 M444.5,812.1c0,0.1-0.1,0.2-0.1,0.3l-0.3-0.4C444.3,812.1,444.4,812.1,444.5,812.1z"/>
<path class="st3" d="M501.5,834.6c-2.9,1.1-18.6,3-22.9,2.5s-10.2-2.8-11.8-5.7s-10.9-7.3-13.4-7c-1,0-2-0.1-3-0.4
	c-1.7-0.5-3.4-1.2-5-1.9c-0.2-1.3-0.2-2.6,0.1-3.8c0.1-0.3,0.1-0.5,0.2-0.7c0.6-1.6,1.8-3,3.4-3.7l0.4-0.2c0.7-0.3,1.4-0.5,2.2-0.7
	c7.9-1.5,40.3,1.5,40.3,1.5s0.9,1.6,2.2,3.7c1.6,2.5,3.7,5.5,5.3,6.7c1.8,1.5,3,3.6,3.4,5.9C503.1,832.5,502.8,834.1,501.5,834.6z"
	/>
<path class="st4" d="M501.5,834.6c-2.9,1.1-18.5,3-22.9,2.5s-10.2-2.8-11.8-5.7s-10.9-7.3-13.4-7s-8-2.3-8-2.3s-0.9-4,1.6-6.7l5,3.5
	c0,0,13.4,4.2,15.9,8s7,6,13.5,6.4c4.9,0.3,16.1-1.6,21.3-2.5C503.1,832.5,502.9,834.1,501.5,834.6z"/>
<path class="st3" d="M453.7,839.7c-5.9-0.1-11.8,0.2-17.7,0.8c-9.4,1.1-16.6-3-17.8-4.7s-7.7-7.4-12.7-9.4c-2.4-0.9-3-4-2.9-6.9
	c0-0.2,0-0.3,0-0.5c0.1-1.8,0.4-3.6,0.8-5.4l38.9-0.8l3.4,4.6l0.5,0.7l2,2.8c0,0,0.9,1.2,2.1,3c2.1,3,4.9,7.4,5.7,10.4l0,0
	C457.4,839,453.7,839.7,453.7,839.7z"/>
<path class="st4" d="M453.7,839.7c-5.9-0.1-11.8,0.2-17.7,0.8c-9.4,1.1-16.6-3-17.8-4.7s-7.7-7.5-12.7-9.4c-2.4-0.9-3-4-2.9-6.9
	c2.8,0.7,8.6,2.3,10.9,5.2c3,3.9,8.4,10.3,16,10.8c6.2,0.3,21.2-0.8,26.7-1.2C457.4,839,453.7,839.7,453.7,839.7z"/>
<path class="st4" d="M449,813.8c-0.5,3.3-1.8,4.2-2.8,4.4c-0.2,0-0.5,0-0.7,0c-0.1,0-0.3,0-0.4-0.1c0,0-34.9,7.7-42,1.5
	c-0.2-0.2-0.3-0.3-0.5-0.5c0.1-1.8,0.4-3.6,0.8-5.4l38.9-0.8l3.4,4.6C446.2,815.8,447.5,814.5,449,813.8L449,813.8z"/>
<path class="st4" d="M494,818.1c-0.8,0.9-1.4,1.3-1.8,1.2c-1.8-0.7-16.9-3.3-21.7-1.1s-21,0.4-21,0.4s0-1.9-0.1-5
	c0.7-0.3,1.4-0.5,2.2-0.7c7.9-1.5,40.3,1.5,40.3,1.5S492.8,816.1,494,818.1z"/>
<path class="st5" d="M516.9,591.9l-4.4,30.5l-5.1,20.2l-7.4,38.3v40.5c0,0,4.8,80.6,2.9,82.8s-8.8,14.7-10.7,14s-16.9-3.3-21.7-1.1
	s-21,0.4-21,0.4s-0.4-31.3-2.2-40.1s3.3-46.4,3.3-46.4l1.8-20.2c0,0,2.6-13.6,0.4-17.3s3.3-18,3.3-18s-2.6-8.1-1.8-12.9
	s1.8-22.8,1.8-22.8s-1.8,12.5-6.9,19.9s-4.5,73.2-4.5,73.2l0.4,57c9.2,30.2,0,27.2,0,27.2s-34.9,7.7-42,1.5s-5-45.7-5-45.7
	s-0.7-31.6,2.2-41.2s3.9-44.9,3.9-44.9s-0.2-70.7,0-75.4c0.1-4,0-39.8,0-51c0-2.1,0-3.3,0-3.3l4.2-10.5l50-6.3h23.9
	c0,0,36,8.5,39.7,12.1c0.1,0.1,0.1,0.1,0.2,0.2C524.6,556.2,516.9,591.9,516.9,591.9z"/>
<path class="st4" d="M456.2,752.3c0,0,11,26.5,16.2,28.3S456.2,752.3,456.2,752.3z"/>
<path class="st4" d="M460.2,791.3c0,0,37.1,1.8,36.8,5.9S460.2,791.3,460.2,791.3z"/>
<path class="st4" d="M410.5,780.7c1.5,1.4,28.3,4,26.1,6.5s-23.9,7.5-23.9,7.5L410.5,780.7z"/>
<path class="st4" d="M406.1,735c0,1.1,5.5,35.3,7,36.8s13.6,2.9,13.6,2.9L406.1,735z"/>
<path class="st6" d="M446.2,267.3c-5.3,5.9-7.5,14.2-13.7,19.2c-3.7,3-8.5,4.4-12.8,6.5s-8.6,5.1-9.9,9.8
	c-1.4,5.2,1.3,10.5,2.8,15.7c1.5,5.4,1.6,11,1.7,16.6c0.1,6.8,0.2,13.6,0.1,20.4c-0.2,10.6-1.1,21.7-6.7,30.7
	c20.3,6.5,42,7.4,63.3,8.2c4.1,0.3,8.2,0.2,12.3-0.3c3.5-0.7,7-1.6,10.5-2.6c6.8-1.8,13.8-2.7,20.9-2.7c3.1,0,6.2,0.2,9.2-0.6
	s5.8-2.9,6.6-5.8c0.7-2.7-0.3-5.5-1.7-7.9c-2.5-4.4-6-8-8.7-12.3c-5.5-9.2-6.3-20.5-2.2-30.4c2.4-5.5,6.2-10.3,8.5-15.8
	c4.9-12.1,2.2-25.8-6.7-35.3c-8.1-8.3-19.7-11.5-30.7-13.2c-4.7-0.6-9.1-2.3-12.9-5c-4.2-2.8-9.8-3.5-14.7-2.9
	C455.4,260.4,450.1,263,446.2,267.3z"/>
<g class="st7">
	<path d="M518.1,326c-2,4.8-2.9,10.1-2.5,15.3c0.2-3.7,1.1-7.4,2.5-10.8c2.3-5.5,6.2-10.3,8.5-15.8c1.9-4.6,2.7-9.6,2.3-14.5
		c-0.2,3.5-1,6.9-2.3,10.1C524.3,315.8,520.5,320.5,518.1,326z"/>
	<path d="M414.6,333.7c0.1,3.9,0.1,7.9,0.1,11.8c0-5.4,0-10.8-0.1-16.2c-0.1-5.6-0.2-11.2-1.7-16.6c-1-3.4-2.5-6.9-3-10.3
		c-0.9,4.9,1.6,9.9,3,14.8C414.4,322.4,414.5,328.1,414.6,333.7z"/>
	<path d="M524,382.4c-3,0.8-6.1,0.6-9.2,0.6c-7,0-14,0.8-20.8,2.6c-3.4,1.1-6.9,1.9-10.5,2.6c-4.1,0.5-8.2,0.6-12.3,0.3
		c-20.6-0.8-41.5-1.7-61.2-7.6c-0.6,1.3-1.3,2.6-2,3.8c20.3,6.5,42,7.4,63.3,8.2c4.1,0.3,8.2,0.2,12.3-0.3c3.5-0.7,7-1.6,10.4-2.6
		c6.8-1.8,13.8-2.7,20.8-2.6c3.1,0,6.2,0.2,9.2-0.6s5.8-2.8,6.6-5.8c0.3-1.4,0.3-2.8-0.1-4.2C529.6,379.7,526.9,381.6,524,382.4z"/>
</g>
<path class="st8" d="M494.4,370.6c-0.7,1.7-3.9,16-4.6,17.5s-4.8,25-5.1,26.3s-26.6-5.5-26.6-5.5l-15.8-13.2L426,379.4
	c0,0-0.5-14.6,11.5-19.3c0.8-0.3,1.6-0.6,2.5-0.8c14.5-3.5,13.1-47.6,13.1-47.6l29.8,12.9c0,0-5.5,25.8-5.3,30.7
	c0,1.7,1.4,2.7,3.1,3.3c2.6,0.8,5.4,1,8.1,0.9C488.7,359.6,495.2,368.9,494.4,370.6z"/>
<path class="st5" d="M547.8,419l4.2,1.1c0,0,3.1,4.8-4.2,9.2c-4.7,2.8-9.2,6-13.4,9.4l-21.8,6.6l-4.2-13.1l20.2-15.4L547.8,419z"/>
<path class="st5" d="M389,431.7l-8.5,8.3c0,0,15.3,17.7,27,18.8s19.3-13.4,19.3-13.4l-10.2-16L389,431.7z"/>
<circle class="st4" cx="469.4" cy="311.2" r="29.4"/>
<circle class="st8" cx="469.4" cy="309" r="29.4"/>
<path class="st4" d="M522.2,556c-6.7,0.8-13.3,2.2-19.7,4.4c-11,3.7-97.2,0.1-98.4,0c0-2.1,0-3.3,0-3.3l4.2-10.5l50-6.3h23.9
	c0,0,36,8.5,39.7,12.1C522.1,554.7,522.2,556,522.2,556z"/>
<path class="st4" d="M494.4,370.6c-0.7,1.7-3.9,16-4.6,17.5s-4.8,25-5.1,26.3s-26.6-5.5-26.6-5.5l-15.8-13.2L426,379.4
	c0,0-0.5-14.6,11.5-19.3l29.7,34.2l13.4-35.6c2.6,0.8,5.4,1,8.1,0.9C488.7,359.6,495.2,368.9,494.4,370.6z"/>
<path class="st5" d="M467.2,395.4l-30.4-35c-3.6-2.3-8.2-2.6-12.1-0.9c-6.8,3-15.3,5.3-17.5,6.8s-10.5,10.6-10.5,10.6l24.7,64.5
	l-10.9,42.5c0,0,1.7,21.7-2.6,29.6c-2.6,5.1-3.8,10.7-3.5,16.4c0,0,1.3,10.5-0.2,16c-0.9,3.7-0.9,7.5-0.2,11.2c0,0,87.4,3.7,98.4,0
	c6.4-2.2,13-3.6,19.7-4.4c0,0-2-36.8-4-45.6s1.7-42.5,1.7-42.5l-2.4-36.1l14.3-37c0,0-7.8-23.7-15.9-26.1c0,0-14.7-3.5-17.8-5.1
	s-12.3-3.1-12.3-3.1l-4.8,1.6L467.2,395.4z"/>
<path class="st4" d="M445.6,423l64,4.4c1.6,0.1,2.8,1.5,2.7,3.1l-6.9,101.1c-0.1,1.6-1.5,2.8-3.1,2.7l-64-4.4
	c-1.6-0.1-2.8-1.5-2.7-3.1l6.9-101.1C442.6,424.1,444,422.9,445.6,423z"/>
<path class="st6" d="M447.8,420.8l64,4.4c1.6,0.1,2.8,1.5,2.7,3.1l-6.9,101.1c-0.1,1.6-1.5,2.8-3.1,2.7l-64-4.4
	c-1.6-0.1-2.8-1.5-2.7-3.1l6.9-101.1C444.8,421.9,446.2,420.7,447.8,420.8z"/>
<rect x="430.1" y="446.5" transform="matrix(6.784116e-02 -0.9977 0.9977 6.784116e-02 -32.0321 919.703)" class="st3" width="92.2" height="61"/>
<rect x="472" y="436.8" transform="matrix(6.982913e-02 -0.9976 0.9976 6.982913e-02 -15.1242 907.2472)" class="st4" width="13.9" height="49.9"/>
<rect x="494.7" y="511" transform="matrix(6.784116e-02 -0.9977 0.9977 6.784116e-02 -49.2999 977.1668)" class="st4" width="7.2" height="7.9"/>
<rect x="470.6" y="476.2" transform="matrix(6.784116e-02 -0.9977 0.9977 6.784116e-02 -53.2106 935.9048)" class="st4" width="7.2" height="40.5"/>
<rect x="475.2" y="412.7" transform="matrix(6.784116e-02 -0.9977 0.9977 6.784116e-02 15.4303 883.9985)" class="st6" width="11.1" height="42.2"/>
<rect x="475.2" y="412.7" transform="matrix(6.784116e-02 -0.9977 0.9977 6.784116e-02 15.4303 883.9985)" class="st4" width="11.1" height="42.2"/>
<path class="st4" d="M470.9,554c0,0-0.4,54.5-14.7,85.7c0,0,17.3-41.2,17.3-42.9s9.6-19,7-24.1S470.9,554,470.9,554z"/>
<path class="st4" d="M471.7,301.6c-0.5-4.8,0.6-9.7,3.3-13.7c-0.7,8.4,4.9,15.9,13.1,17.8c-0.7-0.6-0.9-1.6-0.6-2.4
	c2,2.3,3.6,5.1,5.9,7.1s5.8,3.3,8.5,1.8c3.7-2,3.8-7.3,2.8-11.4c-2.1-8.7-6.3-16.8-12.3-23.5c-3-4.1-7.8-6.5-12.9-6.6
	c-5.7-0.4-11.6,0.1-16.7,2.6c-2.9,1.6-5.5,3.4-8,5.6l-14,11.4c-1.3,1-2.5,2.2-3.4,3.6c-0.6,1.2-1,2.4-1.1,3.8
	c-0.7,7.6,2.9,15,9.4,19.1c-0.1-6,3.4-11.6,8.9-14c0.9,0.7,1.4,1.8,1.4,2.9l2.9-5.3c0.4-1,1.1-1.8,2-2.4c1.8-1,4.1,0.2,5.6,1.6
	s3.1,3.2,5.1,3.4l0.1-7.8"/>
<path class="st6" d="M471.7,300.5c-0.6-4.8,0.6-9.7,3.3-13.7c-0.9,8,5.1,16.3,13.1,17.8c-0.7-0.6-0.9-1.6-0.6-2.4
	c2,2.3,3.6,5.1,5.9,7.1s5.8,3.3,8.5,1.8c3.7-2,3.8-7.3,2.8-11.4c-2.1-8.7-6.3-16.8-12.3-23.5c-1.9-2.3-4.2-4.1-6.9-5.3
	c-1.9-0.7-3.9-1.1-6-1.2c-5.7-0.4-11.6,0-16.7,2.6c-2.9,1.6-5.5,3.4-8,5.6l-14,11.4c-1.3,1-2.5,2.2-3.4,3.6c-0.6,1.2-1,2.4-1.1,3.8
	c-0.7,7.6,2.9,15,9.4,19.1c-0.1-6,3.4-11.6,8.9-14c0.9,0.7,1.4,1.8,1.4,2.9l2.9-5.2c0.4-1,1.1-1.8,2-2.4c1.8-1,4.1,0.2,5.6,1.6
	s3.1,3.2,5.1,3.4l0.1-7.8"/>
<path class="st8" d="M485.6,486.1c-2.6-1.3-45.1,5.3-45.1,5.3s-7-2-23.9-4.8s-18-19.3-18-19.3l-1.9-33.1l5.7-5l24.5,16
	c0,0,0.4,8.1,0,9.5c-0.2,1-0.9,2.2-0.8,3c0,0.5,0.4,0.8,0.8,0.9c1.7,0.4,24.3,4.1,24.3,4.1s52.4-3.6,65.5,14.1
	c1,1.3,1.8,2.8,2.3,4.4C522.3,493.3,487.9,487.3,485.6,486.1z"/>
<path class="st4" d="M519,481.3c-2,0.9-3.2,1.5-3.2,1.5s-18.8-0.5-29.3-4.4s-23.4-3.1-23.4-3.1s-43.9-7.6-37.1-17.4
	c0,0.5,0.4,0.8,0.8,0.9c1.7,0.4,24.3,4.1,24.3,4.1s52.4-3.6,65.5,14.1C517.7,478.2,518.5,479.7,519,481.3z"/>
<path class="st8" d="M537.3,423c0,0,2.6,18.2,2.8,19.7s1.1,19.3,0,21.3s-2.8,5.3-2.8,5.3s1.8,3.9-5.5,5.3s-16,5.9-16,5.9
	s-18.8-0.5-29.2-4.4s-23.4-3.1-23.4-3.1s-55.8-9.6-31.8-21.2s40.8,4.1,40.8,4.1l26.7-1.6c0,0,9.9-6.1,12.7-5.5
	c1.9,0.2,3.9-0.1,5.7-0.9l0.2-19.3L537.3,423z"/>
<path class="st4" d="M402,378.3l-5.3-0.3l-16.2,63c0,0,17.5-4.4,25,0s21.3,5.3,21.3,5.3l-5.1-50.2L402,378.3z"/>
<path class="st5" d="M402,377.2l-5.3-0.3l-16.2,63c0,0,17.5-4.4,25,0s21.3,5.3,21.3,5.3l-5.1-50.2L402,377.2z"/>
<path class="st4" d="M524.4,391l7.3,1.7c0,0,18.8,27,20.2,28.5s-7,7-10.5,7s-20.6,2-25.6,6.6s-2.9-18.6-2.9-19.2s6.2-15.2,6.2-15.2
	L524.4,391z"/>
<path class="st5" d="M524.4,389.9l7.3,1.6c0,0,18.8,27,20.2,28.5s-7,7-10.5,7s-20.6,2-25.6,6.6s-2.9-18.6-2.9-19.2
	s6.2-15.2,6.2-15.2L524.4,389.9z"/>
<g class="st7">
	<path d="M474.9,286.9c0-0.8,0-1.5,0-2.3c-1.5,2.3-2.6,4.9-3.1,7.5v2.3c0,0,0,0,0-0.1v0.5c0,1.6,0,3.2,0,4.9h-0.1v0.8
		c0-0.3,0-0.5,0-0.8c-2-0.3-3.4-2-4.9-3.3s-3.8-2.6-5.6-1.6c-0.9,0.6-1.6,1.4-2,2.4l-3,5.2c0-1.1-0.5-2.2-1.4-2.9
		c-5.5,2.4-9.1,8-8.9,14c-5.5-3.5-9.1-9.4-9.5-15.9c-0.4,7.3,3.3,14.3,9.5,18.1c-0.1-6,3.4-11.6,8.9-14c0.9,0.7,1.4,1.8,1.4,2.9
		l2.9-5.2c0.4-1,1.1-1.8,2-2.4c1.8-1,4.1,0.2,5.6,1.6s3.1,3.2,5.1,3.4c0-2.6,0-5.1,0.1-7.7C472.4,291.7,473.5,289.1,474.9,286.9z"/>
	<path d="M471.6,296.9c0-0.7,0.1-1.4,0.2-2l0.1-2.8C471.6,293.7,471.5,295.3,471.6,296.9z"/>
	<path d="M501.9,308.9c-2.7,1.5-6.2,0.2-8.5-1.8s-3.9-4.8-5.9-7.1c-0.3,0.9-0.1,1.8,0.6,2.4c-0.2,0-0.4-0.1-0.6-0.1
		c2,2.3,3.6,5,5.9,7s5.8,3.3,8.5,1.8s3.5-4.9,3.3-8.2C505,305.4,504,307.7,501.9,308.9z"/>
	<path d="M487.4,302.2c-6.8-1.9-11.8-7.8-12.5-14.9c-0.6,7.9,5.4,15.7,13.1,17.2C487.4,304,487.1,303.1,487.4,302.2z"/>
</g>
<linearGradient id="SVGID_2_" gradientUnits="userSpaceOnUse" x1="878.3879" y1="-17.459" x2="878.3879" y2="597.8462" gradientTransform="matrix(1 0 0 -1 -15.95 843.44)">
	<stop  offset="0" style="stop-color:#808080;stop-opacity:0.25"/>
	<stop  offset="0.54" style="stop-color:#808080;stop-opacity:0.12"/>
	<stop  offset="1" style="stop-color:#808080;stop-opacity:0.1"/>
</linearGradient>
<path class="st9" d="M967.7,465.6c0,0-3.9-0.5-3.9-6.3s-2.8-16.5-2.8-16.5l0,0c0,0-2.4-18.7-5.8-21.6s-7.7-20.3-7.7-20.3
	s-0.7-9.4-2.2-11.5s-3.5-7-6.6-14.1s-15.5-12-15.5-12s-22.7-13.2-29.1-17.5l0,0c-0.6-0.4-1.1-0.8-1.6-1.2c-1.1-1.5-6-1.5-6-1.5
	c-0.5-3.2-1-6.9-1.2-10.3c0-0.4,0-0.7,0-1.1c7.2-4.2,12.6-10.9,15.2-18.8c0.1-0.4,0.2-0.8,0.3-1.2c0.9-0.3,1.6-0.9,2-1.8
	c0.6-1.3,0.6-2.8,1.3-4c0.8-1.4,2.4-2.2,3.7-3.2c3.2-2.7,4-7.3,3.8-11.4c-0.1-3.4-0.6-6.7-0.4-10.1c0-0.3,0-0.6,0.1-0.8
	c0.1-0.5,0.1-1,0.2-1.5c0.5-2.5,1.6-4.8,2.2-7.3s0.7-5.2-0.7-7.4c-2-3.1-6.3-3.7-10.1-4c-4.2-0.4-8,0.1-10.8-3.4
	c-1.3-1.8-2.7-3.6-4.3-5.2c-0.6-0.5-6-3.9-6-4.1c-5.3-2.5-11.4-2.9-17-1.3c-2.8,0.8-5.5,2.2-8.3,2.8c-6.2,1.5-13.3-0.1-18.5,3.4
	c-2.9,2-4.7,5.2-6.3,8.3c-1.3,2.5-2.7,5.1-4.1,7.6c-2.2,4.2-4.5,8.5-5.4,13.1c-0.2,1-0.3,2-0.4,3.1l0,0c0,0.4,0,0.7,0,1.1
	c0,0.2,0,0.3,0,0.5c0,0.3,0,0.7,0.1,1s0,0.4,0.1,0.6s0.1,0.7,0.2,1s0.2,0.9,0.3,1.3c0,0.2,0.1,0.4,0.2,0.6s0.2,0.7,0.3,1
	s0.1,0.4,0.2,0.5c0.2,0.4,0.3,0.7,0.5,1c0.1,0.1,0.1,0.3,0.2,0.4c0.3,0.5,0.6,0.9,0.9,1.3c2.1,2.7,5.3,4.4,7.6,6.9
	c0,0.1,0,0.2,0,0.3c0,0.3,0,0.5,0,0.8c0.3,11.3,6.2,21.8,15.7,27.9c0,0.4,0,0.8,0.1,1.2c0.2,3,0.2,5.9-0.1,8.9c-0.8-1-2-1.5-3.3-1.5
	c-0.4,0-0.9,0-1.3,0.1l-0.1-0.1l0,0v0.1c-2.2,0.5-4.9,2.8-7.5,9.3c0,0-7.9,8.9-13.9,8.5s-21.2,9.2-21.2,9.2s-14.8,9.6-18,19.4
	c-1.8,5.6-3.9,11-6.4,16.3l-18.4,37.7l0,0l-3.4,30c0,0,1.9,13.3,1.5,15.4s7.7,20.3,7.7,20.3s26.6,46.8,37.5,49.2l0.8-0.5
	c0.5,0.2,1,0.4,1.5,0.5l2.2-1.6c0.1,1.8,0.1,3.5-0.2,5.3c-1.5,4.6,0.6,34.8,3.2,40.7s1.7,83.4,1.7,83.4l-0.4,6.8c0,0,0,0.2,0.1,0.6
	l-0.1,1.6l0.3,0.1c0.3,2.2,0.2,4.4-0.3,6.5c-0.9,3-1.3,11.5-1.3,11.5s-7.5,47.9-3.9,57.5s6.6,20.2,6.6,20.2s3.8,12,0.2,14
	s-13.7,5.5-11.6,10.5c1.9,4.6,9.1,17,10.2,18.8l-0.1,1l-1.5,15.9c0.2,2.1,0.8,4.2,1.7,6.1c1.6,3.5,4.7,7.1,10.7,6.7
	c1-0.1,2.2-0.2,3.3-0.3c10.9-1.5,24.3-6.3,24.3-6.3c-0.7-0.4-1.3-1-1.9-1.6l0,0c-1.1-1-1.7-2.5-1.7-4c0.2-2.9-5.3-16.7-6.6-20.1
	l-0.3-0.8c0,0,12.4-13,10.3-24.4c0,0-13.7-8-9.2-12.4s12.6-17,12.6-17s0.4-47.2,0-54.2c-0.4-4.9-0.2-9.8,0.7-14.6
	c0.2-0.7,0.3-1.4,0.5-2.1c6.2,0.9,12.5,1.4,18.9,1.4c2.3,0,4.6,0,7-0.1c0,0.7,0,1.4,0.1,2.2c0.5,11.7,1.5,32.2,2.3,39.8
	c1.1,10.9,7.3,40.3,7.3,40.3s-11.8,7.6,2.1,26.3c0,0,0,6.8-0.9,7.8l0,0c-1,3.2-1.8,6.5-2.4,9.8c-0.6,3.5-0.8,7.1,0.1,8.9
	c2.2,4.4,15.8,4.1,15.8,4.1l0,0c0.1,0,0.2,0,0.3,0c5.1-0.5,10.3,1,14.3,4.3c5.1,4.1,24.6,2.3,35.1,1c4.1-0.5,6.9-1,6.9-1
	c0.1-0.5,0.2-1,0.1-1.4l0,0c-0.1-2.6-2.1-8.3-15.9-13.3c0,0-12.9-8.7-12.8-16.3h-0.3h-1.5c0.9,0,1.6,0,1.6,0s-5.1-18.5-3-20
	s-4.1-22-4.1-22s-3.5-34.4-3.8-36.8c0-2.1,0.3-4.1,0.9-6.1l-0.9-18.9c0,0-0.2-6.3,0-8.3c0-1.8-0.2-3.5-0.4-5.3
	c-0.1-0.7-0.2-1.4-0.3-2.2c4.8-1.2,8-2.4,8-2.4l-0.6-65.7c4.1-8,4.9-25.6,4.9-38c0-8-0.4-13.9-0.4-13.9l5.6-9.2c0,0,1.3-11-0.8-13.4
	c-0.9-1.1-0.5-2.2,0.2-3.2c0.4-0.3,0.8-0.6,1.2-0.9c0-0.1-0.1-0.1-0.1-0.2c0.4-0.3,0.8-0.6,1.2-0.9c0,0-2-3.1-0.2-4.4
	c1.7,1.1,3.2,2,4.3,2.7c-0.1,0.7-0.2,1.2-0.2,1.2l0.5-1c1.1,0.6,1.8,1,1.8,1s8.8-17.6,8.6-20.2s6-13.5,6-13.5s0.8-5.7,4.1-8.1
	s2.6-19.8,2.6-19.8s0.9-9.1,3.2-12.8S967.7,465.6,967.7,465.6z M798.9,457.9l0.2,4.2c-1-1.6-1.7-2.8-1.7-2.8L798.9,457.9z"/>
<path class="st3" d="M945.6,541.1l-2.2,9.2c0,0-17.3-8.9-20.4-20.1s5.2-15.5,5.2-15.5l16.1,6.8L945.6,541.1z"/>
<path class="st4" d="M945.6,541.1l-2.2,9.2c0,0-17.3-8.9-20.4-20.1s5.2-15.5,5.2-15.5l16.1,6.8L945.6,541.1z"/>
<path class="st3" d="M848.5,854.2c0,0-16,5.9-27,6.6c-5.8,0.4-8.9-3.2-10.5-6.6c-0.9-1.9-1.4-3.9-1.7-6l1.5-15.8l0.8-8.4l23.4-6.1
	l3.3,10.1l0.3,0.8c1.3,3.4,6.7,17.1,6.5,20c0,1.5,0.6,2.9,1.6,4C847.3,853.3,847.9,853.8,848.5,854.2z"/>
<path class="st3" d="M957.8,846.1c0,0.5,0,1-0.1,1.4c0,0-34.2,5.7-41.2,0c-4-3.4-9.2-4.9-14.4-4.2c0,0-13.2,0.4-15.5-4
	c-0.9-1.8-0.7-5.4-0.1-8.9c0.6-3.3,1.4-6.5,2.3-9.7l0.5-0.4l3.2-2.5l36.9-1.1h0.3c-0.2,7.5,12.5,16.2,12.5,16.2
	C955.7,837.9,957.7,843.6,957.8,846.1z"/>
<path class="st4" d="M957.8,846.1c0,0.5,0,1-0.2,1.4c0,0-34.2,5.7-41.2,0c-4-3.4-9.2-4.9-14.4-4.2c0,0-13.2,0.4-15.5-4
	c-0.9-1.8-0.7-5.4-0.1-8.9c5.1,0.5,13.2,1.8,16.3,4.8c4.8,4.6,12.9,9.2,17.8,9.6C924.5,845.1,947.9,845.8,957.8,846.1z"/>
<path class="st4" d="M848.5,854.2c0,0-16,5.9-27,6.6c-5.8,0.4-8.9-3.2-10.5-6.6c4.1,1.4,9.7,2.8,12.7,1.5c3.5-1.6,16-2.6,23-3
	C847.3,853.3,847.9,853.8,848.5,854.2z"/>
<path class="st10" d="M872.3,380.3c-13.2-5.1-30.2-22.1-25.9-30c0.9-2,1.5-4.2,1.7-6.4c0.3-3,0.3-6,0.1-9c-0.3-4.9-0.9-9.8-1.8-14.6
	c0,0,41.2,0.9,38.8,7c-0.7,1.8-0.8,4.9-0.6,8.3s0.7,7.4,1.2,10.7c0.7,4.5,1.4,8,1.4,8s-2.5,3.5-4,3.7S891.2,387.7,872.3,380.3z"/>
<path class="st4" d="M838.5,828.7l-0.3,0.3c-12.3-14.9-27.2,3.7-27.2,3.7l-0.2-0.4l0.8-8.4l23.4-6.1l3.3,10.1L838.5,828.7z"/>
<path class="st4" d="M929.7,817.8c0,0-9-0.2-13.8,4.1s-28,0.9-27,0c0.3-0.5,0.5-1,0.5-1.5l3.2-2.5l36.9-1.1
	C929.6,817.4,929.7,817.8,929.7,817.8z"/>
<path class="st5" d="M853.9,700.8c-0.7,1.7-1.2,3.4-1.5,5.1c-0.8,4.8-1.1,9.7-0.7,14.6c0.4,7,0,53.9,0,53.9s-7.9,12.5-12.3,16.9
	s9,12.3,9,12.3c2,11.4-10.1,24.3-10.1,24.3c-12.3-14.9-27.2,3.7-27.2,3.7s-8.1-14-10.1-19s7.9-8.5,11.4-10.5s-0.2-14-0.2-14
	s-2.9-10.5-6.4-20.1s3.9-57.2,3.9-57.2s0.4-8.5,1.3-11.4c0.5-2.1,0.5-4.3,0.3-6.5c-0.1-0.7-0.1-1.3-0.2-1.8s-0.1-0.6-0.1-0.6
	l0.1-0.2l5-9.3C815.9,681,856.3,694.9,853.9,700.8z"/>
<path class="st5" d="M929.7,816.7c0,0-9-0.2-13.8,4s-28,0.9-27,0s0.9-7.7,0.9-7.7c-13.6-18.6-2-26.1-2-26.1s-6.1-29.2-7.2-40.1
	c-0.8-7.6-1.7-28-2.2-39.6c-0.2-5-0.3-8.5-0.3-8.5l11-2.2l1.4-0.3l26.8-5.4c0,0,0.7,5,1.2,9.1c0.3,1.7,0.4,3.5,0.4,5.3
	c-0.2,2,0,8.3,0,8.3l0.9,18.8c-0.6,2-0.9,4-0.9,6.1c0.2,2.4,3.7,36.6,3.7,36.6s6.1,20.4,4,21.9S929.7,816.7,929.7,816.7z"/>
<path class="st4" d="M885.1,327.3c-0.7,1.8-0.8,4.9-0.6,8.3c-11.3,6.8-25.4,6.5-36.4-0.7c-0.3-4.9-0.9-9.8-1.8-14.6
	C846.3,320.3,887.5,321.3,885.1,327.3z"/>
<path class="st10" d="M901,305.2c0.2,18.9-14.9,34.4-33.8,34.6s-34.4-14.9-34.6-33.8c0-0.3,0-0.5,0-0.8c0-18.9,15.3-34.2,34.2-34.2
	C885.7,271,901.1,286.4,901,305.2L901,305.2z"/>
<path class="st4" d="M872.3,380.3c-13.2-5.1-30.2-22.1-25.9-30c0.9-2,1.5-4.2,1.7-6.4l18.1,14.9l11.2,9.2l8.5-21.6
	c0.7,4.5,1.4,8,1.4,8s-2.5,3.5-4,3.7S891.2,387.7,872.3,380.3z"/>
<polygon class="st5" points="919,446 903.9,699.5 884.2,700.8 833.3,553.8 841.6,379.3 843.4,342.4 866,361 877.2,370.2 886,347.9 
	902.2,362.1 "/>
<path class="st4" d="M853.9,700.8c-0.7,1.7-1.2,3.4-1.5,5.1c-14.3-2.2-28.3-6.6-41.3-12.9l-0.3-0.1l0.1-1.6v-0.8l5-9.3
	C815.9,681.1,856.3,694.9,853.9,700.8z"/>
<path class="st4" d="M889.4,705.9c-3.7,0.6-7.4,1-11.1,1.3c-0.2-5-0.3-8.5-0.3-8.5l11.1-2.2L889.4,705.9z"/>
<path class="st4" d="M918.6,699.9c-7.1,1.8-18.1,3.9-27.9,2.6l-0.1-6.3l26.8-5.4C917.3,690.8,918,695.8,918.6,699.9z"/>
<path class="st4" d="M890.5,703.7c-41,7-78.5-13.1-78.5-13.1l0.4-6.8c0,0,0.9-77.1-1.7-83s-4.6-35.8-3.1-40.4s-5.3-73.6-5.3-73.6
	l-1.1-28l-40.3-16.4l18-37.5c2.4-5.3,4.5-10.7,6.3-16.2c3.1-9.8,17.7-19.3,17.7-19.3s14.9-9.6,20.8-9.2s13.6-8.5,13.6-8.5
	c5.7-14.5,10.9-8,10.9-8c0,0.7,0,0-0.3,2.1c-2,16,32.3,66.4,32.8,67.2l0,0l3.3,79.7l3.3,100.8L890.5,703.7z"/>
<path class="st3" d="M889.4,703.7c-41,7-78.6-13.1-78.6-13.1l0.4-6.8c0,0,0.9-77.1-1.7-83s-4.6-35.9-3.1-40.5s-5.4-73.5-5.4-73.5
	l-1.1-28l-40.3-16.4l18-37.5c2.4-5.3,4.5-10.7,6.3-16.2c3.1-9.7,17.7-19.3,17.7-19.3s14.9-9.6,20.8-9.2s13.6-8.4,13.6-8.4
	c5.7-14.5,12-8,12-8c0,0.7-0.6,1-0.3,2.1c4.4,15.5,31.2,66.4,31.7,67.2l0,0l3.3,79.7l3.2,100.9L889.4,703.7z"/>
<path class="st4" d="M878.3,415.4c-4.4-1.8-27.8-28.5-27.8-28.5v-6.1c-0.8-2-5.9-0.8-10,0.6l1.8-36.9l2,1.7
	C848.7,361.7,877.8,414.5,878.3,415.4z"/>
<path class="st3" d="M879.4,413.2c-4.4-1.9-27.8-28.5-27.8-28.5v-6.1c-0.8-2-5.9-0.8-10,0.6l1.7-36.8l2,1.6
	C849.8,359.5,879,412.3,879.4,413.2z"/>
<path class="st4" d="M811.9,546.2c0.5,0,28.5-2.9,28.5-2.9s16.9,33.3,15.8,41.4s-3.1,15.3-9.9,14s-36.7,1-36.7,1L811.9,546.2z"/>
<path class="st3" d="M810.8,544c0.6,0,28.5-2.9,28.5-2.9s16.9,33.3,15.8,41.3s-3.1,15.3-9.9,14s-36.7,1-36.7,1L810.8,544z"/>
<path class="st10" d="M831.9,528.4c0,0,25.7,13.8,26.2,18s-13.1-1.8-16-2.6c-1.9-0.5-3.9-0.8-5.9-0.9l-19.6,0.5L831.9,528.4z"/>
<circle class="st4" cx="871.2" cy="414.5" r="2.7"/>
<circle class="st6" cx="871.2" cy="413.4" r="2.7"/>
<circle class="st4" cx="876.1" cy="531.3" r="2.7"/>
<circle class="st6" cx="876.1" cy="530.2" r="2.7"/>
<circle class="st4" cx="873.9" cy="472.9" r="2.7"/>
<circle class="st6" cx="873.9" cy="471.8" r="2.7"/>
<path class="st3" d="M936.1,542.4c0,0,1.8,2.8,0,4s0.2,4.4,0.2,4.4s-4.6,2.7-2.6,5.1s0.7,13.3,0.7,13.3l-5.5,9.2
	c0,0,0.3,5.9,0.3,13.8c0,12.4-0.7,29.9-4.8,37.8l0.5,65.3c0,0-19.3,7.1-35.5,4.9l-2.4-104.8c0,0,3.5-59.4,4.8-70.8
	c0.8-5.9,1.1-11.9,0.9-17.8c0,0-0.5-17.8-2.4-26.1c0,0-2-35.9-2.2-45.8c-0.1-4.8,0.2-18.6,0.4-31.8c0.3-14.4,0.7-28,0.7-28
	l-3.7-28.9c0,0,3.7-0.4,4.8,1.1c0.5,0.5,1,0.9,1.6,1.2l0,0c6.3,4.3,28.6,17.4,28.6,17.4s12.3,4.9,15.3,11.9s5,12,6.4,14
	s2.2,11.4,2.2,11.4s4.2,17.3,7.5,20.2s5.7,21.5,5.7,21.5l-29.2,23c0,0-2.6,38.3-3.1,39.7S936.1,542.4,936.1,542.4z"/>
<path class="st3" d="M937.2,542.4c0,0,1.8,2.8,0,4s0.2,4.4,0.2,4.4s-4.6,2.7-2.6,5.1s0.7,13.3,0.7,13.3l-5.5,9.2
	c0,0,0.3,5.9,0.4,13.8c0,12.4-0.7,29.9-4.8,37.8l0.5,65.3c0,0-19.3,7.1-35.5,4.9l-2.4-104.8c0,0,3.5-59.4,4.8-70.8
	c0.8-5.9,1.1-11.9,0.9-17.8c0,0-0.5-17.8-2.4-26.1c0,0-2-35.9-2.2-45.8c-0.1-4.8,0.2-18.6,0.4-31.8c0.3-14.4,0.7-28,0.7-28
	l-4.8-29.3c0,0,4.8,0,5.9,1.5c0.5,0.5,1,0.9,1.6,1.2l0,0c6.3,4.3,28.6,17.4,28.6,17.4s12.3,4.9,15.3,11.9s5,12,6.4,14
	s2.2,11.4,2.2,11.4s4.2,17.3,7.5,20.2s5.7,21.5,5.7,21.5l-29.2,23c0,0-2.6,38.3-3.1,39.7S937.2,542.4,937.2,542.4z"/>
<path class="st4" d="M902.2,383.6l2.7,7.7l-13.9,14c0.3-14.4,0.7-28,0.7-28l-4.8-29.3c0,0,4.8,0,5.9,1.5c0.5,0.5,1,0.9,1.6,1.2l0,0
	l11.8,34.1L902.2,383.6z"/>
<path class="st3" d="M901,381.4l2.7,7.7l-13.9,14c0.3-14.4,0.7-28,0.7-28l-4.8-29.3c0,0,4.8,0,5.9,1.5c0.5,0.5,1,0.9,1.6,1.2l0,0
	l11.9,34.1L901,381.4z"/>
<path class="st4" d="M901,305.2c0,3.6-0.6,7.2-1.7,10.6c-0.4,0.1-0.8,0-1.1-0.3c-0.3-9-4.7-17.5-10.1-24.6c-1.5-2.2-3.4-4.1-5.5-5.7
	c-2.1-1.6-4.8-2.4-7.5-2.1c-3,0.4-5.7,2.5-8.7,2.7c-4,0.3-7.6-2.4-11.5-2.6c-3.3,0-6.4,1.5-8.5,3.9c-2.1,2.5-3.6,5.3-4.5,8.4
	c-1.6,4.7-2.4,9.6-2.5,14.6c0,2.8-0.3,6.3-2.9,7.3c0.4-4.2-1-8.3-3.8-11.4l-0.1-0.1c0-0.3,0-0.5,0-0.8c0-18.9,15.3-34.2,34.2-34.2
	C885.7,271,901.1,286.4,901,305.2L901,305.2z"/>
<path class="st11" d="M881,250.9c-5.2-2.4-11.1-2.9-16.6-1.3c-2.8,0.8-5.4,2.1-8.2,2.8c-6,1.5-13-0.1-18.2,3.4
	c-2.9,2-4.6,5.2-6.2,8.2l-4,7.6c-2.2,4.2-4.4,8.4-5.3,13s-0.4,9.7,2.5,13.4c2.1,2.7,5.2,4.4,7.5,6.9c2.8,3.1,4.2,7.3,3.8,11.4
	c2.6-1,2.9-4.5,2.9-7.3c0.1-5,1-9.9,2.5-14.6c0.9-3.1,2.5-6,4.5-8.4c2.1-2.5,5.2-3.9,8.5-4c4,0.1,7.6,2.9,11.5,2.6
	c3-0.2,5.7-2.3,8.7-2.7c2.7-0.3,5.3,0.5,7.5,2.1c2.1,1.6,4,3.5,5.5,5.7c5.5,7.2,9.9,15.6,10.2,24.6c1.1,0.8,2.8-0.3,3.3-1.5
	s0.6-2.8,1.3-4c0.8-1.4,2.4-2.2,3.6-3.2c3.1-2.7,3.9-7.2,3.8-11.3s-0.9-8.3-0.1-12.3c0.5-2.5,1.5-4.8,2.1-7.2s0.7-5.2-0.7-7.3
	c-2-3.1-6.2-3.7-9.9-4c-4.2-0.4-7.9,0.1-10.6-3.4c-1.3-1.8-2.7-3.5-4.2-5.1C886.4,254.4,881,251.1,881,250.9z"/>
<path class="st4" d="M772.3,461.8l-10.4-19.3l-3.3,29.8c0,0,1.8,13.2,1.5,15.3s7.5,20.2,7.5,20.2s26.1,46.5,36.8,48.9l36-25.8
	l-9.6-12.1c0,0-3.3-1.3-4.1,0c0,0-17.8-30.5-19.6-32.7s-1.5-6.6-1.5-6.6s-2.8-2.9-1.8-5.7s-5.3-12.3-5.3-12.3l5.7-5.3L772.3,461.8z"
	/>
<path class="st3" d="M762.4,440.3l-2.8,2.2l-3.3,29.8c0,0,1.8,13.2,1.5,15.3s7.5,20.2,7.5,20.2s26.1,46.5,36.8,48.9l36.1-25.8
	l-9.6-12.1c0,0-3.3-1.3-4.1,0c0,0-17.8-30.5-19.6-32.7s-1.5-6.6-1.5-6.6s-2.8-2.9-1.8-5.7s-5.3-12.3-5.3-12.3l5.7-5.3L762.4,440.3z"
	/>
<path class="st4" d="M933.7,557.1c2,2.4,0.7,13.3,0.7,13.3l-5.5,9.1c0,0,0.3,5.9,0.3,13.9l-9.3,2.9c-2.9,0.9-6-0.7-6.9-3.6
	c-0.2-0.6-0.3-1.2-0.2-1.8l1.6-51.6l21.7,8.3c-1.8,1.3,0.2,4.4,0.2,4.4S931.7,554.6,933.7,557.1z"/>
<path class="st3" d="M934.8,556c2,2.4,0.7,13.3,0.7,13.3l-5.5,9.1c0,0,0.3,5.9,0.4,13.8l-9.5,3c-2.8,0.9-5.9-0.7-6.8-3.5
	c-0.2-0.6-0.3-1.2-0.2-1.8l1.6-51.8l21.6,8.3c-1.8,1.3,0.2,4.4,0.2,4.4S932.8,553.5,934.8,556z"/>
<path class="st10" d="M942,531.3c0,0-1.5,9.4-5.2,9.9s-5.3,15.2-9,14.7s-1.2-13.6-1.1-16.2s-4-13.1-0.9-15.5s12.9,0,12.9,0
	L942,531.3z"/>
<path class="st4" d="M949.8,459l6.9-14c0,0,2.8,10.7,2.8,16.4s3.9,6.3,3.9,6.3s4.2,5,2,8.6s-3.1,12.7-3.1,12.7s0.7,17.3-2.6,19.7
	s-4,8.1-4,8.1s-6.1,10.8-5.9,13.4s-8.5,20-8.5,20s4.2-21.7-20.4-31.1c0,0-0.2-7.4,1.7-9.4s4.7-3,2.9-13.2s-0.5-22.4-0.5-24.9
	s5.5-17.7,5.5-17.7L949.8,459z"/>
<path class="st3" d="M952.8,443l6.1,2c0,0,2.8,10.7,2.8,16.4s3.9,6.3,3.9,6.3s4.2,5,2,8.6s-3.1,12.7-3.1,12.7s0.7,17.3-2.6,19.7
	s-4,8.1-4,8.1s-6.1,10.8-5.9,13.4s-8.5,20-8.5,20s4.2-21.7-20.4-31.1c0,0-0.2-7.4,1.7-9.4s4.7-3,2.9-13.2s-0.5-22.4-0.5-24.9
	s5.5-17.7,5.5-17.7L952.8,443z"/>
<path class="st4" d="M819,805.9c0,0,9.7-6.1,16-1.7S819,805.9,819,805.9z"/>
<path class="st4" d="M894,787.1c0,0,8.5-1.1,15.7,6.6S894,787.1,894,787.1z"/>
<g class="st7">
	<path d="M906.5,303.5c-1.2,1.1-2.8,1.8-3.6,3.2c-0.7,1.2-0.7,2.7-1.3,4s-2.2,2.4-3.3,1.5c-0.3-9-4.7-17.5-10.1-24.6
		c-1.5-2.2-3.4-4.1-5.5-5.7c-2.1-1.6-4.8-2.4-7.5-2.1c-3,0.4-5.6,2.5-8.7,2.7c-4,0.3-7.6-2.4-11.6-2.6c-3.3,0-6.4,1.5-8.5,3.9
		c-2.1,2.5-3.6,5.3-4.5,8.4c-1.6,4.7-2.4,9.6-2.5,14.6c-0.1,2.8-0.3,6.3-2.9,7.3c0.1,0.7,0.1,1.5,0,2.2c2.6-1,2.9-4.5,2.9-7.3
		c0.1-5,1-9.9,2.5-14.6c0.9-3.1,2.5-6,4.5-8.4c2.1-2.5,5.2-3.9,8.5-4c4,0.1,7.6,2.9,11.6,2.6c3-0.2,5.7-2.3,8.7-2.7
		c2.7-0.3,5.3,0.5,7.5,2.1c2.1,1.6,4,3.5,5.5,5.7c5.5,7.2,9.9,15.6,10.1,24.6c1.1,0.8,2.8-0.3,3.3-1.5s0.6-2.8,1.3-4
		c0.8-1.4,2.4-2.2,3.6-3.2c3.1-2.7,3.9-7.2,3.8-11.3c0-0.1,0-0.2,0-0.4C910.1,297.6,909.2,301.2,906.5,303.5z"/>
	<path d="M832.7,302.8c-2.3-2.5-5.4-4.2-7.5-6.9c-1.8-2.4-2.8-5.2-2.9-8.2c-0.3,3.7,0.7,7.4,2.9,10.4c2.1,2.7,5.2,4.4,7.5,6.9
		c2.2,2.5,3.5,5.6,3.8,8.9C836.8,309.9,835.4,305.9,832.7,302.8z"/>
	<path d="M912.3,272.6c-0.6,2.5-1.6,4.8-2.1,7.2c-0.3,1.7-0.4,3.4-0.3,5.1c0-1,0.1-1.9,0.3-2.9c0.5-2.5,1.5-4.8,2.1-7.2
		c0.3-1.4,0.5-2.8,0.3-4.1C912.6,271.4,912.4,272,912.3,272.6z"/>
</g>
<ellipse class="st0" cx="132.7" cy="823.2" rx="97.4" ry="15.7"/>
<rect x="129.6" y="523.4" class="st12" width="6.3" height="141.2"/>
<path class="st6" d="M175.3,664.2l-0.4,6.4l-0.6,9l-0.2,3.7l-0.6,9l-0.2,3.7l-0.6,9l-6.3,102.1c-0.6,9.1-8.1,16.2-17.2,16.2h-32.9
	c-9.2,0-16.7-7.1-17.2-16.3l-6.3-102.1l-0.6-9l-0.2-3.7l-0.6-9l-0.2-3.7l-0.6-9l-0.4-6.4c-0.3-5,3.5-9.2,8.5-9.5c0.2,0,0.3,0,0.5,0
	h67.2c5,0,9,4.1,8.9,9.1C175.3,663.8,175.3,664,175.3,664.2z"/>
<polygon class="st13" points="174.9,670.5 174.3,679.5 91.1,679.5 90.6,670.5 "/>
<polygon class="st13" points="174.1,683.2 173.5,692.2 91.9,692.2 91.4,683.2 "/>
<polygon class="st13" points="173.3,696 172.8,704.9 92.7,704.9 92.2,696 "/>
<path class="st5" d="M81.1,576.3c36.5,26.4,51.7,67.7,51.7,67.7s-44-1.5-80.5-27.9S0.5,548.4,0.5,548.4S44.5,549.9,81.1,576.3z"/>
<path class="st14" d="M0.5,548.4c0,0,45.7,25.3,60.3,46.3s71.9,49.3,71.9,49.3"/>
<path class="st5" d="M104.6,523.1c19.9,14.4,28.2,36.9,28.2,36.9s-24-0.8-43.8-15.2s-28.2-36.9-28.2-36.9S84.7,508.7,104.6,523.1z"
	/>
<path class="st14" d="M60.7,507.9c0,0,24.9,13.8,32.8,25.2s39.2,26.8,39.2,26.8"/>
<path class="st5" d="M161.6,558.8c-22.8,25.1-27.7,57.9-27.7,57.9s32.2-7.9,55-33s27.7-57.9,27.7-57.9S184.4,533.8,161.6,558.8z"/>
<path class="st14" d="M216.6,525.8c0,0-29.7,25.7-37.3,43.4S134,616.7,134,616.7"/>
</svg>
