<?xml version="1.0" encoding="utf-8"?>
<!-- Generator: Adobe Illustrator 23.1.0, SVG Export Plug-In . SVG Version: 6.00 Build 0)  -->
<svg version="1.1" id="f0b4e0b4-8ccd-46fa-8baa-3b2354185db9"
	 xmlns="http://www.w3.org/2000/svg" xmlns:xlink="http://www.w3.org/1999/xlink" x="0px" y="0px" viewBox="0 0 640 305.4"
	 style="enable-background:new 0 0 640 305.4;" xml:space="preserve">
<style type="text/css">
	.st0{fill:#E6E6E6;}
	.st1{fill:#FFFFFF;}
	.st2{fill:#3F3D56;}
	.st3{fill:#2F2E41;}
	.st4{fill:#FFB9B9;}
	.st5{fill:#0D53B8;}
	.st6{opacity:0.1;enable-background:new    ;}
	.st7{fill:#9E616A;}
</style>
<polygon class="st0" points="319.1,255.4 316,258.6 315.7,252.3 315.3,261.7 312.4,258.7 315.3,262.3 314.3,286.1 317.3,286.1 
	316,259.3 "/>
<polygon class="st0" points="324.9,263.3 321.8,266.6 321.5,260.2 321.1,269.6 318.2,266.6 321.1,270.2 320.1,294.1 323.1,294.1 
	321.8,267.3 "/>
<polygon class="st0" points="333.7,259 330.6,262.2 330.3,255.9 329.9,265.3 327,262.3 329.9,265.9 328.9,289.7 331.9,289.7 
	330.6,262.9 "/>
<polygon class="st0" points="312.3,262.6 309.2,265.8 308.9,259.5 308.5,268.9 305.6,265.9 308.5,269.5 307.5,293.3 310.5,293.3 
	309.2,266.5 "/>
<rect x="9.4" class="st0" width="236.4" height="302.7"/>
<rect x="25.1" y="18.3" class="st1" width="204.5" height="129.5"/>
<rect x="25.1" y="142.4" class="st1" width="204.5" height="138.8"/>
<rect x="122" y="17.6" class="st2" width="10.6" height="130.2"/>
<rect x="219" y="17.6" class="st2" width="10.6" height="130.2"/>
<rect x="25.1" y="137.1" class="st2" width="204.5" height="10.6"/>
<polygon class="st1" points="54,88 35.7,100.3 35.7,110.4 63.4,88 "/>
<polygon class="st0" points="84.1,88 35.7,125.9 35.7,134.5 98.8,88 "/>
<rect x="25.1" y="17.6" class="st2" width="10.6" height="130.2"/>
<polygon class="st0" points="200,28.2 159.2,80 171.8,81.3 207,26.2 "/>
<rect x="25.1" y="17.6" class="st2" width="204.5" height="10.6"/>
<rect x="25.1" y="77.4" class="st2" width="204.5" height="10.6"/>
<rect x="396.4" class="st0" width="236.4" height="302.7"/>
<rect x="412.1" y="17.9" class="st1" width="204.5" height="129.5"/>
<rect x="412.1" y="142" class="st1" width="204.5" height="138.8"/>
<rect x="509" y="17.2" class="st2" width="10.6" height="130.2"/>
<rect x="606" y="17.2" class="st2" width="10.6" height="130.2"/>
<rect x="412.1" y="136.7" class="st2" width="204.5" height="10.6"/>
<polygon class="st0" points="441,87.6 422.7,99.9 422.7,110 450.4,87.6 "/>
<polygon class="st0" points="471.1,87.6 422.7,125.5 422.7,134.1 485.8,87.6 "/>
<rect x="412.1" y="17.2" class="st2" width="10.6" height="130.2"/>
<polygon class="st0" points="587,27.8 546.2,79.6 558.8,81 594,25.8 "/>
<rect x="412.1" y="17.2" class="st2" width="204.5" height="10.6"/>
<rect x="412.1" y="77" class="st2" width="204.5" height="10.6"/>
<path class="st3" d="M509.8,173.5c0,0,0.8,2.6-3.6,4.9c-4.4,2.3-5.7,11.2-0.5,13.7c5.2,2.6,6.7,6,4.1,8.3s-7.3,8.6-1,10.1
	s7,4.7,5.2,6c-1.8,1.3,4.1-2.3,4.1-2.3s1,6.2,6.5,4.7c5.4-1.6,20.7-31.1,13-35.3C529.8,179.5,509.8,173.5,509.8,173.5z"/>
<path class="st4" d="M502.7,232.7l-24.9,17.5c0,0-18.8-19.5-18.8-30.9s-10.1-33-14.8-24.2c-4.7,8.7,5.4,29.6,5.4,29.6l18.8,44.4
	c0,0,10.8,2,16.8-2.7c6.1-4.7,22.9-14.1,22.9-14.1L502.7,232.7z"/>
<circle class="st4" cx="527.3" cy="184.6" r="18.8"/>
<path class="st4" d="M517.5,197.7c0,0,6.7,17.5,4,21.5c-2.7,4-6.1,4-8.7,5.4c-1.3,0.7-15.5,6.1-15.5,10.1c0.1,2.6,0.8,5.1,2,7.4
	l2,11.4l16.8,10.8l22.2-2.7l16.8-9.4c0,0,2.7-24.9-4.7-28.9c-7.4-4-16.1-13.5-15.5-16.8s1.3-11.4,1.3-11.4L517.5,197.7z"/>
<path class="st5" d="M553.2,248.8L553.2,248.8l-0.6,6l-0.8,7.6l-0.9,8.6l-1,9.8h-48.7c-0.7-5.4-1.8-11.1-3.8-14.5
	c-1.3-2.1-1.8-4.5-1.6-6.9c0.5-4.5,3.6-7.6,3.6-8.6c0-1-5.7-6.9-8.5-9.8c-1-1-1.6-1.6-1.6-1.6l8.7-6.7l0.1,0.2l1.2,2.1l4,7.1
	l-1.3,5.4c0,0,2.1,0.4,5,0.8c5,0.8,12.5,1.9,15.9,1.9c3.2,0,7,1.6,10.2,2.6c0.1,0,0.2,0.1,0.3,0.1c2,0.6,3.7,0.8,4.8,0.2
	c0.1,0,0.1-0.1,0.2-0.1c0.6-0.4,1.2-0.7,1.8-0.9h0c2.3-0.8,4.7-1.5,7.1-2c2.7-0.6,5.1-1,5.7-1.1c0,0,0,0,0,0c0,0,0,0,0,0
	C553.1,248.8,553.2,248.8,553.2,248.8z"/>
<path class="st4" d="M555.3,247.8c-0.1,0.4-0.1,0.7-0.1,1.1c-0.2,1.6-0.4,3.2-0.5,4.8c-0.4,4.2-0.7,8.4-0.8,12.7
	c0,1.6-0.2,3.2-0.5,4.7c-0.7,3.3-1.6,6.6-2.7,9.8h-19c0.5-3.7,1.2-9.5,1.5-15.6v0c0.1-0.9,0.1-1.9,0.1-2.8c0.1-3.2,0.1-6.4-0.1-9.5
	c0-0.1,0-0.2,0-0.2c0-0.4-0.1-0.8-0.1-1.2c-1.3-13.4,6.7-28.2,6.7-28.2c2.7,0,5.4,1.5,7.8,3.6C553.4,232.1,556.3,239.9,555.3,247.8z
	"/>
<path class="st6" d="M553.8,266.3c0,1.6-0.2,3.2-0.5,4.7c-0.7,3.3-1.6,6.6-2.7,9.8h-19.2c0.6-6.1,0.8-12.2,0.5-18.2
	c0-0.9-0.1-1.8-0.2-2.7v0c-0.1-0.8-0.1-1.6-0.2-2.3c-0.1-0.9-0.1-1.8,0.1-2.7v0c0.2-0.7,0.5-1.3,1-1.7c0.1-0.1,0.2-0.1,0.3-0.2
	c0.1-0.1,0.2-0.1,0.3-0.1c0.1,0,0.2-0.1,0.3-0.1c0.8-0.2,1.6-0.3,2.3-0.2c0.7,0.1,1.5,0.3,2.2,0.5c3.2,1.2,6.1,2.8,8.8,4.9
	c1.8,1.3,3.4,2.8,4.8,4.5C553.1,263.9,553.8,265.3,553.8,266.3z"/>
<path class="st5" d="M531,256.2l2.1,9.1l12,5.7h10.1l4.7-21.5c0,0-8.3-1.8-12.6,0.5c-4.3,2.2-14.2,2.8-14.2,2.8L531,256.2z"/>
<path class="st3" d="M527.4,165.7c0,0,0.9,2.9-4,5.5c-4.9,2.6-6.3,12.4-0.6,15.2c5.7,2.9,7.5,6.6,4.6,9.2c-2.9,2.6-8,9.5-1.1,11.2
	s7.8,5.2,5.7,6.6c-2,1.4,4.6-2.6,4.6-2.6s1.1,6.9,7.2,5.2c6-1.7,12.1-33.1,5.3-41.1C542.9,167.3,527.4,165.7,527.4,165.7z"/>
<path class="st3" d="M525.6,162.7c0-4.2,26.2,0.4,31.6,6.3c3.7,4.1,9.4,10.2,4.7,14.5c-4.8,4.3-5.4,8.4-1.9,10.1
	c3.5,1.7,10.3,7,4.1,10.5c-6.2,3.5-6.1,7.1-3.8,7.9c2.3,0.8-5.1-1.3-5.1-1.3s0.8,6.9-5.5,6.9c-6.3,0-24.3-34.5-20-44.1
	C533.6,164.6,525.6,162.7,525.6,162.7z"/>
<path class="st3" d="M528.3,161.8c-16.8-1-18.5,11.7-18.5,11.7c0.1,7.3,11.8,3.8,15,4.9c3.9-2.8,11.4-8.1,16.8-11.9
	C537.7,163.6,533.1,162,528.3,161.8z"/>
<path class="st0" d="M299.9,276.8l1.3,8.3c0,10.2,8.2,18.4,18.4,18.4S338,295.2,338,285l0-0.1l1.3-8.2H299.9z"/>
<rect y="302.6" class="st2" width="640" height="1.4"/>
<path class="st7" d="M66.5,279.2v4.2c0,0-2.8,21.9-10.6,21.9s-1.4-22.6-1.4-22.6v-3.5L66.5,279.2z"/>
<path class="st7" d="M184.4,199.4l-1.4-3.5c0,0-9.2-13.4-2.8-16.9c6.4-3.5,14.1,14.1,14.1,14.1l1.4,5.6L184.4,199.4z"/>
<circle class="st7" cx="155.1" cy="176.5" r="18.6"/>
<polygon class="st7" points="141.7,178.6 129,188.5 146.6,203.3 156.5,191.3 "/>
<path class="st5" d="M153.3,281.2H88.4l4.9-52.2l3.7-38.8v0c0.3-3.5,3.4-6.1,6.9-5.7c0,0,0,0,0,0l26.9,2.6l19.8,11.4l0.6,5.2
	l19.8,14.1l-13.4,25.6l-8.5,16.1L153.3,281.2z"/>
<path class="st5" d="M97.5,223.4l-18.4,24l-11.3,33.9H50.9l12-50.1l31.7-43.3c1.7-2.3,4.6-3.2,7.3-2.2c0.4,0.2,0.8,0.3,1.3,0.4
	L97.5,223.4z"/>
<polygon class="st5" points="155.4,242.5 199.6,260.5 207.3,252.7 196.4,195.9 182.3,198.7 187.9,232.6 171,217.8 165.3,216.4 "/>
<path class="st3" d="M136.8,182.5c-0.9-7.4-0.1-14.9,2.4-22c4.1-11.1,17.3-7.8,24.8-5.2c7.5,2.5,17.5,13,14.9,18.8
	c-2.6,5.7-14.9-1.5-19.3-5.2c-4.4-3.7-12,7.5-12,7.5L136.8,182.5z"/>
<ellipse transform="matrix(0.3416 -0.9398 0.9398 0.3416 -67.0918 254.5458)" class="st7" cx="148.1" cy="175.2" rx="3.6" ry="2"/>
</svg>
