<?xml version="1.0" encoding="utf-8"?>
<!-- Generator: Adobe Illustrator 23.1.0, SVG Export Plug-In . SVG Version: 6.00 Build 0)  -->
<svg version="1.1" id="bdb04d07-607e-4453-aab0-0c653d7063a3"
	 xmlns="http://www.w3.org/2000/svg" xmlns:xlink="http://www.w3.org/1999/xlink" x="0px" y="0px" viewBox="0 0 640 516.6"
	 style="enable-background:new 0 0 640 516.6;" xml:space="preserve">
<style type="text/css">
	.st0{fill:#3F3D56;}
	.st1{fill:#0D53B8;}
	.st2{opacity:0.1;enable-background:new    ;}
	.st3{fill:#2F2E41;}
	.st4{fill:#A0616A;}
	.st5{fill:#FFFFFF;}
	.st6{fill:#D0CDE1;}
	.st7{fill:#FBBEBE;}
	.st8{fill:#B3B3B3;}
	.st9{opacity:0.2;enable-background:new    ;}
	.st10{fill:#E6E6E6;}
</style>
<title>real_time_collaboration</title>
<path class="st0" d="M421.3,289c-13.5,8.1-37.6,18.3-62.2,7.8l-15.9-6.7l31.9-35.7c-56.5-62.2-51.8-158.5,10.5-214.9
	s158.5-51.8,214.9,10.5c56.5,62.2,51.8,158.5-10.5,214.9C544,306.6,477.2,316.2,421.3,289z M360.3,151.9c-0.1,35.3,14.5,69,40.3,93
	l8.8,8.3l-20,22.5c10.4-2.1,19.5-7.8,24.1-11l6.3-4.5l6.8,3.7c18.8,10.3,39.9,15.7,61.4,15.7c70.4,0,127.6-57.3,127.6-127.6
	c0-70.4-57.3-127.6-127.6-127.6S360.3,81.5,360.3,151.9L360.3,151.9z"/>
<path class="st1" d="M347.9,151.9c0-77.3,62.7-140,140-140s140,62.7,140,140s-62.7,140-140,140c-23.5,0-46.7-5.9-67.3-17.2
	c-9.7,6.9-33.3,20.6-56.6,10.7l28.1-31.5C363.9,227.5,347.9,190.6,347.9,151.9z"/>
<path class="st2" d="M604.1,152.2C604.1,79.1,548,19,476.5,12.7c4.1-0.4,8.2-0.6,12.4-0.6c77.3,0,140,62.7,140,140
	s-62.7,140-140,140c-4.2,0-8.3-0.2-12.4-0.6C548,285.4,604.1,225.4,604.1,152.2z"/>
<path class="st0" d="M165.3,483.5C81,483.6,12.7,415.3,12.7,331s68.2-152.6,152.5-152.6c84.3,0,152.6,68.2,152.6,152.5
	c0,38-14.1,74.6-39.7,102.7l31.9,35.7l-15.9,6.7c-24.6,10.4-48.7,0.3-62.2-7.8C211.1,478.3,188.4,483.5,165.3,483.5z M165.3,203.5
	c-70.4,0-127.6,57.3-127.6,127.6c0,70.4,57.3,127.6,127.6,127.6c21.4,0,42.6-5.4,61.4-15.7l6.8-3.7l6.3,4.5
	c4.6,3.3,13.7,8.9,24.1,11l-20-22.5l8.8-8.3c25.8-24,40.4-57.8,40.3-93C292.9,260.8,235.7,203.5,165.3,203.5L165.3,203.5z"/>
<path class="st1" d="M305.3,331.1c0-77.3-62.7-140-140-140s-140,62.7-140,140s62.7,140,140,140c23.5,0,46.7-5.9,67.3-17.2
	c9.7,6.9,33.3,20.6,56.6,10.7l-28.1-31.5C289.4,406.7,305.4,369.8,305.3,331.1z"/>
<path class="st2" d="M50,330.4c0-73.2,56.1-133.2,127.6-139.5c-4.1-0.4-8.2-0.6-12.4-0.6c-77.3,0-140,62.7-140,140s62.7,140,140,140
	c4.2,0,8.3-0.2,12.4-0.6C106.1,463.6,50,403.6,50,330.4z"/>
<path class="st3" d="M520.8,107.4c-9.2-15.5-27.3-16.2-27.3-16.2s-17.7-2.3-29,21.3c-10.6,22-25.1,43.2-2.3,48.3l4.1-12.8l2.5,13.8
	c3.2,0.2,6.5,0.3,9.8,0.2c24.4-0.8,47.6,0.2,46.9-8.5C524.5,141.8,529.6,122.3,520.8,107.4z"/>
<path class="st3" d="M460.9,243c-0.3,1.7-0.7,3.4-1.2,5c-0.6,1.6-1.5,3.1-2,4.7c-1.7,5.2,0.6,11,4.3,15c3.2,3.5,7.3,5.9,11.9,7.1
	c3.4,0.7,6.8,1.1,10.2,1.1c9.5,0.3,19.3,0.6,28.3-2.4c2.9-1,5.6-2.2,8.2-3.7c0.8-0.4,1.6-1,2.1-1.7c0.6-1,0.9-2.2,0.8-3.4
	c0-4-0.8-8.1-0.6-12.1c0.1-2.2,0.5-4.5,0.3-6.7c-0.6-5.2-4.4-9.4-9.4-10.6c-2.6-0.5-5.2-0.3-7.8,0c-6.8,0.7-13.6,1-20.4,0.9
	c-6.9,0-13.8-1.1-20.8-1.2c-2,0-2,0.6-2.7,2.6C461.8,239.3,461.3,241.1,460.9,243z"/>
<path class="st4" d="M480.6,143.3c-0.3,1.7-0.7,3.6-1.7,5c-1.2,1.7-3.2,2.6-4.5,4.2c-2,2.4-2.1,5.7-2.1,8.8c0,2.8,0.1,5.9,1.6,8.2
	c1.1,1.5,2.5,2.7,4.1,3.6c5.9,4,12.3,8.1,19.5,8.2c3,0.1,6.1-0.7,8.1-2.9c0.8-1,1.5-2.2,2-3.5c1.8-4.5,2.9-9.3,3.3-14.1
	c0.3-2.3,0.1-4.6-0.6-6.8c-0.9-2.4-2.6-4.4-3.8-6.7c-1.4-2.7-1.9-5.8-1.4-8.8c0.1-0.2,0-0.4-0.1-0.6c-0.2-0.2-0.5-0.3-0.8-0.3
	l-14.2-1c-1.3-0.1-2.6-0.2-3.9-0.5c-0.8-0.2-2.8-1.2-3.5-1C481.2,135.6,480.9,141.9,480.6,143.3z"/>
<path class="st2" d="M480.6,143.7c-0.3,1.7-0.7,3.6-1.7,5c-1.2,1.7-3.2,2.6-4.5,4.2c-2,2.4-2.1,5.7-2.1,8.8c0,2.8,0.1,5.9,1.6,8.2
	c1.1,1.5,2.5,2.7,4.1,3.6c5.9,4,12.3,8.1,19.5,8.2c3,0.1,6.1-0.7,8.1-2.9c0.8-1,1.5-2.2,2-3.5c1.8-4.5,2.9-9.3,3.3-14.1
	c0.3-2.3,0.1-4.6-0.6-6.8c-0.9-2.4-2.6-4.4-3.8-6.7c-1.4-2.7-1.9-5.8-1.4-8.8c0.1-0.2,0-0.4-0.1-0.6c-0.2-0.2-0.5-0.3-0.8-0.3
	l-14.2-1c-1.3-0.1-2.6-0.2-3.9-0.5c-0.8-0.2-2.8-1.2-3.5-1C481.2,136,480.9,142.3,480.6,143.7z"/>
<circle class="st4" cx="494.2" cy="124.4" r="20.8"/>
<path class="st5" d="M483.5,171c1,1.2,2.3,2.2,3.7,2.9c1.4,0.6,3,0.9,4.6,0.9c3.8,0.1,7.8-0.6,10.4-3.3c3.4-3.5,3.3-9.1,5.9-13.1
	c0.2-0.4,0.5-0.7,0.8-0.9c0.4-0.2,0.9-0.4,1.4-0.3c3.3,0,6.2,2.1,8.9,4.2c1.2,0.8,2.3,1.9,3.1,3.2c0.5,1,0.9,2.1,1.1,3.2
	c1.3,6.3,1.7,12.8,2.1,19.3c0.2,3.6,0.5,7.1,0.4,10.7c-0.1,11.8-2.8,23.4-5.5,34.8c-0.4,1.5-0.8,3.1-2.2,3.8
	c-0.6,0.3-1.2,0.4-1.9,0.5c-7.8,0.9-15.6,1.8-23.5,2c-3.1,0-6.1,0-9.2-0.2c-0.5,0-1-0.1-1.5-0.3c-0.7-0.3-1.3-0.8-1.7-1.4
	c-4.2-5.4-4.5-12.8-4.5-19.6c0.1-16.7,0.7-33.4,1.8-50.1c0.1-1.4,0.1-3-0.9-4.1C478.8,165.9,481.1,168.6,483.5,171z"/>
<path class="st5" d="M479.1,147c-0.7,1.3-5.9,4.4-6.9,5.5c-5.6,5.9-15.8,5.7-20.9,12c-1.8,2.2-2.7,5-3.4,7.8
	c-1,3.9-1.5,8.2,0.1,11.9c1.6,3.6,4.9,6,7.1,9.2c2.5,3.5,3.6,7.7,4.6,11.9c0.8,3.1,1.6,6.2,1.3,9.3c-0.3,3.6-2.1,6.8-3.1,10.3
	c-1,3.4-1.2,7.5,1.2,10.2c1.7,2,4.4,2.8,7,3.2c3.3,0.5,6.7,0.8,10,0.9c3,0.1,6.2,0.2,8.5-1.7c1.8-1.5,2.6-3.9,2.7-6.3
	s-0.4-4.7-0.7-7c-0.3-2.4-0.4-4.8-0.5-7.3c-0.5-10.9-0.5-21.8-0.2-32.7c0.2-2.3,0.1-4.5-0.3-6.8c-0.6-2.9-2.2-5.5-3.5-8.2
	c-2.6-5-3.8-10.7-3.4-16.4C479.1,146.9,481.6,142.4,479.1,147z"/>
<path class="st5" d="M508.3,147.4c1.1,1.1,4.7,1.5,6.1,2.2c1.3,0.6,2.6,1.1,4,1.4c5,1.4,9.7,3.6,14,6.4c0.9,0.5,1.7,1.2,2.3,2
	c0.7,1.1,1.1,2.4,1.3,3.7c0.7,3.3,1.3,6.6,1.2,10c-0.2,3.6-1.2,7-2.3,10.5l-4,12.8c-3,9.5-6,19.1-6.8,29.1
	c-0.5,5.5-0.3,11.1,0.6,16.5c0.2,0.5,0.1,1.1-0.2,1.6c-0.3,0.3-0.6,0.4-1,0.4c-1.9,0.3-3.8-0.7-5.5-1.6c-5.3-2.7-11-4.5-16.9-5.5
	c2.3-3.3,4.1-7,5.2-10.8c0.7-2.4,1.2-4.9,1.6-7.4l1.9-10.7c0.8-3.9,1.3-7.9,1.6-11.9c0.1-1.5,0.1-3-0.3-4.5c-0.4-1.4-1-2.7-1.7-4
	c-3.1-6.4-4.5-13.6-3.3-20.6c0.5-3,1.6-6.1,1.1-9.2c-0.4-2.9,0-5.2-0.7-8.1C503.5,137.7,506.3,145.3,508.3,147.4z"/>
<path class="st5" d="M451.3,174.5c-1.4,2.9-3.7,5.4-4.5,8.5c-0.3,1.5-0.4,2.9-0.4,4.4c-0.1,2.2,0.1,4.5,0.7,6.7
	c0.4,1.4,1.2,2.6,1.7,4c0.7,1.9,1,3.9,0.9,5.9c-0.1,2.8-1.1,5.5-1.2,8.3c-0.1,4.4,1.9,8.5,3.9,12.4c1.9-4.7,7.2-6.9,11.9-5.1
	c0.5,0.2,0.9,0.4,1.4,0.7c0.5-0.6,0.7-1.3,0.6-2c0.1-5.1,0.3-10.2,0.4-15.3c0.2-7.9,0.4-15.9-1.4-23.5c-0.8-3.5-2.1-6.9-4.4-9.6
	c-1.2-1.4-5.4-5.1-7.4-3.6c-0.9,0.7-0.7,2.7-0.8,3.6C452.4,171.6,451.9,173.1,451.3,174.5z"/>
<path class="st5" d="M537.7,166.2c0.6,2.1,0.8,4.2,0.7,6.4c0,4.4,0,8.8-0.2,13.2c0,2.3-0.3,4.5-0.9,6.7c-0.5,1.4-1.1,2.7-1.6,4.2
	c-1.4,4.2-0.6,8.8-0.5,13.3c0.1,1.4,0,2.9-0.4,4.3c-0.7,2.8-2.7,5-4.1,7.5c-1.3,2.4-2.1,5-3.7,7.3c-1.6,2.2-4.3,4-6.9,3.3
	c-2-0.5-3.4-2.3-4.4-4.1c-2.1-4-2.9-8.6-2.1-13c1-5.4,4.2-10.2,5.3-15.6c1.6-7.4-0.8-15-0.7-22.5c0-1.2,0.1-2.4,0.5-3.5
	c0.6-1.7,1.9-3.1,3.1-4.5c1.5-1.7,2.9-3.5,4.1-5.4c0.9-1.3,2-4.5,3.5-4.8C532.9,158.2,536.8,163.6,537.7,166.2z"/>
<path class="st3" d="M433.7,239.7c-1.9-0.5-3.8-0.7-5.7-0.6c-7.9,0.4-13.9,7.2-13.5,15c0,0.6,0.1,1.2,0.2,1.8
	c0.5,2.2,1.2,4.2,2.3,6.2c1.5,3.1,3.3,6.1,6.1,8.1c1.7,1.1,3.5,2,5.4,2.6l14.8,5.6c2.2,0.8,4.3,1.6,6.5,2.4
	c11,3.8,22.5,6.1,34.2,6.8c3.5,0.3,7.1,0.2,10.6-0.5c0.8-0.1,1.6-0.5,2.2-1.2c0.3-0.5,0.4-1,0.5-1.6l0.9-6.4
	c0.2-0.9,0.2-1.8-0.1-2.7c-0.4-1.1-1.5-1.7-2.5-2.3c-9.7-5.6-21.1-8.7-29.2-16.3c-1.9-1.8-3.5-4.7-5.9-5.9c-2.7-1.4-5.8-2.2-8.5-3.5
	C446.1,244.4,440.2,241.2,433.7,239.7z"/>
<path class="st2" d="M448.5,248.3c5.2,1.6,27.3,13,31.1,16.9c-0.5,0.2-17.7-9.5-18.2-9.6c-4.7-1.3-9.4-2.9-13.9-4.9
	c-0.9-0.4-5.8-2.4-5.6-3.5C442.1,246,447.6,248,448.5,248.3z"/>
<path class="st4" d="M513.7,290.9c0.3,0,0.6-0.1,0.8-0.2c0.2-0.3,0.3-0.6,0.3-1l0-8.7c-2.5-1.2-5.3-1.6-8-1.9l-12.8-1.7
	c0.3,0-2,5.5-1.6,6.2c0.6,1.3,5.4,2.4,6.7,3C503.6,288.7,508.4,291.1,513.7,290.9z"/>
<path class="st4" d="M473.6,281c-2.4,0.4-5.1,0.7-6.7,2.6c-2,2.4-1.1,5.9-0.2,8.9c0.2,1.6,1.7,2.7,3.3,2.4c0,0,0.1,0,0.1,0
	c2.2,0.1,4.5,0.2,6.5-0.8c0.9-0.6,1.7-1.2,2.5-1.9c1.4-0.9,3-1.7,4.6-2.1c3-0.9,6.1-1.6,9.3-1.9c1.2-0.1,2.5-0.3,3.7-0.6
	c1.2-0.4,2.1-1.3,2.6-2.5c0.4-1.6-0.5-3.2-1.3-4.6c-1-1.8-2.3-3.4-3.9-4.8c-2.4-1.8-3.6-0.4-6,0.8
	C483.4,278.6,478.6,280.2,473.6,281z"/>
<path class="st3" d="M467.3,283.1l-15.3-4.5c-1.8-0.6-3.8-1-5.7-1.1c-2-0.1-3.9,0.7-5.2,2.1c-1.2,1.4-1.5,3.3-1.8,5.1l-0.6,3.9
	c-0.4,1.9-0.5,4-0.4,5.9c0.2,2,1.3,3.8,3,4.9c2.1,1.2,4.7,0.6,7.1,0.1c4.8-1,9.6-1.5,14.5-1.6c1.8,0,3.8,0,5.4-0.9
	c1.9-1.1,3.1-3.1,3.3-5.3C471.8,288.5,470.7,284.2,467.3,283.1z"/>
<path class="st3" d="M519.7,279.2c2-0.3,3.7-1.5,5.6-2.1c2.7-0.9,5.6-0.9,8.4-0.9c1-0.1,2.1,0.1,3,0.6c1.2,0.8,1.6,2.5,1.8,4l1.3,9
	c0.3,1.7,0.4,3.4,0.1,5.1c-0.4,1.7-1.5,3.3-3.2,3.7c-2,0.5-4-0.8-5.9-1.6c-4.7-2.1-10.2-1.6-15.2-3.1c-1-0.2-1.8-0.8-2.3-1.6
	c-0.2-0.5-0.2-1-0.2-1.5c0.1-2.9-0.5-6.8,0.3-9.6C514.4,278.5,517.5,279.2,519.7,279.2z"/>
<path class="st3" d="M552.1,236.1c3.1-0.8,6.2-1,9.4-0.6c2.5,0.3,5.1,1,6.9,2.7c2.2,2.1,2.9,5.4,3,8.4c0.1,6.1-1.9,12.1-5.7,16.8
	c-0.9,1.2-2,2.3-3.3,3.2c-1.3,0.8-2.8,1.5-4.3,2.1L525,281.7c-8.7,3.4-17.4,6.9-26.5,9.1c-1,0.5-2.3,0.1-2.8-1c0,0,0,0,0,0
	c-2.9-4.1-5.3-8.6-7.3-13.3c-0.3-0.4-0.3-0.9,0.1-1.3c0.1-0.1,0.2-0.1,0.3-0.2l23.4-13.5c1.7-0.9,3.3-2,4.8-3.3c1-1,1.8-2.1,2.4-3.4
	c0.5-1,0.5-3.4,1.2-4.2c0.6-0.7,2.7-0.8,3.6-1.1c1.4-0.4,2.7-0.9,4-1.5c5.2-2.3,9.9-5.7,14.9-8.5C546,238.2,549,237,552.1,236.1z"/>
<path class="st2" d="M538.8,246.1c-4,3-9.2,5.8-13.2,8.9c-1.4,1.1-24,13.8-24.4,15.5c3.7,0.6,27.4-15.9,30.8-17.6
	c3.4-1.7,6.4-4,9.4-6.3c0.8-0.6,4-2.4,1.8-3C542,243.3,539.7,245.5,538.8,246.1z"/>
<path class="st6" d="M511.2,147.7h-35.3c-3,0-5.4,2.4-5.4,5.4l0,0v2h-0.4v4.4h0.4v3.1h-0.4v2.7h0.4V198c0,3,2.4,5.4,5.4,5.4l0,0
	h35.3c3,0,5.4-2.4,5.4-5.4l0,0v-44.8C516.6,150.1,514.1,147.7,511.2,147.7z"/>
<polygon class="st3" points="516.8,105.9 498.9,96.6 474.1,100.4 469,123 481.8,122.5 485.3,114.2 485.3,122.4 491.2,122.1 
	494.6,108.9 496.7,123 517.6,122.6 "/>
<path class="st4" d="M455.9,233.2c0.8,1.4,2,2.5,3.3,3.3c1.8,0.8,4,0.8,5.7-0.2c1.8-0.9,3.2-2.4,4.1-4.2c1.9-3.4,2.3-7.5,2.1-11.5
	c-0.2-3.9-1.1-7.8-1.5-11.8c-0.3-2.9-0.3-5.7-0.3-8.6c-0.1-0.6,0.1-1.2,0.4-1.7c0.5-0.5,1.2-0.9,1.9-1c3.9-1.2,6.5-4.8,8.4-8.5
	c1.2-2.4,2.3-5.1,2.1-7.8c-0.2-2.7-2.2-5.5-4.9-5.7c-2.2-0.2-4.3,1.2-5.9,2.8c-4.1,4-6.7,9.2-7.5,14.9c-0.4,2.8-0.3,5.6-1,8.3
	c-1.6,5.7-6.6,9.3-9.2,14.4C451.1,221.7,452.6,228.1,455.9,233.2z"/>
<path class="st4" d="M530,211.2c-1.2,2.7-3.4,4.8-6.1,5.8c-1.7,0.7-3.5,0.8-5.3,0.3c-1.8-0.5-3.2-1.8-3.9-3.5
	c-0.3-0.8-0.4-1.7-0.4-2.6c-0.3-3.9-0.2-7.9,1.3-11.5c0.5-1.4,1.3-2.7,1.7-4.2c0.4-1.7,0.6-3.4,0.6-5.1l0.5-10.6
	c0.1-0.8,0-1.5-0.2-2.3c-0.5-1.5-1.9-2.5-3.2-3.4c-3.2-2.2-6.3-4.8-7.8-8.3c-0.5-1.1-0.7-2.3-0.5-3.4c0.4-2.1,2.6-3.5,4.6-3.9
	c5.6-1.2,11.1,2.3,12.4,7.9c0,0.1,0.1,0.3,0.1,0.4c0.2,1.2,0.2,2.4,0.3,3.6c0.3,2.6,1.1,5,1.6,7.5c1.2,6.2,0.6,12.6,1.8,18.8
	C528.5,202.2,532.4,205.6,530,211.2z"/>
<circle class="st1" cx="494" cy="167.1" r="4.4"/>
<circle class="st3" cx="13.1" cy="313.2" r="13.1"/>
<polygon class="st7" points="60.4,352 53.8,345.6 40.6,349.7 41.9,365 69.1,363.7 60.7,352.4 "/>
<circle class="st7" cx="46" cy="330.7" r="21.1"/>
<path class="st3" d="M177.2,379.1c0,0,25.9,44.6,32.1,51.3c2.9,3.3,6.1,6.4,9.4,9.3c0,0-2.9,9.6-7.5,9.3c-2.6-0.2-5.2-0.8-7.6-1.9
	c0,0-2.1-5.3-5.7-7.7c-3.6-2.3-33-31.3-32.3-40.5S177.2,379.1,177.2,379.1z"/>
<path class="st3" d="M84.7,442.7c0,0,27.7,21.5,65.3,1.3l3.2-2.4c0,0-5.5,12.3-6,15.6c-0.6,3.9-14.8,26.5-17.1,27.6
	c-2.3,1.1-2.8,2.1-2.8,2.1l9.9,10.9l3.6-2.7c0,0,14.2-20.1,18.4-23.8c4.2-3.7,24-41.7,24-41.7s7.6-14.3-11.3-15.4
	c-18.9-1.1-27.6,4.1-27.6,4.1l-33.5,5.3L84.7,442.7z"/>
<path class="st3" d="M219,437.6l14,9.7c0,0,17.9,5.6,6.9,9.3c-11,3.7-40,5.1-40.6-0.1c-0.7-5.1,1.1-13.2,2.6-12.8
	C203.2,444.2,213.3,446.8,219,437.6z"/>
<path class="st3" d="M142,491.8l2.6,14.2c0,0,7.4,14.1-1.5,9.7c-8.8-4.4-27.1-21-24.4-24.5s8.6-7.3,9.2-6.1
	C128.6,486.3,133.1,493.9,142,491.8z"/>
<path class="st5" d="M115.4,428.3c0,0-18.8,22-30.2,16.6S27,377.8,32.3,366.4s7.1-9,7.1-9l24.1,2.2l-6.9-11.1c0,0,3.2-2.4,6.3,1
	c3.1,3.3,15.5,11.7,19.8,23.5c4.3,11.8,17,11.2,17,11.2L115.4,428.3z"/>
<polygon class="st0" points="191.3,383 158.7,417.6 129.5,366.1 157.3,332.5 "/>
<polygon class="st5" points="188.8,382.7 159.4,413.1 132.7,366.2 157.2,335.4 "/>
<polygon class="st8" points="157.1,416.3 158.7,417.6 157.7,419.6 112.1,433.2 111.7,431.6 113.7,429.5 "/>
<polygon class="st6" points="159.1,417.3 111.9,432.1 83.1,377.7 129.5,366.1 "/>
<polygon class="st0" points="155.6,410 153.5,411.5 131.1,372.4 133.4,371.3 "/>
<polygon class="st0" points="150.9,412.1 130.9,418.1 108.3,377.9 128,373.4 "/>
<path class="st7" d="M94.7,382.3l4.1-1.2c0,0,23.1-2.6,23.4,4.6c0.3,7.2-26.5,3.9-26.5,3.9l-3.6-4.9L94.7,382.3z"/>
<path class="st7" d="M114.9,414.9l5.8-2.4c0,0,17.4-7.8,12.4-12.9c-5-5.1-20.4,3.7-20.4,3.7l-2.9,2.8L114.9,414.9z"/>
<path class="st5" d="M109.7,403.7c0,0,9.4,9.3,7.2,11.5c-2.1,2.2-37.1,31-45.8,21.8s-50.9-55.6-34.5-59.6s20.8,5.3,20.8,5.3
	l21.7,37.1L109.7,403.7z"/>
<polygon class="st5" points="81.7,375.3 97.1,380.6 96.8,391.7 80.5,389.9 "/>
<polygon class="st9" points="95.6,409.5 79,419.2 60,390 78.3,414 "/>
<ellipse transform="matrix(4.531443e-02 -0.999 0.999 4.531443e-02 -289.1579 346.5997)" class="st3" cx="36.8" cy="324.6" rx="25.1" ry="25.1"/>
<polygon class="st1" points="172.6,385.2 155,359.5 162.5,350.2 180.8,376.7 "/>
<polygon class="st10" points="172.1,395.6 145.3,356.6 146.7,355 173.3,394.1 "/>
<polygon class="st10" points="168.7,399.4 141.9,360.4 143.2,358.8 169.9,397.9 "/>
<polygon class="st10" points="165.7,402.2 138.9,363.2 140.3,361.6 166.9,400.7 "/>
<path class="st3" d="M47.9,307.8h7.8c8.2,0,14.9,6.6,14.9,14.9l0,0l0,0l0,0H47.9l0,0V307.8L47.9,307.8z"/>
<path class="st0" d="M155.1,298.3l-1.4-0.1c-0.1,0.7-0.1,1.5-0.1,2.2l-6.3-0.2l6.6,12.4l7.5-12l-6.4-0.2
	C155,299.8,155,299.1,155.1,298.3z"/>
<path class="st0" d="M192.2,196.9l1.1,0.9c1.7-2.2,3.4-4.4,5.2-6.6l-1.1-0.9C195.7,192.5,193.9,194.7,192.2,196.9z"/>
<path class="st0" d="M203,184l1,1c1.9-2.1,3.8-4.1,5.8-6.1l-1-1C206.9,179.8,204.9,181.9,203,184z"/>
<path class="st0" d="M214.9,172l1,1c2.1-1.9,4.2-3.7,6.3-5.5l-0.9-1.1C219.1,168.2,217,170.1,214.9,172z"/>
<path class="st0" d="M182.5,210.8l1.2,0.8c1.5-2.4,3-4.7,4.6-7l-1.2-0.8C185.6,206.1,184,208.4,182.5,210.8z"/>
<path class="st0" d="M227.9,161.1l0.9,1.1c2.2-1.7,4.5-3.4,6.8-5l-0.8-1.2C232.4,157.8,230.1,159.4,227.9,161.1z"/>
<path class="st0" d="M174.1,225.5l1.3,0.6c1.3-2.5,2.6-5,4-7.4l-1.2-0.7C176.8,220.5,175.4,223,174.1,225.5z"/>
<path class="st0" d="M160.5,265.3l-1.4-0.4c-0.7,2.7-1.3,5.5-1.9,8.2l1.4,0.3C159.2,270.7,159.8,268,160.5,265.3z"/>
<path class="st0" d="M241.7,151.5l0.8,1.2c2.3-1.5,4.8-3,7.2-4.3l-0.7-1.2C246.5,148.5,244.1,150,241.7,151.5z"/>
<path class="st0" d="M157,281.7l-1.4-0.2c-0.5,2.8-0.9,5.6-1.2,8.4l1.4,0.2C156.2,287.2,156.6,284.4,157,281.7z"/>
<path class="st0" d="M167.1,240.9l1.3,0.5c1-2.6,2.2-5.2,3.3-7.7l-1.3-0.6C169.3,235.6,168.1,238.3,167.1,240.9z"/>
<path class="st0" d="M161.4,256.8l1.4,0.4c0.8-2.7,1.7-5.4,2.6-8l-1.3-0.5C163.1,251.4,162.2,254.1,161.4,256.8z"/>
<path class="st0" d="M337.4,123.3c2.8-0.1,5.6-0.1,8.4-0.1l0-1.4c-2.8,0-5.7,0-8.4,0.1L337.4,123.3z"/>
<path class="st0" d="M256.3,143l0.7,1.3c2.5-1.3,5-2.5,7.5-3.7l-0.6-1.3C261.3,140.5,258.8,141.8,256.3,143z"/>
<path class="st0" d="M370.8,125c2.8,0.4,5.5,0.8,8.3,1.4l0.3-1.4c-2.8-0.5-5.6-1-8.3-1.4L370.8,125z"/>
<path class="st0" d="M387.3,128.1c2.7,0.6,5.4,1.3,8.1,2.1l0.4-1.4c-2.7-0.8-5.5-1.5-8.2-2.1L387.3,128.1z"/>
<path class="st0" d="M403.5,132.7c2.6,0.9,5.3,1.8,7.9,2.8l0.5-1.3c-2.6-1-5.3-1.9-8-2.8L403.5,132.7z"/>
<path class="st0" d="M354.1,123.4c2.8,0.1,5.6,0.4,8.4,0.6l0.1-1.4c-2.8-0.3-5.6-0.5-8.4-0.6L354.1,123.4z"/>
<path class="st0" d="M320.5,123.2l0.2,1.4c2.8-0.3,5.6-0.6,8.3-0.8l-0.1-1.4C326.1,122.6,323.3,122.8,320.5,123.2z"/>
<path class="st0" d="M287.5,130.3l0.4,1.4c2.7-0.8,5.4-1.6,8.1-2.3l-0.4-1.4C292.9,128.6,290.2,129.4,287.5,130.3z"/>
<path class="st0" d="M271.6,136l0.5,1.3c2.6-1.1,5.2-2.1,7.8-3l-0.5-1.3C276.8,133.9,274.2,134.9,271.6,136z"/>
<path class="st0" d="M303.8,126l0.3,1.4c2.7-0.6,5.5-1.1,8.2-1.6l-0.2-1.4C309.4,124.9,306.6,125.4,303.8,126z"/>
<path class="st0" d="M432.5,144.2l-7.9-11.7l-2.8,5.7c-0.7-0.3-1.3-0.6-2-0.9l-0.6,1.3c0.7,0.3,1.3,0.6,2,0.9l-2.8,5.7L432.5,144.2z
	"/>
</svg>
